<svg width="50" height="50" viewBox="0 0 50 50" xmlns="http://www.w3.org/2000/svg"><path fill-rule="evenodd" clip-rule="evenodd" d="M21.897 17H5v-4a4 4 0 0 1 4-4h15.837l7.347 8H46a4 4 0 0 1 4 4v4H29.244l-7.347-8Z" fill="var(--o-icons-red-pure, #FC787D)"/><path fill-rule="evenodd" clip-rule="evenodd" d="M21.897 17H5v-4a4 4 0 0 1 4-4h15.837l7.347 8H46a4 4 0 0 1 4 4v4H29.244l-7.347-8Z" fill="url(#o_icon_marketing_automation__a)" fill-opacity=".2"/><path fill-rule="evenodd" clip-rule="evenodd" d="M16.772 33H0v-4a4 4 0 0 1 4-4h15.962l7.347 9H41a4 4 0 0 1 4 4v4H24.12l-7.348-9Z" fill="var(--o-icons-teal-pure, #00CEB3)"/><path fill-rule="evenodd" clip-rule="evenodd" d="M16.772 33H0v-4a4 4 0 0 1 4-4h15.962l7.347 9H41a4 4 0 0 1 4 4v4H24.12l-7.348-9Z" fill="url(#o_icon_marketing_automation__b)" fill-opacity=".2"/><path fill-rule="evenodd" clip-rule="evenodd" d="M31.225 25H50v-4a4 4 0 0 0-4-4H27.959l-8.164 8H4a4 4 0 0 0-4 4v4h23.062l8.163-8Z" fill="var(--o-icons-purple-pure, #93407D)"/><path fill-rule="evenodd" clip-rule="evenodd" d="M31.225 25H50v-4a4 4 0 0 0-4-4H27.959l-8.164 8H4a4 4 0 0 0-4 4v4h23.062l8.163-8Z" fill="url(#o_icon_marketing_automation__c)" fill-opacity=".2"/><path d="M24.968 31.132 19.962 25H4a4.005 4.005 0 0 0-4 4v4h23.062l1.906-1.868Z" fill="var(--o-icons-purple-teal, #003458)"/><path d="M24.968 31.132 19.962 25H4a4.005 4.005 0 0 0-4 4v4h23.062l1.906-1.868Z" fill="url(#o_icon_marketing_automation__d)" fill-opacity=".3"/><defs><linearGradient id="o_icon_marketing_automation__a" x1="5" y1="9" x2="42.641" y2="35.466" gradientUnits="userSpaceOnUse"><stop stop-color="#fff"/><stop offset="1" stop-color="#fff" stop-opacity="0"/></linearGradient><linearGradient id="o_icon_marketing_automation__b" x1="0" y1="25" x2="39.119" y2="50.887" gradientUnits="userSpaceOnUse"><stop stop-color="#fff"/><stop offset="1" stop-color="#fff" stop-opacity="0"/></linearGradient><linearGradient id="o_icon_marketing_automation__c" x1="0" y1="17" x2="38.811" y2="47.321" gradientUnits="userSpaceOnUse"><stop stop-color="#fff"/><stop offset="1" stop-color="#fff" stop-opacity="0"/></linearGradient><linearGradient id="o_icon_marketing_automation__d" x1="0" y1="25" x2="19.4" y2="40.137" gradientUnits="userSpaceOnUse"><stop stop-color="#fff"/><stop offset="1" stop-color="#fff" stop-opacity="0"/></linearGradient></defs></svg>
