<svg width="50" height="50" viewBox="0 0 50 50" xmlns="http://www.w3.org/2000/svg"><path d="M.923 23.987C-.85 22.701.103 20 2.331 20h23.342c1.285 0 2.327.994 2.327 2.22v17.556c0 1.865-2.265 2.899-3.788 1.728L9.967 30.544.923 23.987Z" fill="var(--o-icons-teal-pure, #00CEB3)"/><path d="M.923 23.987C-.85 22.701.103 20 2.331 20h23.342c1.285 0 2.327.994 2.327 2.22v17.556c0 1.865-2.265 2.899-3.788 1.728L9.967 30.544.923 23.987Z" fill="url(#o_icon_account_auto_transfer__a)" fill-opacity=".2"/><path d="M49.077 26.013c1.774 1.286.82 3.987-1.408 3.987H24.327C23.042 30 22 29.006 22 27.78V10.224c0-1.865 2.265-2.899 3.788-1.728l14.245 10.96 9.044 6.557Z" fill="var(--o-icons-red-pure, #FC787D)"/><path d="M49.077 26.013c1.774 1.286.82 3.987-1.408 3.987H24.327C23.042 30 22 29.006 22 27.78V10.224c0-1.865 2.265-2.899 3.788-1.728l14.245 10.96 9.044 6.557Z" fill="url(#o_icon_account_auto_transfer__b)" fill-opacity=".2"/><path d="M22 20h3.673c1.285 0 2.327.994 2.327 2.22V30h-3.673C23.042 30 22 29.006 22 27.78V20Z" fill="var(--o-icons-red-teal, #006158)"/><path d="M22 20h3.673c1.285 0 2.327.994 2.327 2.22V30h-3.673C23.042 30 22 29.006 22 27.78V20Z" fill="url(#o_icon_account_auto_transfer__c)" fill-opacity=".2"/><defs><linearGradient id="o_icon_account_auto_transfer__a" x1="0" y1="20" x2="31.782" y2="30.113" gradientUnits="userSpaceOnUse"><stop stop-color="#fff"/><stop offset="1" stop-color="#fff" stop-opacity="0"/></linearGradient><linearGradient id="o_icon_account_auto_transfer__b" x1="22" y1="8" x2="53.782" y2="18.113" gradientUnits="userSpaceOnUse"><stop stop-color="#fff"/><stop offset="1" stop-color="#fff" stop-opacity="0"/></linearGradient><linearGradient id="o_icon_account_auto_transfer__c" x1="22" y1="20" x2="29.335" y2="21.1" gradientUnits="userSpaceOnUse"><stop stop-color="#fff"/><stop offset="1" stop-color="#fff" stop-opacity="0"/></linearGradient></defs></svg>
