<svg width="50" height="50" viewBox="0 0 50 50" xmlns="http://www.w3.org/2000/svg"><path fill-rule="evenodd" clip-rule="evenodd" d="M4 8.075a4 4 0 0 0-4 4v26a4 4 0 0 0 4 4h21v-34H4Zm2.825 18.732c-1.333-.77-1.333-2.694 0-3.464l9.046-5.223c1.333-.77 3 .193 3 1.733v10.444c0 1.54-1.667 2.502-3 1.732l-9.046-5.222Z" fill="#00CEB3"/><path fill-rule="evenodd" clip-rule="evenodd" d="M4 8.075a4 4 0 0 0-4 4v26a4 4 0 0 0 4 4h21v-34H4Zm2.825 18.732c-1.333-.77-1.333-2.694 0-3.464l9.046-5.223c1.333-.77 3 .193 3 1.733v10.444c0 1.54-1.667 2.502-3 1.732l-9.046-5.222Z" fill="url(#o_icon_project_forecast__a)" fill-opacity=".2"/><path fill-rule="evenodd" clip-rule="evenodd" d="M46 8.075H25v34h21a4 4 0 0 0 4-4v-26a4 4 0 0 0-4-4Zm-2.826 18.732c1.334-.77 1.334-2.694 0-3.464L34.13 18.12c-1.333-.77-3 .193-3 1.733v10.444c0 1.54 1.667 2.502 3 1.732l9.045-5.222Z" fill="#93407D"/><path fill-rule="evenodd" clip-rule="evenodd" d="M46 8.075H25v34h21a4 4 0 0 0 4-4v-26a4 4 0 0 0-4-4Zm-2.826 18.732c1.334-.77 1.334-2.694 0-3.464L34.13 18.12c-1.333-.77-3 .193-3 1.733v10.444c0 1.54 1.667 2.502 3 1.732l9.045-5.222Z" fill="url(#o_icon_project_forecast__b)" fill-opacity=".2"/><path d="M23 6.995C23 5.893 23.895 5 25 5s2 .893 2 1.995v36.01A1.997 1.997 0 0 1 25 45c-1.105 0-2-.893-2-1.995V6.995Z" fill="#003458"/><path d="M23 6.995C23 5.893 23.895 5 25 5s2 .893 2 1.995v36.01A1.997 1.997 0 0 1 25 45c-1.105 0-2-.893-2-1.995V6.995Z" fill="url(#o_icon_project_forecast__c)" fill-opacity=".3"/><defs><linearGradient id="o_icon_project_forecast__a" x1="0" y1="8.075" x2="30.229" y2="13.632" gradientUnits="userSpaceOnUse"><stop stop-color="#fff"/><stop offset="1" stop-color="#fff" stop-opacity="0"/></linearGradient><linearGradient id="o_icon_project_forecast__b" x1="25" y1="8.075" x2="55.228" y2="13.632" gradientUnits="userSpaceOnUse"><stop stop-color="#fff"/><stop offset="1" stop-color="#fff" stop-opacity="0"/></linearGradient><linearGradient id="o_icon_project_forecast__c" x1="23" y1="5" x2="27.997" y2="5.125" gradientUnits="userSpaceOnUse"><stop stop-color="#fff"/><stop offset="1" stop-color="#fff" stop-opacity="0"/></linearGradient></defs></svg>
