<?xml version="1.0" encoding="utf-8"?>
<!-- Generator: Adobe Illustrator 23.0.4, SVG Export Plug-In . SVG Version: 6.00 Build 0)  -->
<svg version="1.1" id="Layer_1" xmlns="http://www.w3.org/2000/svg" xmlns:xlink="http://www.w3.org/1999/xlink" x="0px" y="0px"
	 viewBox="0 0 70 70" style="enable-background:new 0 0 70 70;" xml:space="preserve">
<style type="text/css">
	.st0{filter:url(#Adobe_OpacityMaskFilter);}
	.st1{fill-rule:evenodd;clip-rule:evenodd;fill:#FFFFFF;}
	.st2{mask:url(#b_2_);}
	.st3{fill-rule:evenodd;clip-rule:evenodd;fill:url(#SVGID_1_);}
	.st4{fill-rule:evenodd;clip-rule:evenodd;fill:#FFFFFF;fill-opacity:0.383;}
	.st5{opacity:0.32;fill-rule:evenodd;clip-rule:evenodd;fill:#393939;enable-background:new    ;}
	.st6{fill-rule:evenodd;clip-rule:evenodd;fill-opacity:0.383;}
	.st7{opacity:0.6;}
	.st8{fill:#FFFFFF;}
</style>
<defs>
	<filter id="Adobe_OpacityMaskFilter" filterUnits="userSpaceOnUse" x="0" y="0" width="70" height="70">
		<feColorMatrix  type="matrix" values="1 0 0 0 0  0 1 0 0 0  0 0 1 0 0  0 0 0 1 0"/>
	</filter>
</defs>
<mask maskUnits="userSpaceOnUse" x="0" y="0" width="70" height="70" id="b_2_">
	<g class="st0">
		<path id="a_2_" class="st1" d="M4,0h61c4,0,5,1,5,5v60c0,4-1,5-5,5H4c-3,0-4-1-4-5V5C0,1,1,0,4,0z"/>
	</g>
</mask>
<g class="st2">
	
		<linearGradient id="SVGID_1_" gradientUnits="userSpaceOnUse" x1="-636.7571" y1="415.0286" x2="-637.7571" y2="414.0286" gradientTransform="matrix(70 0 0 -70 44643 29052)">
		<stop  offset="0" style="stop-color:#269396"/>
		<stop  offset="1" style="stop-color:#218689"/>
	</linearGradient>
	<path class="st3" d="M0,0h70v70H0V0z"/>
	<path class="st4" d="M4,1h61c2.7,0,4.3,0.7,5,2V0H0v3C0.7,1.7,2,1,4,1z"/>
	<path class="st5" d="M4,69c-1.3,0-4-0.4-4-3.5l0-36l9.1-9.6l36.4,5.9l-5.5,5.3l5.6,0.1l14.8,5.8l-3.8,3.7l2.1,14.8L44.3,69L4,69z"
		/>
	<path class="st6" d="M4,69h61c2.7,0,4.3-1,5-3v4H0v-4C0.3,68.2,2,69,4,69z"/>
	<g class="st7">
		<path d="M52.1,40.6c-5.3,0-9.6,4.3-9.6,9.7s4.3,9.7,9.6,9.7s9.6-4.3,9.6-9.7S57.4,40.6,52.1,40.6z M54.1,51.4
			c0,0.1-0.1,0.3-0.2,0.4l-3.4,2.5c-0.2,0.2-0.5,0.1-0.7-0.1l-1.1-1.5c-0.2-0.2-0.1-0.5,0.1-0.7l2.5-1.8v-5.4c0-0.3,0.2-0.5,0.5-0.5
			h1.9c0.3,0,0.5,0.2,0.5,0.5V51.4z"/>
		<path d="M45.4,26.9H10c-0.6,0-1.2-0.5-1.2-1.2v-3.8c0-0.6,0.5-1.2,1.2-1.2h35.4c0.6,0,1.2,0.5,1.2,1.2v3.8
			C46.5,26.3,46,26.9,45.4,26.9z"/>
		<path d="M60.2,38.1H24.8c-0.6,0-1.2-0.5-1.2-1.2v-3.8c0-0.6,0.5-1.2,1.2-1.2h35.4c0.6,0,1.2,0.5,1.2,1.2v3.8
			C61.3,37.6,60.8,38.1,60.2,38.1z"/>
		<path d="M40.1,48.3c0-1.9,0.5-3.6,1.5-5.1H15.7c-0.6,0-1,0.5-1,1v4.1c0,0.6,0.5,1,1,1h24.5C40.1,48.9,40.1,48.6,40.1,48.3z"/>
		<path d="M42.5,43.2v-1.3l-26.8,1.3c-0.6,0-1,0.5-1,1v4.1c0,0.6,0.5,1,1,1h24.5C40.2,46.9,41.1,44.8,42.5,43.2z"/>
	</g>
	<path class="st8" d="M45.4,25.6H10c-0.6,0-1.2-0.5-1.2-1.2v-3.8c0-0.6,0.5-1.2,1.2-1.2h35.4c0.6,0,1.2,0.5,1.2,1.2v3.8
		C46.5,25.1,46,25.6,45.4,25.6z"/>
	<path class="st8" d="M60.2,36.8H24.8c-0.6,0-1.2-0.5-1.2-1.2v-3.8c0-0.6,0.5-1.2,1.2-1.2h35.4c0.6,0,1.2,0.5,1.2,1.2v3.8
		C61.3,36.3,60.8,36.8,60.2,36.8z"/>
	<path class="st8" d="M42.5,41.9H15.7c-0.6,0-1,0.5-1,1V47c0,0.6,0.5,1,1,1h24.5C40.2,45.7,41.1,43.5,42.5,41.9z"/>
	<path class="st8" d="M52.1,38.6c-5.3,0-9.6,4.3-9.6,9.7s4.3,9.7,9.6,9.7s9.6-4.3,9.6-9.7S57.4,38.6,52.1,38.6z M54.1,49.4
		c0,0.1-0.1,0.3-0.2,0.4l-3.4,2.5c-0.2,0.2-0.5,0.1-0.7-0.1l-1.1-1.5c-0.2-0.2-0.1-0.5,0.1-0.7l2.5-1.8v-5.4c0-0.3,0.2-0.5,0.5-0.5
		h1.9c0.3,0,0.5,0.2,0.5,0.5V49.4z"/>
</g>
</svg>
