<svg id="Layer_1" data-name="Layer 1" xmlns="http://www.w3.org/2000/svg" xmlns:xlink="http://www.w3.org/1999/xlink" viewBox="0 0 70 70">
  <defs>
    <mask id="mask" x="0" y="0" width="70" height="70" maskUnits="userSpaceOnUse">
      <g id="b">
        <path id="a" d="M4,0H65c4,0,5,1,5,5V65c0,4-1,5-5,5H4c-3,0-4-1-4-5V5C0,1,1,0,4,0Z" fill="#fff" fill-rule="evenodd"/>
      </g>
    </mask>
    <linearGradient id="linear-gradient" x1="-1793.36" y1="477.94" x2="-1794.36" y2="476.94" gradientTransform="matrix(70, 0, 0, -70, 125604.99, 33455.73)" gradientUnits="userSpaceOnUse">
      <stop offset="0" stop-color="#da956b"/>
      <stop offset="1" stop-color="#cc7039"/>
    </linearGradient>
  </defs>
  <g mask="url(#mask)">
    <g>
      <path d="M0,0H70V70H0Z" fill-rule="evenodd" fill="url(#linear-gradient)"/>
      <path d="M4,1H65c2.67,0,4.33.67,5,2V0H0V3C.67,1.67,2,1,4,1Z" fill="#fff" fill-opacity="0.38" fill-rule="evenodd"/>
      <path d="M4,69c-2,0-4-.14-4-4V40L23.44,12.61l4.33,1.83,0,8.79,1.45,1.1,2.32-1.21.1,7.66,3.21-6.32,1.41,6.38,12.65-3.31,8.84-1.67-1.11,9.76L51,44.54l8-.19L35.5,69Z" fill="#393939" fill-rule="evenodd" opacity="0.32" style="isolation: isolate"/>
      <path d="M4,69H65c2.67,0,4.33-1,5-3v4H0V66A3.92,3.92,0,0,0,4,69Z" fill-opacity="0.38" fill-rule="evenodd"/>
      <g>
        <g opacity="0.4">
          <path d="M18.16,45.41h-1a.53.53,0,0,0-.36.13.4.4,0,0,0-.14.31v4.81h-3.5a.53.53,0,0,0-.36.13.4.4,0,0,0-.14.31V52a.41.41,0,0,0,.14.31.52.52,0,0,0,.36.12h5a.52.52,0,0,0,.36-.12.35.35,0,0,0,.14-.31V45.85a.34.34,0,0,0-.14-.31A.48.48,0,0,0,18.16,45.41Z"/>
          <path d="M27,43.32a1,1,0,0,0-1.38-.2l-1.27.93a10,10,0,0,0-2.71-2.3,9.73,9.73,0,0,0-3.52-1.23V39.41h.5a1,1,0,0,0,0-2h-4a1,1,0,1,0,0,2h.5v1.11a9.86,9.86,0,0,0-3.52,1.23A10.08,10.08,0,0,0,8,45.39a10.07,10.07,0,0,0,0,10,10,10,0,0,0,3.64,3.64,9.76,9.76,0,0,0,5,1.34,9.71,9.71,0,0,0,5-1.34,9.93,9.93,0,0,0,3.64-3.64,9.71,9.71,0,0,0,1.34-5,9.81,9.81,0,0,0-.94-4.26l1.41-1,0,0a1,1,0,0,0,.17-1.4ZM22.72,53.93a7,7,0,0,1-2.54,2.54,7,7,0,0,1-7,0,7,7,0,0,1-3.49-6.06,7,7,0,0,1,7-7h0a6.9,6.9,0,0,1,3.52.94,7,7,0,0,1,2.54,2.55,7,7,0,0,1,0,7Z"/>
          <path d="M28.11,35.7a16.76,16.76,0,0,1-.42-3,13.36,13.36,0,0,1,2.35-8c-.42.11-.82.21-1.15.27a4.56,4.56,0,0,1-2.62-.16,2.26,2.26,0,0,1-1.41-1.83,3.81,3.81,0,0,1,.08-1.81,6.65,6.65,0,0,1,.66-1.56,6.21,6.21,0,0,0,.64-1.61,4.52,4.52,0,0,0,.05-2,3.78,3.78,0,0,0-1.89-2.76A5,5,0,0,0,21,12.76a5.6,5.6,0,0,0-3.27,1.78,3.79,3.79,0,0,0-.82,3.39,5.94,5.94,0,0,0,.75,1.95,6.36,6.36,0,0,0,1.12,1.41,10.28,10.28,0,0,1,1.06,1.13,2.87,2.87,0,0,1,.6,1.16A3.11,3.11,0,0,1,19.7,26,4.06,4.06,0,0,1,17,27.37a39.21,39.21,0,0,1-6,.57c-.05,0-.23,0-.54,0l-.84,0a2.74,2.74,0,0,1-.44,0l1.39,7.17a14.25,14.25,0,0,1,4.59-.75c4.78,0,8,1.41,10.17,3.39l.44-.1a5.45,5.45,0,0,1,2.49.07q-.11-.78-.15-1.56C28.1,36,28.11,35.87,28.11,35.7Z"/>
          <path id="e" d="M56.93,45.22a.62.62,0,0,1,.58.65v.54a.62.62,0,0,1-.58.66H33.34a.62.62,0,0,1-.58-.66V26.65a.62.62,0,0,1,.58-.66h.83a.62.62,0,0,1,.58.66V45.22ZM47.41,29.06l2.75,2.74-3.48,4L44,32.75a.53.53,0,0,0-.82,0l-5.75,6.47a.74.74,0,0,0,0,.93l1.38,1.61a.53.53,0,0,0,.83,0l4-4.51,2.69,3.05a.53.53,0,0,0,.75.07l.07-.07,5.28-6,2.77,2.84,1.1-9.76Z"/>
        </g>
        <g>
          <path d="M19.64,43.89h-1a.48.48,0,0,0-.36.12.41.41,0,0,0-.14.31v4.82h-3.5a.48.48,0,0,0-.36.12.41.41,0,0,0-.14.31v.88a.41.41,0,0,0,.14.31.53.53,0,0,0,.36.13h5a.53.53,0,0,0,.36-.13.41.41,0,0,0,.14-.31V44.32A.41.41,0,0,0,20,44,.52.52,0,0,0,19.64,43.89Z" fill="#fff"/>
          <path d="M28.52,41.79a1,1,0,0,0-1.38-.19l-1.27.93a10,10,0,0,0-2.71-2.3A9.62,9.62,0,0,0,19.64,39v-1.1h.5a1,1,0,0,0,0-2h-4a1,1,0,0,0,0,2h.5V39a9.62,9.62,0,0,0-3.52,1.24A10,10,0,0,0,9.48,53.91a10,10,0,0,0,3.64,3.64,10.07,10.07,0,0,0,10,0,10.08,10.08,0,0,0,3.64-3.64,10.12,10.12,0,0,0,.4-9.29l1.41-1h0a1,1,0,0,0,.18-1.41ZM24.2,52.4A7,7,0,0,1,21.65,55a7,7,0,0,1-9.57-2.55,7,7,0,0,1,0-7,7,7,0,0,1,2.55-2.54,6.79,6.79,0,0,1,3.51-.94h0a6.88,6.88,0,0,1,3.51.95,7,7,0,0,1,2.55,2.54,7,7,0,0,1,0,7Z" fill="#fff"/>
          <path d="M29.59,34.17a16.77,16.77,0,0,1-.42-3,13.38,13.38,0,0,1,2.34-8c-.42.11-.81.2-1.15.27a4.65,4.65,0,0,1-2.62-.16,2.28,2.28,0,0,1-1.41-1.84,4,4,0,0,1,.09-1.81A6.66,6.66,0,0,1,27.07,18a5.63,5.63,0,0,0,.64-1.61,4.37,4.37,0,0,0,.06-2,3.76,3.76,0,0,0-1.89-2.75,5,5,0,0,0-3.45-.46A5.62,5.62,0,0,0,19.16,13a3.76,3.76,0,0,0-.82,3.38,5.72,5.72,0,0,0,.75,2,6.36,6.36,0,0,0,1.12,1.41,9.54,9.54,0,0,1,1.06,1.14,2.75,2.75,0,0,1,.6,1.16,3.13,3.13,0,0,1-.69,2.38,4.11,4.11,0,0,1-2.67,1.4,39.08,39.08,0,0,1-6,.57,4,4,0,0,0-.53,0l-.85,0h-.44l1.4,7.17a14.47,14.47,0,0,1,4.59-.74c4.78,0,8,1.4,10.17,3.38l.44-.1a5.41,5.41,0,0,1,2.48.07c-.07-.51-.12-1-.14-1.56C29.58,34.51,29.59,34.34,29.59,34.17Z" fill="#fff"/>
          <path id="e-2" data-name="e" d="M58.4,43.69a.63.63,0,0,1,.58.66v.54a.63.63,0,0,1-.58.66H34.82a.63.63,0,0,1-.58-.66V25.12a.63.63,0,0,1,.58-.66h.83a.63.63,0,0,1,.58.66V43.69ZM48.88,27.53l2.75,2.75-3.48,4-2.68-3.06a.54.54,0,0,0-.82,0L38.9,37.69a.73.73,0,0,0,0,.93l1.38,1.62a.52.52,0,0,0,.82,0l4-4.51,2.68,3.05a.53.53,0,0,0,.75.07l.07-.07,5.28-6,2.77,2.84,1.11-9.76Z" fill="#fff"/>
        </g>
      </g>
    </g>
  </g>
</svg>
