<svg width="50" height="50" viewBox="0 0 50 50" xmlns="http://www.w3.org/2000/svg"><path d="M45 46c0-11.046-8.954-20-20-20S5 34.954 5 46h40Z" fill="var(--o-icons-yellow-yellow, #F77B09)"/><path d="M45 46c0-11.046-8.954-20-20-20S5 34.954 5 46h40Z" fill="url(#o_icon_timer__a)" fill-opacity=".2"/><path d="M5 4c0 11.046 8.954 20 20 20s20-8.954 20-20H5Z" fill="var(--o-icons-yellow-pure, #FBB130)"/><path d="M5 4c0 11.046 8.954 20 20 20s20-8.954 20-20H5Z" fill="url(#o_icon_timer__b)" fill-opacity=".2"/><defs><linearGradient id="o_icon_timer__a" x1="5" y1="26" x2="45" y2="46" gradientUnits="userSpaceOnUse"><stop stop-color="#fff"/><stop offset="1" stop-color="#fff" stop-opacity="0"/></linearGradient><linearGradient id="o_icon_timer__b" x1="5" y1="4" x2="45" y2="24" gradientUnits="userSpaceOnUse"><stop stop-color="#fff"/><stop offset="1" stop-color="#fff" stop-opacity="0"/></linearGradient></defs></svg>
