<svg id="Layer_1" data-name="Layer 1" xmlns="http://www.w3.org/2000/svg" xmlns:xlink="http://www.w3.org/1999/xlink" viewBox="0 0 70 70">
  <defs>
    <mask id="mask" x="0" y="0" width="70" height="70.01" maskUnits="userSpaceOnUse">
      <g id="icon-b">
        <path id="icon-a" d="M4,0H65c4,0,5,1,5,5V65c0,4-1,5-5,5H4c-3,0-4-1-4-5V5C0,1,1,0,4,0Z" fill="#fff" fill-rule="evenodd"/>
      </g>
    </mask>
    <linearGradient id="linear-gradient" x1="-998.54" y1="477.92" x2="-999.52" y2="476.94" gradientTransform="matrix(70, 0, 0, -70, 69966.3, 33455.73)" gradientUnits="userSpaceOnUse">
      <stop offset="0" stop-color="#797da5"/>
      <stop offset="0.51" stop-color="#6d7194"/>
      <stop offset="1" stop-color="#626584"/>
    </linearGradient>
  </defs>
  <g mask="url(#mask)">
    <g>
      <path d="M0,0H70V70H0Z" fill-rule="evenodd" fill="url(#linear-gradient)"/>
      <path d="M4,1H65q4,0,5,2V0H0V3C.66,1.68,2,1,4,1Z" fill="#fff" fill-opacity="0.38" fill-rule="evenodd"/>
      <path d="M4,69H65q4,0,5-3v4H0V66A3.92,3.92,0,0,0,4,69Z" fill-opacity="0.38" fill-rule="evenodd"/>
      <path d="M4,69c-2,0-4-.14-4-4.07V45.6L29.92,11H35v7l15.62,7L52.26,46.4,35,69Z" fill="#393939" fill-rule="evenodd" opacity="0.32" style="isolation: isolate"/>
      <g>
        <g opacity="0.4">
          <path d="M19.88,64.08a2,2,0,0,1-2-1.78L17,53.57a2,2,0,0,1,1.42-2.13l7.88-2.35a2,2,0,0,1,1.14,3.83L21.13,54.8l.75,7.07a2,2,0,0,1-1.78,2.2Z"/>
          <path d="M32.7,20A20.7,20.7,0,0,0,11.92,38.73a20.23,20.23,0,0,0,1,8.19,1.88,1.88,0,0,0,2.34,1.19h0a2.11,2.11,0,0,0,1.41-2.62,16.27,16.27,0,0,1-.64-7.2A16.59,16.59,0,1,1,19.6,51l-2.48,3.22A20.55,20.55,0,1,0,32.7,20Z"/>
          <path d="M33.94,45.13H26.59a2,2,0,1,1,0-4h5.35V32.06a2,2,0,1,1,4,0V43.13A2,2,0,0,1,33.94,45.13Z"/>
          <rect x="30.61" y="15.54" width="4" height="6.4"/>
          <path d="M37.07,17.92H28.51a2,2,0,1,1,0-4h8.56a2,2,0,0,1,0,4Z"/>
          <path d="M47.85,32.2a2,2,0,0,1-1.22-3.59l3.93-3A2,2,0,1,1,53,28.81l-3.92,3A2,2,0,0,1,47.85,32.2Z"/>
        </g>
        <g>
          <path d="M22.08,60.08a2,2,0,0,1-2-1.78l-.92-8.73a2,2,0,0,1,1.41-2.13l7.88-2.35a2,2,0,1,1,1.14,3.83L23.32,50.8l.75,7.07a2,2,0,0,1-1.78,2.2Z" fill="#fff"/>
          <path d="M34.89,16a20.54,20.54,0,0,0-19.82,27,1.88,1.88,0,0,0,2.34,1.19h0a2.11,2.11,0,0,0,1.41-2.62,16.27,16.27,0,0,1-.63-7.2A16.58,16.58,0,1,1,21.8,47l-2.48,3.22A20.55,20.55,0,1,0,34.89,16Z" fill="#fff"/>
          <path d="M36.13,41.13H28.78a2,2,0,1,1,0-4h5.35V28.06a2,2,0,1,1,4,0V39.13A2,2,0,0,1,36.13,41.13Z" fill="#fff"/>
          <rect x="32.81" y="11.54" width="4" height="6.4" fill="#fff"/>
          <path d="M39.27,13.92H30.71a2,2,0,0,1,0-4h8.56a2,2,0,0,1,0,4Z" fill="#fff"/>
          <path d="M50,28.2a2,2,0,0,1-1.21-3.59l3.92-3a2,2,0,1,1,2.42,3.18l-3.92,3A2,2,0,0,1,50,28.2Z" fill="#fff"/>
        </g>
      </g>
    </g>
  </g>
</svg>
