<svg width="50" height="50" viewBox="0 0 50 50" xmlns="http://www.w3.org/2000/svg"><path d="M50 27a2 2 0 1 1-4 0v-4a2 2 0 1 1 4 0v4Z" fill="var(--o-icons-red-teal, #006158)"/><path d="M50 27a2 2 0 1 1-4 0v-4a2 2 0 1 1 4 0v4Z" fill="url(#o_icon_voip__a)" fill-opacity=".2"/><path d="M43 30a2 2 0 1 1-4 0V20a2 2 0 1 1 4 0v10Z" fill="var(--o-icons-teal-pure, #00CEB3)"/><path d="M43 30a2 2 0 1 1-4 0V20a2 2 0 1 1 4 0v10Z" fill="url(#o_icon_voip__b)" fill-opacity=".2"/><path d="M36 37.5a2.5 2.5 0 0 1-5 0v-25a2.5 2.5 0 0 1 5 0v25Z" fill="var(--o-icons-teal-teal, #00A079)"/><path d="M36 37.5a2.5 2.5 0 0 1-5 0v-25a2.5 2.5 0 0 1 5 0v25Z" fill="url(#o_icon_voip__c)" fill-opacity=".2"/><path d="M28 33a3 3 0 1 1-6 0V17a3 3 0 1 1 6 0v16Z" fill="var(--o-icons-teal-pure, #00CEB3)"/><path d="M28 33a3 3 0 1 1-6 0V17a3 3 0 1 1 6 0v16Z" fill="url(#o_icon_voip__d)" fill-opacity=".2"/><path d="M19 37.5a2.5 2.5 0 0 1-5 0v-25a2.5 2.5 0 0 1 5 0v25Z" fill="var(--o-icons-teal-teal, #00A079)"/><path d="M19 37.5a2.5 2.5 0 0 1-5 0v-25a2.5 2.5 0 0 1 5 0v25Z" fill="url(#o_icon_voip__e)" fill-opacity=".2"/><path d="M11 30a2 2 0 1 1-4 0V20a2 2 0 1 1 4 0v10Z" fill="var(--o-icons-teal-pure, #00CEB3)"/><path d="M11 30a2 2 0 1 1-4 0V20a2 2 0 1 1 4 0v10Z" fill="url(#o_icon_voip__f)" fill-opacity=".2"/><path d="M4 27a2 2 0 1 1-4 0v-4a2 2 0 1 1 4 0v4Z" fill="var(--o-icons-red-teal, #006158)"/><path d="M4 27a2 2 0 1 1-4 0v-4a2 2 0 1 1 4 0v4Z" fill="url(#o_icon_voip__g)" fill-opacity=".2"/><defs><linearGradient id="o_icon_voip__a" x1="46" y1="21" x2="50.923" y2="21.615" gradientUnits="userSpaceOnUse"><stop stop-color="#fff"/><stop offset="1" stop-color="#fff" stop-opacity="0"/></linearGradient><linearGradient id="o_icon_voip__b" x1="39" y1="18" x2="43.975" y2="18.355" gradientUnits="userSpaceOnUse"><stop stop-color="#fff"/><stop offset="1" stop-color="#fff" stop-opacity="0"/></linearGradient><linearGradient id="o_icon_voip__c" x1="31" y1="10" x2="37.239" y2="10.26" gradientUnits="userSpaceOnUse"><stop stop-color="#fff"/><stop offset="1" stop-color="#fff" stop-opacity="0"/></linearGradient><linearGradient id="o_icon_voip__d" x1="22" y1="14" x2="29.465" y2="14.509" gradientUnits="userSpaceOnUse"><stop stop-color="#fff"/><stop offset="1" stop-color="#fff" stop-opacity="0"/></linearGradient><linearGradient id="o_icon_voip__e" x1="14" y1="10" x2="20.239" y2="10.26" gradientUnits="userSpaceOnUse"><stop stop-color="#fff"/><stop offset="1" stop-color="#fff" stop-opacity="0"/></linearGradient><linearGradient id="o_icon_voip__f" x1="7" y1="18" x2="11.975" y2="18.355" gradientUnits="userSpaceOnUse"><stop stop-color="#fff"/><stop offset="1" stop-color="#fff" stop-opacity="0"/></linearGradient><linearGradient id="o_icon_voip__g" x1="0" y1="21" x2="4.923" y2="21.615" gradientUnits="userSpaceOnUse"><stop stop-color="#fff"/><stop offset="1" stop-color="#fff" stop-opacity="0"/></linearGradient></defs></svg>
