<svg id="Layer_1" data-name="Layer 1" xmlns="http://www.w3.org/2000/svg" xmlns:xlink="http://www.w3.org/1999/xlink" viewBox="0 0 70 70">
  <defs>
    <mask id="mask" x="0" y="0" width="70" height="70" maskUnits="userSpaceOnUse">
      <g id="b">
        <path id="a" d="M4,0H65c4,0,5,1,5,5V65c0,4-1,5-5,5H4c-3,0-4-1-4-5V5C0,1,1,0,4,0Z" fill="#fff" fill-rule="evenodd"/>
      </g>
    </mask>
    <linearGradient id="linear-gradient" x1="-1349.78" y1="568.8" x2="-1350.78" y2="567.81" gradientTransform="matrix(70, 0, 0, -70, 94554.99, 39816)" gradientUnits="userSpaceOnUse">
      <stop offset="0" stop-color="#797c79"/>
      <stop offset="1" stop-color="#545554"/>
    </linearGradient>
  </defs>
  <g mask="url(#mask)">
    <g>
      <path d="M0,0H70V70H0Z" fill-rule="evenodd" fill="url(#linear-gradient)"/>
      <path d="M4,1H65c2.67,0,4.33.67,5,2V0H0V3C.67,1.67,2,1,4,1Z" fill="#fff" fill-opacity="0.38" fill-rule="evenodd"/>
      <path d="M4,69c-2,0-4-.14-4-4V31.08L30.37,10l.07,5.13L43.33,4.93l2.52,2.33.39,7.19,7.13-2.6.38,8.78,9.53-.73-6,16.81,2.1-1.07L48.56,69Z" fill="#393939" fill-rule="evenodd" opacity="0.32" style="isolation: isolate"/>
      <path d="M4,69H65c2.67,0,4.33-1,5-3v4H0V66A3.92,3.92,0,0,0,4,69Z" fill-opacity="0.38" fill-rule="evenodd"/>
      <g>
        <g>
          <path d="M40.5,23.67a.7.7,0,0,1,0,1.4h-.35v.77a6.82,6.82,0,0,1,2.47.87,7,7,0,0,1,1.9,1.61l.89-.65a.71.71,0,0,1,1,.13l.2.27a.69.69,0,0,1-.13,1h0l-1,.73a7.06,7.06,0,0,1-.28,6.5,6.93,6.93,0,0,1-2.55,2.55,7.06,7.06,0,0,1-7,0A7,7,0,0,1,33,36.29a7,7,0,0,1,0-7,6.93,6.93,0,0,1,2.55-2.55,6.71,6.71,0,0,1,2.46-.87v-.77H37.7a.7.7,0,1,1,0-1.4Zm-1.4,4.2a4.88,4.88,0,0,0-4.24,2.45,4.71,4.71,0,0,0-.66,2.46A4.9,4.9,0,0,0,41.56,37,4.88,4.88,0,0,0,44,32.78a4.91,4.91,0,0,0-2.45-4.25,4.71,4.71,0,0,0-2.46-.66Zm1,1.4a.37.37,0,0,1,.26.09.26.26,0,0,1,.09.22v4.29a.25.25,0,0,1-.09.22.39.39,0,0,1-.26.09h-3.5a.38.38,0,0,1-.25-.09.26.26,0,0,1-.1-.22v-.61a.26.26,0,0,1,.1-.22.38.38,0,0,1,.25-.09H39.1V29.58a.3.3,0,0,1,.1-.22.38.38,0,0,1,.25-.09ZM44.52,6.71a2.63,2.63,0,0,1,1.33,1.93,3.06,3.06,0,0,1,0,1.38,4.43,4.43,0,0,1-.45,1.13,4.58,4.58,0,0,0-.45,1.09,2.6,2.6,0,0,0-.07,1.27,1.61,1.61,0,0,0,1,1.29,3.31,3.31,0,0,0,1.84.11,25.11,25.11,0,0,0,3-.85c1.27-.42,2.18-.7,2.7-.83v0a1.37,1.37,0,0,0,0,.31c0,.18,0,.38,0,.59s0,.35,0,.38a26.88,26.88,0,0,0,.41,4.26,2.84,2.84,0,0,0,1,1.88,2.13,2.13,0,0,0,1.66.49,1.73,1.73,0,0,0,.8-.42,6.13,6.13,0,0,0,.79-.74,4.37,4.37,0,0,1,1-.79,4.43,4.43,0,0,1,1.36-.53,2.63,2.63,0,0,1,2.36.59A4,4,0,0,1,64,21.58,3.54,3.54,0,0,1,63.69,24a2.59,2.59,0,0,1-1.91,1.33,3,3,0,0,1-1.37,0,4.09,4.09,0,0,1-1.13-.46,4.68,4.68,0,0,0-1.08-.46,2.56,2.56,0,0,0-1.26-.06c-1.24.24-1.73,1.06-1.45,2.47a9.93,9.93,0,0,0,.65,1.91,9,9,0,0,1,.63,1.92l0,.08-.56.13-1.61.51c-.7.24-1.34.44-1.91.62s-1.13.3-1.65.4a3.18,3.18,0,0,1-1.83-.11,1.61,1.61,0,0,1-1-1.29,2.69,2.69,0,0,1,.06-1.26,4.58,4.58,0,0,1,.46-1.09,4.51,4.51,0,0,0,.45-1.14,3.21,3.21,0,0,0,0-1.38,2.66,2.66,0,0,0-1.33-1.93,3.55,3.55,0,0,0-2.43-.31l-.31.07a10.12,10.12,0,0,0-7.13-2.37,10.11,10.11,0,0,0-3.22.52l-1-5a1.27,1.27,0,0,0,.3,0l.6,0a2.62,2.62,0,0,1,.37,0,28.15,28.15,0,0,0,4.24-.4,2.86,2.86,0,0,0,1.86-1A2.2,2.2,0,0,0,41.72,14a2.06,2.06,0,0,0-.42-.82,7,7,0,0,0-.75-.79,4.74,4.74,0,0,1-.78-1A4,4,0,0,1,39.24,10a2.64,2.64,0,0,1,.58-2.37,4,4,0,0,1,2.29-1.25A3.49,3.49,0,0,1,44.52,6.71Z" opacity="0.4"/>
          <path d="M57.48,36.63a20.84,20.84,0,0,1-2.83,9.87L48.5,40.86a13.05,13.05,0,0,0,.66-2.43,20.76,20.76,0,0,1-3-.26A11,11,0,0,1,35.5,46.5a11,11,0,0,1-11-11,10.59,10.59,0,0,1,3.22-7.78,10.93,10.93,0,0,1,2.85-2.06,21.53,21.53,0,0,1-1-3.06L24.5,17.35a23.63,23.63,0,0,1,4.4-1.85,18.33,18.33,0,0,1,.67-3.39,23.82,23.82,0,0,0-4.09,1.33,24,24,0,0,0-13,13,24.33,24.33,0,0,0,0,19,24,24,0,0,0,13,13,24.33,24.33,0,0,0,19,0,24,24,0,0,0,13-13A24,24,0,0,0,59.5,36c0-.13,0-.27,0-.4A21.13,21.13,0,0,1,57.48,36.63Zm-35,4.23L16.35,46.5a20.77,20.77,0,0,1,0-21l6.15,5.64a13.71,13.71,0,0,0,0,9.72Zm13,16.64a22.58,22.58,0,0,1-11-2.85l5.91-6.15a15.16,15.16,0,0,0,5.09.89,15,15,0,0,0,5.09-.89l5.91,6.15A22.58,22.58,0,0,1,35.5,57.5Z" fill-rule="evenodd" opacity="0.4" style="isolation: isolate"/>
        </g>
        <g>
          <path d="M40.5,22.29a.7.7,0,0,1,0,1.4h-.35v.77a6.82,6.82,0,0,1,2.47.87,7,7,0,0,1,1.9,1.61l.89-.65a.7.7,0,0,1,1,.13l.2.26a.7.7,0,0,1-.13,1h0l-1,.73a7.06,7.06,0,0,1-.28,6.5,6.93,6.93,0,0,1-2.55,2.55,7.06,7.06,0,0,1-7,0A7,7,0,0,1,33,34.91a7,7,0,0,1,0-7,6.93,6.93,0,0,1,2.55-2.55,6.71,6.71,0,0,1,2.46-.87v-.77H37.7a.7.7,0,1,1,0-1.4Zm-1.4,4.2a4.77,4.77,0,0,0-2.46.66,4.83,4.83,0,0,0-1.78,1.78,4.93,4.93,0,0,0,0,4.93,4.83,4.83,0,0,0,1.78,1.78,4.91,4.91,0,0,0,4.92,0,4.9,4.9,0,0,0,0-8.49,4.71,4.71,0,0,0-2.46-.66Zm1,1.4a.37.37,0,0,1,.26.09.25.25,0,0,1,.09.22v4.29a.26.26,0,0,1-.09.22.39.39,0,0,1-.26.09h-3.5a.38.38,0,0,1-.25-.09.27.27,0,0,1-.1-.22v-.61a.26.26,0,0,1,.1-.22.38.38,0,0,1,.25-.09H39.1V28.2a.29.29,0,0,1,.1-.22.38.38,0,0,1,.25-.09ZM44.52,5.33a2.63,2.63,0,0,1,1.33,1.93,3.07,3.07,0,0,1,0,1.38,4.43,4.43,0,0,1-.45,1.13,4.41,4.41,0,0,0-.45,1.09,2.6,2.6,0,0,0-.07,1.27,1.61,1.61,0,0,0,1,1.29,3.4,3.4,0,0,0,1.84.11,25.11,25.11,0,0,0,3-.85c1.27-.43,2.18-.7,2.7-.83v0a1.34,1.34,0,0,0,0,.31c0,.18,0,.38,0,.59s0,.35,0,.38a26.88,26.88,0,0,0,.41,4.26,2.84,2.84,0,0,0,1,1.88,2.13,2.13,0,0,0,1.66.49,1.83,1.83,0,0,0,.8-.42,6.13,6.13,0,0,0,.79-.74,4.37,4.37,0,0,1,1-.79,4,4,0,0,1,1.36-.53,2.63,2.63,0,0,1,2.36.59A3.94,3.94,0,0,1,64,20.2a3.54,3.54,0,0,1-.31,2.45A2.62,2.62,0,0,1,61.78,24a3.17,3.17,0,0,1-1.37,0,4.42,4.42,0,0,1-1.13-.46A4.29,4.29,0,0,0,58.2,23,2.69,2.69,0,0,0,56.94,23c-1.24.25-1.73,1.07-1.45,2.48a9.93,9.93,0,0,0,.65,1.91,9,9,0,0,1,.63,1.92l0,.08-.56.13L54.62,30c-.7.24-1.34.44-1.91.61a15.25,15.25,0,0,1-1.65.41,3.18,3.18,0,0,1-1.83-.11,1.61,1.61,0,0,1-1-1.29,2.73,2.73,0,0,1,.06-1.27,5,5,0,0,1,.46-1.09,4.29,4.29,0,0,0,.45-1.13,3.21,3.21,0,0,0,0-1.38,2.66,2.66,0,0,0-1.33-1.93,3.55,3.55,0,0,0-2.43-.31l-.31.07a10.13,10.13,0,0,0-7.13-2.38,10.39,10.39,0,0,0-3.22.52l-1-5h.3l.6,0a2.62,2.62,0,0,1,.37,0,28.15,28.15,0,0,0,4.24-.4,2.86,2.86,0,0,0,1.86-1,2.21,2.21,0,0,0,.49-1.67,2,2,0,0,0-.42-.82,7,7,0,0,0-.75-.79,4.74,4.74,0,0,1-.78-1,4,4,0,0,1-.53-1.37,2.64,2.64,0,0,1,.58-2.37A3.92,3.92,0,0,1,42.11,5,3.49,3.49,0,0,1,44.52,5.33Z" fill="#fff"/>
          <path d="M57.31,36.71a20.92,20.92,0,0,1-2.66,7.79L48.5,38.86c.06-.15.09-.31.14-.46a20.36,20.36,0,0,1-2.73-.27,10.8,10.8,0,0,1-2.63,4.15,11,11,0,0,1-15.56,0A10.59,10.59,0,0,1,24.5,34.5a10.59,10.59,0,0,1,3.22-7.78,11,11,0,0,1,2.53-1.9A22.32,22.32,0,0,1,29,20.06L24.5,15.35a23.61,23.61,0,0,1,4.74-2A18,18,0,0,1,30.37,10a24.19,24.19,0,0,0-4.89,1.49,24,24,0,0,0-13,13,24.33,24.33,0,0,0,0,19,24,24,0,0,0,13,13,24.33,24.33,0,0,0,19,0,24,24,0,0,0,13-13,23.92,23.92,0,0,0,1.85-7.88A23,23,0,0,1,57.31,36.71ZM22.5,38.86,16.35,44.5a20.77,20.77,0,0,1,0-21l6.15,5.64a13.71,13.71,0,0,0,0,9.72Zm13,16.64a22.58,22.58,0,0,1-11-2.85l5.91-6.15a15.16,15.16,0,0,0,5.09.89,15,15,0,0,0,5.09-.89l5.91,6.15A22.58,22.58,0,0,1,35.5,55.5Z" fill="#fff" fill-rule="evenodd"/>
        </g>
      </g>
    </g>
  </g>
</svg>
