<svg id="Layer_1" data-name="Layer 1" xmlns="http://www.w3.org/2000/svg" xmlns:xlink="http://www.w3.org/1999/xlink" viewBox="0 0 70 70">
  <defs>
    <mask id="mask" x="0" y="0" width="70" height="70" maskUnits="userSpaceOnUse">
      <g id="b">
        <path id="a" d="M4,0H65c4,0,5,1,5,5V65c0,4-1,5-5,5H4c-3,0-4-1-4-5V5C0,1,1,0,4,0Z" fill="#fff" fill-rule="evenodd"/>
      </g>
    </mask>
    <linearGradient id="linear-gradient" x1="-1527.21" y1="477.94" x2="-1528.21" y2="476.94" gradientTransform="matrix(70, 0, 0, -70, 106974.99, 33455.73)" gradientUnits="userSpaceOnUse">
      <stop offset="0" stop-color="#7cc098"/>
      <stop offset="1" stop-color="#5f8a71"/>
    </linearGradient>
  </defs>
  <g mask="url(#mask)">
    <g>
      <path d="M0,0H70V70H0Z" fill-rule="evenodd" fill="url(#linear-gradient)"/>
      <path d="M4,1H65c2.67,0,4.33.67,5,2V0H0V3C.67,1.67,2,1,4,1Z" fill="#fff" fill-opacity="0.38" fill-rule="evenodd"/>
      <path d="M48.14,69H4a3.66,3.66,0,0,1-4-4V37.34L10,26.76l6.85.09L17,36.3l5.5-9.6.62,2.24,6.55-2.12L30,36l5.7-9.25,7.48,2.54L41.59,36l5.09-9.28,2.56,0v8.85l3.37-8.83,2.11,1.8,5.86-1.85,1.08,10.52-2.61,4.16h2.46l.44,1.3,1.14-1.3h1.07v3.47Z" fill="#393939" fill-rule="evenodd" opacity="0.32" style="isolation: isolate"/>
      <path d="M4,69H65c2.67,0,4.33-1,5-3v4H0V66A3.92,3.92,0,0,0,4,69Z" fill-opacity="0.38" fill-rule="evenodd"/>
      <g opacity="0.4">
        <g>
          <path d="M57.89,27.68h.62l.19,0,.39.12a2.32,2.32,0,0,1,.39.18,2.09,2.09,0,0,1,.4.33,2.91,2.91,0,0,1,.4.51,3.69,3.69,0,0,1,.26.53,6.26,6.26,0,0,1,.18.65,3.75,3.75,0,0,1,.08.69c0,.15,0,.28,0,.28h0l0,0a.35.35,0,0,0,0,.15c0,.06,0,1.52,0,3.23v3.11h0s0,.08,0,.17a1.72,1.72,0,0,1-.07.37,2.72,2.72,0,0,1-.19.47,2.81,2.81,0,0,1-1,1,3.62,3.62,0,0,1-.4.19,2.93,2.93,0,0,1-.59.13c-.21,0-1.34,0-2.52,0H53.93v3.9l-1.68.56-1.69.56v-8.4c0-4.61,0-8.4,0-8.42s.75,0,1.68-.05h1.7v.39c0,.29,0,.38.06.36l.73-.23,1.35-.43c.36-.12.8-.25,1-.29a4.15,4.15,0,0,1,.57-.12l.29,0m-4,6.67v-3l1.2-.4a5.73,5.73,0,0,1,1.46-.4.64.64,0,0,1,.68.36l.1.21v6.22H53.93v-3" fill-rule="evenodd"/>
          <path d="M6.94,37.66V30.33h0l0-.08A1.92,1.92,0,0,0,7,30a3.31,3.31,0,0,1,.21-.55,2.71,2.71,0,0,1,.41-.59,3.25,3.25,0,0,1,.45-.38,4.65,4.65,0,0,1,.5-.25l.3-.11h3.3c3.13,0,3.31,0,3.55.08a4,4,0,0,1,.4.17,3.74,3.74,0,0,1,.39.26,2.6,2.6,0,0,1,.4.41,2.54,2.54,0,0,1,.28.42,2.85,2.85,0,0,1,.17.45c.08.25.09.51.09,4.14v3.86l-.1.31a3.54,3.54,0,0,1-.27.59,3.65,3.65,0,0,1-.46.52,3,3,0,0,1-.49.37,4.89,4.89,0,0,1-.46.19c-.23.08-.43.09-3.48.09s-3.25,0-3.48-.09a4.36,4.36,0,0,1-.51-.22,3.46,3.46,0,0,1-.52-.4,2.87,2.87,0,0,1-.42-.55,3.06,3.06,0,0,1-.23-.5A2.44,2.44,0,0,1,7,37.8l0-.14M10.4,34V30.6H14v6.74H10.4V34" fill-rule="evenodd"/>
          <path d="M34.09,39.91a2,2,0,0,1-1.76-1.72,8.94,8.94,0,0,1,0-1.09v-.8l1.72,0h1.72v1h3v-.63a4.32,4.32,0,0,0,0-.69c0-.12-.24-.2-.93-.39l-1-.29c-2-.56-2.48-.72-2.83-.84a2.64,2.64,0,0,1-1.59-1.2l-.12-.25,0-1.41c0-1.57,0-1.69.28-2.23a3,3,0,0,1,1.09-1.08c.57-.26.5-.26,3.35-.28,1.65,0,2.75,0,3,0a2.38,2.38,0,0,1,2,1.43,3.16,3.16,0,0,1,.11,1.13l0,.86H38.79v-.94h-3.1v1.17l.13.13a2.62,2.62,0,0,0,.82.33c1.85.55,3.42,1,3.73,1.16a3.57,3.57,0,0,1,1.19.78c.62.61.72,1,.68,2.76a4,4,0,0,1-.32,1.93,1.89,1.89,0,0,1-.8.85c-.48.23-.47.23-3.74.26-1.7,0-3.18,0-3.29,0" fill-rule="evenodd"/>
          <path d="M44.5,34V28h3.64V40H44.5V34" fill-rule="evenodd"/>
          <path d="M19.7,34V28h3.42v.47a3.93,3.93,0,0,0,0,.47l.28-.09,1.21-.38,1.15-.37a4.33,4.33,0,0,1,1.52-.25,2.21,2.21,0,0,1,1.28.27A2.89,2.89,0,0,1,29.84,30l.12.45,0,4.72V39.9H26.58l0-4.39c0-4.29,0-4.39-.1-4.57a.65.65,0,0,0-.67-.38,4.76,4.76,0,0,0-1.4.38l-1.2.41c-.07,0-.07.27-.07,4.29V39.9H19.7V34" fill-rule="evenodd"/>
        </g>
        <polygon points="57.37 43.33 56.33 43.33 56.33 42.69 59.17 42.69 59.17 43.33 58.13 43.33 58.13 46.16 57.37 46.16 57.37 43.33 57.37 43.33"/>
        <polygon points="59.33 42.69 60.4 42.69 61.21 45.08 61.22 45.08 61.99 42.69 63.06 42.69 63.06 46.16 62.34 46.16 62.34 43.7 62.34 43.7 61.49 46.16 60.9 46.16 60.05 43.72 60.04 43.72 60.04 46.16 59.33 46.16 59.33 42.69"/>
      </g>
      <g>
        <g>
          <path d="M59,26.38h.63l.19,0,.39.11c.11,0,.28.13.38.18a2.7,2.7,0,0,1,.41.34,3.92,3.92,0,0,1,.39.5,5.11,5.11,0,0,1,.26.53c0,.14.13.44.18.66a3.75,3.75,0,0,1,.08.68.9.9,0,0,0,0,.29h0l0,0a.35.35,0,0,0,0,.15c0,.06,0,1.52,0,3.23v3.11h0a.41.41,0,0,0,0,.17,1.77,1.77,0,0,1-.06.37c0,.11-.12.32-.19.47a2.37,2.37,0,0,1-.45.59,3.54,3.54,0,0,1-.51.42l-.41.19a4,4,0,0,1-.58.13c-.21,0-1.35,0-2.53,0H55v3.9l-1.69.56-1.68.56v-8.4c0-4.61,0-8.41,0-8.42a16.49,16.49,0,0,1,1.69-.05H55v.38c0,.29,0,.38.05.37l.73-.23,1.35-.43c.37-.12.8-.26,1-.3s.42-.09.58-.11l.28,0M55,33l0-3,1.19-.4a5.21,5.21,0,0,1,1.47-.4.61.61,0,0,1,.67.36l.1.2V36H55V33" fill="#fff" fill-rule="evenodd"/>
          <path d="M8.05,36.35V29h0l0-.08a1.68,1.68,0,0,0,.07-.3,2.5,2.5,0,0,1,.2-.55,2.44,2.44,0,0,1,.42-.59,3.53,3.53,0,0,1,.45-.39c.1-.06.33-.17.49-.24l.3-.12h3.3c3.13,0,3.31,0,3.55.09a2.31,2.31,0,0,1,.41.17c.08.05.25.16.38.26a2.65,2.65,0,0,1,.41.41,3.2,3.2,0,0,1,.27.42,4.2,4.2,0,0,1,.18.45,26.25,26.25,0,0,1,.08,4.13v3.87l-.1.31a3.1,3.1,0,0,1-.27.58,3.17,3.17,0,0,1-.46.53,2.24,2.24,0,0,1-.49.36l-.45.2a19.09,19.09,0,0,1-3.48.08,19.17,19.17,0,0,1-3.49-.08,5.44,5.44,0,0,1-.5-.22,3,3,0,0,1-.53-.41,2.83,2.83,0,0,1-.42-.54,3.06,3.06,0,0,1-.23-.5,2.44,2.44,0,0,1-.09-.37l0-.15m3.46-3.68V29.3h3.63V36H11.51V32.67" fill="#fff" fill-rule="evenodd"/>
          <path d="M35.19,38.6a2,2,0,0,1-1.76-1.71c0-.17,0-.66,0-1.09V35l1.72,0h1.72v1H39.9v-.63a6.61,6.61,0,0,0,0-.7c0-.11-.25-.19-.94-.39l-1-.28c-1.95-.57-2.48-.72-2.83-.84A2.59,2.59,0,0,1,33.53,32l-.12-.25,0-1.42c0-1.56,0-1.68.27-2.22A3.16,3.16,0,0,1,34.75,27c.57-.26.5-.25,3.35-.27,1.66,0,2.75,0,3,0a2.37,2.37,0,0,1,2,1.43,2.89,2.89,0,0,1,.11,1.12l0,.87H39.9v-.94H36.8v1.17l.13.12a2.39,2.39,0,0,0,.81.33c1.86.56,3.42,1.05,3.73,1.17a3.6,3.6,0,0,1,1.19.77c.62.61.72,1,.68,2.77A4,4,0,0,1,43,37.52a2,2,0,0,1-.81.85c-.48.23-.46.23-3.74.25-1.7,0-3.17,0-3.29,0" fill="#fff" fill-rule="evenodd"/>
          <path d="M45.6,32.69V26.74h3.64V38.65H45.6v-6" fill="#fff" fill-rule="evenodd"/>
          <path d="M20.8,32.65V26.7h3.42v.47a4.05,4.05,0,0,0,0,.47l.28-.09,1.21-.38,1.15-.37a4.36,4.36,0,0,1,1.53-.26,2.33,2.33,0,0,1,1.28.28,2.92,2.92,0,0,1,1.26,1.88l.12.44,0,4.73V38.6H27.68l0-4.39c0-4.29,0-4.4-.09-4.57a.67.67,0,0,0-.68-.38,4.93,4.93,0,0,0-1.4.37L24.3,30c-.08,0-.08.28-.08,4.3V38.6H20.8v-6" fill="#fff" fill-rule="evenodd"/>
        </g>
        <polygon points="58.47 42.03 57.44 42.03 57.44 41.39 60.27 41.39 60.27 42.03 59.23 42.03 59.23 44.86 58.47 44.86 58.47 42.03 58.47 42.03" fill="#fff"/>
        <polygon points="60.44 41.39 61.51 41.39 62.31 43.77 62.32 43.77 63.09 41.39 64.16 41.39 64.16 44.86 63.45 44.86 63.45 42.4 63.44 42.4 62.59 44.86 62 44.86 61.16 42.42 61.15 42.42 61.15 44.86 60.44 44.86 60.44 41.39" fill="#fff"/>
      </g>
    </g>
  </g>
</svg>
