<?xml version="1.0" encoding="UTF-8"?><svg id="b" xmlns="http://www.w3.org/2000/svg" viewBox="0 0 280 280"><g id="bi"><path d="m89.9387,244.4739l96.1653-97.4782c7.39-7.4909,17.1735-12.1524,27.6467-13.1725l36.9527-3.5993c2.2187-.2161,4.1404,1.5275,4.1404,3.7567v10.1748c0,14.769-10.5293,27.4391-25.0488,30.1418l-14.9179,2.7769c-6.1741,1.1493-12.0069,3.6846-17.0591,7.415l-100.1279,73.9319c-1.6277,1.2019-3.9522.5407-4.7037-1.338l-3.7168-9.292c-.4562-1.1404-.1935-2.4428.6692-3.3171Z" style="fill:#c1dbf6;"/><path d="m92.9863,257.083l-3.7168-9.292c-.305-.7622-.2819-1.5947.0202-2.3252l-68.6093-39.2856c-.9583,1.5688-1.5798,3.8267-.9991,5.9194.6725,2.4238,4.7442,7.3955,4.7442,7.3955l68.8293,39.5146c.5432.312,1.184.4072,1.7943.2666l1.2555-.2891c-1.3548.1973-2.7643-.519-3.3184-1.9043Z" style="fill:#fbdbd0;"/><path d="m96.5721,258.9253l.2479-.0571-.0071-.0127c-.0799.0259-.1599.0508-.2408.0698Z" style="fill:#c1dbf6;"/><path d="m89.9387,244.4741l96.1653-97.4785c7.3901-7.4907,17.1735-12.1523,27.6467-13.1724l36.9527-3.5991c1.0023-.0977,1.9326.2192,2.6639.7852l1.4765-.6978-72.2511-41.2793-35.4459,3.4526c-10.7139,1.0435-20.7224,5.812-28.2824,13.4751L23.4373,202.69c-2.8489,2.2935-3.7559,6.0142-3.7559,6.0142l69.6038,36.772c.1498-.3667.3648-.7095.6535-1.002Z" style="fill:#fff;"/><polygon points="101.7278 134.3789 126.6511 109.8208 181.8206 140 156.9835 164.7974 101.7278 134.3789" style="fill:#374874;"/><path d="m246.5647,76.6115s9.4884,5.5814,6.9767,17.0232l-29.0232-17.0232s11.7209-6.9767,22.0465,0Z" style="fill:#fbdbd0;"/><path d="m201.0764,124.0533l35.6046-6.4186-31.3255-19.3422s-10.7907,18.1329-4.2791,25.7608Z" style="fill:#fbdbd0;"/><polygon points="152.0997 100.1095 201.5182 127.03 206.0996 124.1581 157.7591 97.2925 152.0997 100.1095" style="fill:#374874;"/><path d="m201.0764,124.0533s-1.1163-20.093,17.8604-39.0697c14.7907-14.2325,27.6279-8.3721,27.6279-8.3721l-45.5006-25.9534s-11.9036-6.9518-31.5225,17.3023c-9.2657,13.6586-11.4418,32.093-11.4418,32.093l42.9767,24Z" style="fill:#fff;"/><path d="m91.5894,163.2681l6.6108-6.8813v-3.2173l-1.7666,1.6587-5.2118,5.9851c-.3931.3802-.984.4695-1.4719.2224l-9.053-5.5871v3.3488l9.4496,4.6744c.4766.2383,1.051.1572,1.443-.2037Z" style="fill:#c1dbf6;"/><path d="m106.101,171.1763l6.6108-6.8813v-3.2173l-1.7666,1.6587-5.2118,5.9851c-.3931.3802-.984.4695-1.4719.2224l-9.053-5.5871v3.3488l9.4496,4.6744c.4766.2383,1.051.1572,1.443-.2037Z" style="fill:#c1dbf6;"/><path d="m121.2405,179.0844l6.6108-6.8813v-3.2173l-1.7666,1.6587-5.2118,5.9851c-.3931.3802-.984.4695-1.4719.2224l-9.053-5.5871v3.3488l9.4496,4.6744c.4766.2383,1.051.1572,1.443-.2037Z" style="fill:#c1dbf6;"/><path d="m136.38,186.9925l6.6108-6.8813v-3.2173l-1.7666,1.6587-5.2118,5.9851c-.3931.3802-.984.4695-1.4719.2224l-9.053-5.5871v3.3488l9.4496,4.6744c.4766.2383,1.051.1572,1.443-.2037Z" style="fill:#c1dbf6;"/><path d="m105.9258,145l-3.4408,3.9512c-.3931.3799-.984.4692-1.4719.2222l-9.053-5.5869v3.3486l9.4495,4.6743c.4766.2383,1.051.1572,1.443-.2036l2.8987-3.1082.1745-3.2976Z" style="fill:#c1dbf6;"/><path d="m120.5764,152.7481l-3.5798,4.1113c-.3931.3799-.984.4692-1.4719.2222l-9.053-5.5869v3.3486l9.4495,4.6743c.4766.2383,1.051.1572,1.443-.2036l3.4362-3.6514-.224-2.9145Z" style="fill:#c1dbf6;"/><path d="m135.6569,160.7241l-3.5208,4.0435c-.3931.3799-.984.4692-1.4719.2222l-9.053-5.5874v3.3491l9.4496,4.6743c.4766.2383,1.051.1572,1.443-.2036l3.1668-3.3796-.0136-3.1184Z" style="fill:#c1dbf6;"/><path d="m150.7374,168.7002l-3.4617,3.9751c-.3931.3804-.9841.4697-1.4719.2227l-9.053-5.5874v3.3491l9.4495,4.6743c.4767.2383,1.051.1572,1.4431-.2036l2.9684-3.1789.1257-3.2512Z" style="fill:#c1dbf6;"/><path d="m79.5894,175.1303l6.6108-6.8813v-3.2173l-1.7666,1.6587-5.2118,5.9851c-.3931.3802-.984.4695-1.4719.2224l-9.053-5.5871v3.3488l9.4496,4.6744c.4766.2383,1.051.1572,1.443-.2037Z" style="fill:#c1dbf6;"/><path d="m94.101,183.0385l6.6108-6.8813v-3.2173l-1.7666,1.6587-5.2118,5.9851c-.3931.3802-.984.4695-1.4719.2224l-9.053-5.5871v3.3488l9.4496,4.6744c.4766.2383,1.051.1572,1.443-.2037Z" style="fill:#c1dbf6;"/><path d="m109.2405,190.9466l6.6108-6.8813v-3.2173l-1.7666,1.6587-5.2118,5.9851c-.3931.3802-.984.4695-1.4719.2224l-9.053-5.5871v3.3488l9.4496,4.6744c.4766.2383,1.051.1572,1.443-.2037Z" style="fill:#c1dbf6;"/><path d="m124.38,198.8547l6.6108-6.8813v-3.2173l-1.7666,1.6587-5.2118,5.9851c-.3931.3802-.984.4695-1.4719.2224l-9.053-5.5871v3.3488l9.4496,4.6744c.4766.2383,1.051.1572,1.443-.2037Z" style="fill:#c1dbf6;"/><path d="m67.5894,186.9925l6.6108-6.8813v-3.2173l-1.7666,1.6587-5.2118,5.9851c-.3931.3802-.984.4695-1.4719.2224l-9.053-5.5871v3.3488l9.4496,4.6744c.4766.2383,1.051.1572,1.443-.2037Z" style="fill:#c1dbf6;"/><path d="m82.101,194.9006l6.6108-6.8813v-3.2173l-1.7666,1.6587-5.2118,5.9851c-.3931.3802-.984.4695-1.4719.2224l-9.053-5.5871v3.3488l9.4496,4.6744c.4766.2383,1.051.1572,1.443-.2037Z" style="fill:#c1dbf6;"/><path d="m97.2405,202.8088l6.6108-6.8813v-3.2173l-1.7666,1.6587-5.2118,5.9851c-.3931.3802-.984.4695-1.4719.2224l-9.053-5.5871v3.3488l9.4496,4.6744c.4766.2383,1.051.1572,1.443-.2037Z" style="fill:#c1dbf6;"/><path d="m112.38,210.7169l6.6108-6.8813v-3.2173l-1.7666,1.6587-5.2118,5.9851c-.3931.3802-.984.4695-1.4719.2224l-9.053-5.5871v3.3488l9.4496,4.6744c.4766.2383,1.051.1572,1.443-.2037Z" style="fill:#c1dbf6;"/><path d="m55.5895,198.8547l6.6108-6.8813v-3.2173l-1.7666,1.6587-5.2118,5.9851c-.3931.3802-.984.4695-1.4719.2224l-9.053-5.5871v3.3488l9.4496,4.6744c.4766.2383,1.051.1572,1.443-.2037Z" style="fill:#c1dbf6;"/><path d="m70.1011,206.7628l6.6108-6.8813v-3.2173l-1.7666,1.6587-5.2118,5.9851c-.3931.3802-.984.4695-1.4719.2224l-9.053-5.5871v3.3488l9.4496,4.6744c.4766.2383,1.051.1572,1.443-.2037Z" style="fill:#c1dbf6;"/><path d="m85.2406,214.671l6.6108-6.8813v-3.2173l-1.7666,1.6587-5.2118,5.9851c-.3931.3802-.984.4695-1.4719.2224l-9.053-5.5871v3.3488l9.4496,4.6744c.4766.2383,1.051.1572,1.443-.2037Z" style="fill:#c1dbf6;"/><path d="m100.3801,222.5791l6.6108-6.8813v-3.2173l-1.7666,1.6587-5.2118,5.9851c-.3931.3802-.984.4695-1.4719.2224l-9.053-5.5871v3.3488l9.4496,4.6744c.4766.2383,1.051.1572,1.443-.2037Z" style="fill:#c1dbf6;"/><path d="m43.5895,210.7169l6.6108-6.8813v-3.2173l-1.7666,1.6587-5.2118,5.9851c-.3931.3802-.984.4695-1.4719.2224l-9.053-5.5871v3.3488l9.4496,4.6744c.4766.2383,1.051.1572,1.443-.2037Z" style="fill:#c1dbf6;"/><path d="m58.1011,218.625l6.6108-6.8813v-3.2173l-1.7666,1.6587-5.2118,5.9851c-.3931.3802-.984.4695-1.4719.2224l-9.053-5.5871v3.3488l9.4496,4.6744c.4766.2383,1.051.1572,1.443-.2037Z" style="fill:#c1dbf6;"/><path d="m73.2406,226.5332l6.6108-6.8813v-3.2173l-1.7666,1.6587-5.2118,5.9851c-.3931.3802-.984.4695-1.4719.2224l-9.053-5.5871v3.3488l9.4496,4.6744c.4766.2383,1.051.1572,1.443-.2037Z" style="fill:#c1dbf6;"/><path d="m88.3801,234.4413l6.6108-6.8813v-3.2173l-1.7666,1.6587-5.2118,5.9851c-.3931.3802-.984.4695-1.4719.2224l-9.053-5.5871v3.3488l9.4496,4.6744c.4766.2383,1.051.1572,1.443-.2037Z" style="fill:#c1dbf6;"/><path d="m81.0729,154.7547l6.5877-6.5877c.3991-.3991,1.0122-.4906,1.5105-.2253l8.3488,4.4455c.7688.4094.9151,1.4495.289,2.055l-6.5871,6.3712c-.3931.3802-.984.4695-1.4719.2224l-8.3494-4.2289c-.7789-.3945-.9449-1.4348-.3276-2.0521Z" style="fill:#fff;"/><path d="m95.5845,162.6628l6.5877-6.5877c.3991-.3991,1.0122-.4906,1.5105-.2253l8.3488,4.4455c.7688.4094.9151,1.4495.289,2.055l-6.5871,6.3712c-.3931.3802-.984.4695-1.4719.2224l-8.3494-4.2289c-.7789-.3945-.9449-1.4348-.3276-2.0521Z" style="fill:#fff;"/><path d="m110.724,170.5709l6.5877-6.5877c.3991-.3991,1.0122-.4906,1.5105-.2253l8.3488,4.4455c.7688.4094.9151,1.4495.289,2.055l-6.5871,6.3712c-.3931.3802-.984.4695-1.4719.2224l-8.3494-4.2289c-.7789-.3945-.9449-1.4348-.3276-2.0521Z" style="fill:#fff;"/><path d="m125.8635,178.479l6.5877-6.5877c.3991-.3991,1.0122-.4906,1.5105-.2253l8.3488,4.4455c.7688.4094.9151,1.4495.289,2.055l-6.5871,6.3712c-.3931.3802-.984.4695-1.4719.2224l-8.3494-4.2289c-.7789-.3945-.9449-1.4348-.3276-2.0521Z" style="fill:#fff;"/><path d="m95.0035,140.2252l-2.6673,2.6673c-.6173.6173-.4512,1.6574.3275,2.0518l8.3497,4.2292c.4878.2471,1.0786.1578,1.4716-.2223l3.2708-3.1635c.2894-.2799.2211-.7608-.1348-.949l-9.1428-4.8355c-.4871-.2576-1.0851-.1675-1.4747.2221Z" style="fill:#fff;"/><path d="m109.6676,147.9807l-2.8198,2.8201c-.6172.6173-.4512,1.6574.3276,2.0518l8.3494,4.229c.488.2472,1.079.1579,1.4722-.2224l3.4263-3.3142c.2894-.2799.2211-.7608-.1348-.949l-9.1461-4.8374c-.4871-.2576-1.0852-.1675-1.4748.2221Z" style="fill:#fff;"/><path d="m124.7558,155.9402l-2.7685,2.7683c-.6174.6174-.4514,1.6578.3275,2.0523l8.3498,4.2292c.4878.2471,1.0786.1578,1.4716-.2223l3.3273-3.2184c.3057-.2957.2335-.8038-.1425-1.0026l-9.1209-4.8239c-.477-.2523-1.0627-.1641-1.4443.2175Z" style="fill:#fff;"/><path d="m139.8306,163.9129l-2.7038,2.7038c-.6174.6174-.4513,1.6577.3276,2.0522l8.349,4.2288c.488.2472,1.0791.1579,1.4724-.2224l3.2323-3.1261c.3199-.3094.2444-.8411-.149-1.0492l-9.084-4.8046c-.477-.2523-1.0628-.1641-1.4444.2175Z" style="fill:#fff;"/><path d="m69.0729,166.6169l6.5877-6.5877c.3991-.3991,1.0122-.4906,1.5105-.2253l8.3488,4.4455c.7688.4094.9151,1.4495.289,2.055l-6.5871,6.3712c-.3931.3802-.984.4695-1.4719.2224l-8.3494-4.2289c-.7789-.3945-.9449-1.4348-.3276-2.0521Z" style="fill:#fff;"/><path d="m83.5845,174.525l6.5877-6.5877c.3991-.3991,1.0122-.4906,1.5105-.2253l8.3488,4.4455c.7688.4094.9151,1.4495.289,2.055l-6.5871,6.3712c-.3931.3802-.984.4695-1.4719.2224l-8.3494-4.2289c-.7789-.3945-.9449-1.4348-.3276-2.0521Z" style="fill:#fff;"/><path d="m98.724,182.4331l6.5877-6.5877c.3991-.3991,1.0122-.4906,1.5105-.2253l8.3488,4.4455c.7688.4094.9151,1.4495.289,2.055l-6.5871,6.3712c-.3931.3802-.984.4695-1.4719.2224l-8.3494-4.2289c-.7789-.3945-.9449-1.4348-.3276-2.0521Z" style="fill:#fff;"/><path d="m113.8635,190.3412l6.5877-6.5877c.3991-.3991,1.0122-.4906,1.5105-.2253l8.3488,4.4455c.7688.4094.9151,1.4495.289,2.055l-6.5871,6.3712c-.3931.3802-.984.4695-1.4719.2224l-8.3494-4.2289c-.7789-.3945-.9449-1.4348-.3276-2.0521Z" style="fill:#fff;"/><path d="m57.0729,178.479l6.5877-6.5877c.3991-.3991,1.0122-.4906,1.5105-.2253l8.3488,4.4455c.7688.4094.9151,1.4495.289,2.055l-6.5871,6.3712c-.3931.3802-.984.4695-1.4719.2224l-8.3494-4.2289c-.7789-.3945-.9449-1.4348-.3276-2.0521Z" style="fill:#fff;"/><path d="m71.5845,186.3872l6.5877-6.5877c.3991-.3991,1.0122-.4906,1.5105-.2253l8.3488,4.4455c.7688.4094.9151,1.4495.289,2.055l-6.5871,6.3712c-.3931.3802-.984.4695-1.4719.2224l-8.3494-4.2289c-.7789-.3945-.9449-1.4348-.3276-2.0521Z" style="fill:#fff;"/><path d="m86.724,194.2953l6.5877-6.5877c.3991-.3991,1.0122-.4906,1.5105-.2253l8.3488,4.4455c.7688.4094.9151,1.4495.289,2.055l-6.5871,6.3712c-.3931.3802-.984.4695-1.4719.2224l-8.3494-4.2289c-.7789-.3945-.9449-1.4348-.3276-2.0521Z" style="fill:#fff;"/><path d="m101.8635,202.2034l6.5877-6.5877c.3991-.3991,1.0122-.4906,1.5105-.2253l8.3488,4.4455c.7688.4094.9151,1.4495.289,2.055l-6.5871,6.3712c-.3931.3802-.984.4695-1.4719.2224l-8.3494-4.2289c-.7789-.3945-.9449-1.4348-.3276-2.0521Z" style="fill:#fff;"/><path d="m45.073,190.3412l6.5877-6.5877c.3991-.3991,1.0122-.4906,1.5105-.2253l8.3488,4.4455c.7688.4094.9151,1.4495.289,2.055l-6.5871,6.3712c-.3931.3802-.984.4695-1.4719.2224l-8.3494-4.2289c-.7789-.3945-.9449-1.4348-.3276-2.0521Z" style="fill:#fff;"/><path d="m59.5846,198.2494l6.5877-6.5877c.3991-.3991,1.0122-.4906,1.5105-.2253l8.3488,4.4455c.7688.4094.9151,1.4495.289,2.055l-6.5871,6.3712c-.3931.3802-.984.4695-1.4719.2224l-8.3494-4.2289c-.7789-.3945-.9449-1.4348-.3276-2.0521Z" style="fill:#fff;"/><path d="m74.7241,206.1575l6.5877-6.5877c.3991-.3991,1.0122-.4906,1.5105-.2253l8.3488,4.4455c.7688.4094.9151,1.4495.289,2.055l-6.5871,6.3712c-.3931.3802-.984.4695-1.4719.2224l-8.3494-4.2289c-.7789-.3945-.9449-1.4348-.3276-2.0521Z" style="fill:#fff;"/><path d="m89.8636,214.0656l6.5877-6.5877c.3991-.3991,1.0122-.4906,1.5105-.2253l8.3488,4.4455c.7688.4094.9151,1.4495.289,2.055l-6.5871,6.3712c-.3931.3802-.984.4695-1.4719.2224l-8.3494-4.2289c-.7789-.3945-.9449-1.4348-.3276-2.0521Z" style="fill:#fff;"/><path d="m33.073,202.2034l6.5877-6.5877c.3991-.3991,1.0122-.4906,1.5105-.2253l8.3488,4.4455c.7688.4094.9151,1.4495.289,2.055l-6.5871,6.3712c-.3931.3802-.984.4695-1.4719.2224l-8.3494-4.2289c-.7789-.3945-.9449-1.4348-.3276-2.0521Z" style="fill:#fff;"/><path d="m47.5846,210.1116l6.5877-6.5877c.3991-.3991,1.0122-.4906,1.5105-.2253l8.3488,4.4455c.7688.4094.9151,1.4495.289,2.055l-6.5871,6.3712c-.3931.3802-.984.4695-1.4719.2224l-8.3494-4.2289c-.7789-.3945-.9449-1.4348-.3276-2.0521Z" style="fill:#fff;"/><path d="m62.7241,218.0197l6.5877-6.5877c.3991-.3991,1.0122-.4906,1.5105-.2253l8.3488,4.4455c.7688.4094.9151,1.4495.289,2.055l-6.5871,6.3712c-.3931.3802-.984.4695-1.4719.2224l-8.3494-4.2289c-.7789-.3945-.9449-1.4348-.3276-2.0521Z" style="fill:#fff;"/><path d="m77.8636,225.9278l6.5877-6.5877c.3991-.3991,1.0122-.4906,1.5105-.2253l8.3488,4.4455c.7688.4094.9151,1.4495.289,2.055l-6.5871,6.3712c-.3931.3802-.984.4695-1.4719.2224l-8.3494-4.2289c-.7789-.3945-.9449-1.4348-.3276-2.0521Z" style="fill:#fff;"/><path d="m196.5252,49.7354c2.9583,0,4.5388.9229,4.5388.9229l43.171,24.6245c.7807.374,1.5592.8081,2.3297,1.3286,0,0,9.4884,5.5815,6.9767,17.0234l-25.7804-15.1211c-2.7948,1.4541-5.7663,3.5273-8.8241,6.4697-5.9795,5.9795-9.9611,12.0688-12.6143,17.6064l47.0436,28.4189c.8881.687,1.4776,1.749,1.4776,2.9717v10.1748c0,14.769-10.5293,27.4395-25.0489,30.1421l-14.9179,2.7769c-6.1741,1.1494-12.0069,3.6846-17.0591,7.415l-100.1279,73.9316c-.2846.2104-.5927.3472-.9082.4438l-.1046.0303c-.0029.001-.0059.0015-.0088.0024.0017-.0005.0034-.001.0051-.0015l-.0989.0288c-.125.0303-.2504.0522-.3761.0684.0354-.0039.0708-.001.1062-.0059l-1.2555.2891c-.1842.0425-.3711.0635-.5574.0635-.4308,0-.8577-.1123-1.2369-.3301l-68.8293-39.5146s-4.0717-4.9717-4.7442-7.3955c-.5807-2.0928.0407-4.3501.9988-5.9189.5898-1.1406,1.4757-2.459,2.7572-3.4907l95.427-96.73c7.56-7.6631,17.5685-12.4316,28.2824-13.4751l12.6537-1.2324c1.609-6.563,4.5703-15.6699,9.741-23.292,12.4701-15.4165,21.8232-18.2251,26.9836-18.2251m56.8405,81.2729s.0003,0,.0004.0005c-.0001-.0005-.0003-.0005-.0004-.0005m.0004.0005s.0008,0,.0011.0005l-.0011-.0005s0,0,0,0m-156.5532,127.8467c-.0359.0117-.0719.0215-.1079.0317.0256-.0073.0513-.0146.0768-.0225l.0311-.0093m-.1079.0317c-.0105.0029-.021.0059-.0315.0088l.0037-.001c.0093-.0024.0185-.0054.0278-.0078M196.5253,45.7354h0c-6.4556,0-16.9168,3.4194-30.0936,19.7095l-.1058.1309-.0944.1392c-4.8281,7.1172-7.8195,15.3857-9.5973,21.8271l-9.875.9619c-11.623,1.1318-22.5407,6.3335-30.7422,14.647L20.7355,199.7329c-1.4024,1.1753-2.5938,2.6836-3.5448,4.4888-1.6438,2.7651-2.154,6.0991-1.3637,8.9473.8332,3.0029,4.4234,7.541,5.504,8.8608l.4657.5684.6374.3657,68.8293,39.5146c.9801.5635,2.0968.8613,3.2284.8613.4893,0,.9791-.0557,1.4558-.1655l1.2546-.2891-.0008-.0044c.1065-.0205.2116-.0435.3146-.0684l.0883-.0215.0873-.0254.081-.0234.0118-.0034c.0894-.0249.1774-.0508.2653-.0791v-.0005c.7446-.2388,1.4228-.582,2.0171-1.021l100.1271-73.9312c4.5381-3.3506,9.8686-5.668,15.4152-6.7002l14.9178-2.7769c16.4079-3.0542,28.3169-17.3848,28.3169-34.0747v-10.1748c0-2.4092-1.1043-4.6455-3.0298-6.1353l-.1822-.1411-.1972-.1191-43.8338-26.48c2.6595-4.7324,6.0584-9.1821,10.1369-13.2656,1.9428-1.8662,3.9511-3.4434,5.9913-4.707l23.7887,13.9526,4.75,2.7861,1.1807-5.3789c2.4566-11.1909-4.5807-18.7524-8.7434-21.2617-.8225-.5493-1.6778-1.0381-2.6071-1.4902l-43.0519-24.5566c-.3846-.2246-2.6747-1.4482-6.5206-1.4482h0Zm-100.7645,209.3091l-.0036-.0195h.0014l.0022.0195h0Z" style="fill:#374874;"/><path d="m166.8904,93.0689l25.3953,14.5116" style="fill:none; stroke:#374874; stroke-linecap:round; stroke-linejoin:round; stroke-width:2px;"/><path d="m169.4732,83.5868l15.0972,8.627" style="fill:none; stroke:#374874; stroke-linecap:round; stroke-linejoin:round; stroke-width:2px;"/><path d="m174.3544,72.9603l15.6449,8.94" style="fill:none; stroke:#374874; stroke-linecap:round; stroke-linejoin:round; stroke-width:2px;"/><path d="m194.6622,85.003l6.7491,3.8566" style="fill:none; stroke:#374874; stroke-linecap:round; stroke-linejoin:round; stroke-width:2px;"/><path d="m191.9993,96.3642l6.7491,3.8566" style="fill:none; stroke:#374874; stroke-linecap:round; stroke-linejoin:round; stroke-width:2px;"/></g></svg>