<?xml version="1.0" encoding="UTF-8"?><svg id="b" xmlns="http://www.w3.org/2000/svg" viewBox="0 0 280 280"><g id="bm"><g style="isolation:isolate;"><path d="m28.6014,85.8636L139.2597,21.556c2.5802-1.4995,6.155-1.2862,10.1011.9921L38.7025,86.8556c-3.9461-2.2783-7.5209-2.4915-10.1011-.9921Z" style="fill:#fbdbd0;"/><polygon points="38.7025 86.8556 149.3608 22.5481 189.9231 45.9668 79.2648 110.2743 38.7025 86.8556" style="fill:#fbdbd0;"/><path d="m79.2648,110.2743l110.6583-64.3076c2.7886,1.61,5.5107,4.1251,7.8296,7.2365l-110.6583,64.3076c-2.3188-3.1114-5.041-5.6265-7.8296-7.2365Z" style="fill:#fbdbd0;"/><path d="m79.2648,110.2743c2.7886,1.61,5.5107,4.1251,7.8296,7.2365l53.0236,71.1838c3.9556,5.3049,6.3288,11.7829,6.3133,17.2493l-.1904,38.6183c-.0255,9.0053-6.398,12.6368-14.2353,8.1119l-93.7008-54.0982c-7.8373-4.5248-14.1684-15.4907-14.1429-24.4961l.3052-79.1226c.0255-9.0059,6.398-12.6265,14.2353-8.1017l40.5624,23.4187Z" style="fill:#c1dbf6;"/><path d="m255.2633,132.5622l-110.683,64.2471c1.1934,3.1133,1.8593,6.2627,1.8511,9.1348l-.1904,38.6184c-.0127,4.4737-1.5917,7.6211-4.1386,9.1007l110.6583-64.307c2.5469-1.4803,4.126-4.6277,4.1386-9.1014l.1904-38.6184c.0081-2.8533-.6477-5.9805-1.8263-9.0742Z" style="fill:#fff;"/><polygon points="87.0944 117.511 140.118 188.6948 250.7763 124.3871 197.7527 53.2033 87.0944 117.511" style="fill:#fff;"/><path d="m250.7763,124.3871l-110.6583,64.3077c1.8777,2.5181,3.384,5.3017,4.4623,8.1145l110.683-64.2471c-1.0797-2.8338-2.5959-5.639-4.487-8.1752Z" style="fill:#fff;"/></g><path d="m142.0531,135.9706l-9.5364-20.7355c-8.2415-10.6644-18.4041-19.6939-29.9641-26.6233l-20.5103-6.873,56.4665-30.4845,37.6903,18.0197,27.3318,32.5299-61.4777,34.1667Z" style="fill:#c1dbf6;"/><polygon points="219.1294 104.4998 148.5924 142.9245 142.0531 135.9706 211.0515 97.6242 219.1294 104.4998" style="fill:#374874;"/><path d="m149.223,135.821s1.5933-28.6796-25.4929-55.7658c-21.1113-20.3147-39.4344-11.9498-39.4344-11.9498l64.945-37.0444s16.9905-9.9226,44.9933,24.6963c13.2253,19.4956,16.3314,45.8076,16.3314,45.8076l-61.3424,34.2561Z" style="fill:#fff;"/><path d="m198.018,91.5956l-36.2478,20.713" style="fill:none; stroke:#374874; stroke-linecap:round; stroke-linejoin:round; stroke-width:2px;"/><path d="m194.3316,78.0614l-21.5488,12.3136" style="fill:none; stroke:#374874; stroke-linecap:round; stroke-linejoin:round; stroke-width:2px;"/><path d="m187.3644,62.8938l-22.3307,12.7604" style="fill:none; stroke:#374874; stroke-linecap:round; stroke-linejoin:round; stroke-width:2px;"/><path d="m158.3782,80.0829l-9.6332,5.5047" style="fill:none; stroke:#374874; stroke-linecap:round; stroke-linejoin:round; stroke-width:2px;"/><path d="m162.179,96.2992l-9.6332,5.5047" style="fill:none; stroke:#374874; stroke-linecap:round; stroke-linejoin:round; stroke-width:2px;"/><path d="m142.9876,20.5994c1.9181,0,4.0832.6265,6.3732,1.9487l15.7607,9.0991c3.4799,1.3262,7.4822,3.4897,11.9696,6.9111l12.832,7.4082c2.7887,1.6104,5.5108,4.1255,7.8297,7.2363h0l53.0236,71.1841c1.8911,2.5361,3.4073,5.3413,4.487,8.1753,1.1786,3.0938,1.8345,6.2207,1.8263,9.0742l-.1904,38.6182c-.0126,4.4736-1.5917,7.6211-4.1386,9.1016l-110.6583,64.3071c.1562-.0908.297-.207.4458-.3105-1.1867.8237-2.6109,1.2568-4.2058,1.2568-1.9074,0-4.0587-.6201-6.3366-1.9355l-93.7008-54.0981c-7.8372-4.5244-14.1683-15.4912-14.1428-24.4961l.3052-79.1226c.0127-4.4873,1.6024-7.6353,4.1624-9.1074-.009.0049-.0192.0088-.0282.0137L139.2597,21.5564c1.0828-.6294,2.3407-.957,3.7279-.957m0-4c-2.0965,0-4.0271.5044-5.7382,1.499L26.5916,82.4051l.0011.002c-2.2989,1.3369-6.1033,4.73-6.1255,12.5391l-.3052,79.1182c-.0297,10.4463,7.0612,22.7329,16.1429,27.9761l93.7007,54.0977c2.8404,1.6401,5.6453,2.4717,8.3366,2.4717,2.0817,0,4.0549-.5186,5.7583-1.5078l.0116.02,110.6583-64.3071c2.2796-1.3252,6.1067-4.7173,6.1288-12.5488l.1904-38.6099c.0093-3.2729-.7129-6.9072-2.0884-10.5176-1.2294-3.2271-2.9647-6.3887-5.0183-9.1426l-53.0224-71.1826c-2.6475-3.5518-5.7723-6.4253-9.0372-8.3105l-12.614-7.2822c-4.2173-3.1909-8.4054-5.6094-12.4571-7.1929l-15.4915-8.9434c-2.8556-1.6489-5.6728-2.4849-8.3732-2.4849h0Z" style="fill:#374874;"/><polygon points="179.8942 203.8312 153.5616 218.1047 153.5616 202.9682 179.8942 188.6948 179.8942 203.8312" style="fill:#c1dbf6;"/></g></svg>