<svg width="50" height="50" viewBox="0 0 50 50" xmlns="http://www.w3.org/2000/svg"><path d="M12.21 24.29s6.151-2.599 7.816-4.264 4.263-7.815 4.263-7.815l13.5 13.5s-6.128 2.575-7.816 4.262c-1.688 1.688-4.263 7.816-4.263 7.816l-13.5-13.5Z" fill="var(--o-icons-teal-pure, #00CEB3)"/><path d="M12.21 24.29s6.151-2.599 7.816-4.264 4.263-7.815 4.263-7.815l13.5 13.5s-6.128 2.575-7.816 4.262c-1.688 1.688-4.263 7.816-4.263 7.816l-13.5-13.5Z" fill="url(#o_icon_mrp_maintenance__a)" fill-opacity=".2"/><path fill-rule="evenodd" clip-rule="evenodd" d="M42.763 22.869c4.316-4.317 4.316-11.315 0-15.632-4.317-4.316-11.315-4.316-15.632 0-4.316 4.317-4.316 11.315 0 15.632 4.317 4.316 11.315 4.316 15.632 0Zm-4.264-4.264a5.024 5.024 0 1 0-7.104-7.105 5.024 5.024 0 0 0 7.104 7.105Z" fill="var(--o-icons-teal-teal, #00A079)"/><path fill-rule="evenodd" clip-rule="evenodd" d="M42.763 22.869c4.316-4.317 4.316-11.315 0-15.632-4.317-4.316-11.315-4.316-15.632 0-4.316 4.317-4.316 11.315 0 15.632 4.317 4.316 11.315 4.316 15.632 0Zm-4.264-4.264a5.024 5.024 0 1 0-7.104-7.105 5.024 5.024 0 0 0 7.104 7.105Z" fill="url(#o_icon_mrp_maintenance__b)" fill-opacity=".2"/><path fill-rule="evenodd" clip-rule="evenodd" d="M22.869 42.763c4.316-4.317 4.316-11.315 0-15.632-4.317-4.316-11.315-4.316-15.632 0-4.316 4.317-4.316 11.315 0 15.632 4.317 4.316 11.315 4.316 15.632 0Zm-4.264-4.264a5.024 5.024 0 1 0-7.105-7.105 5.024 5.024 0 0 0 7.105 7.105Z" fill="var(--o-icons-teal-teal, #00A079)"/><path fill-rule="evenodd" clip-rule="evenodd" d="M22.869 42.763c4.316-4.317 4.316-11.315 0-15.632-4.317-4.316-11.315-4.316-15.632 0-4.316 4.317-4.316 11.315 0 15.632 4.317 4.316 11.315 4.316 15.632 0Zm-4.264-4.264a5.024 5.024 0 1 0-7.105-7.105 5.024 5.024 0 0 0 7.105 7.105Z" fill="url(#o_icon_mrp_maintenance__c)" fill-opacity=".2"/><defs><linearGradient id="o_icon_mrp_maintenance__a" x1="12.21" y1="12.211" x2="42.302" y2="19.734" gradientUnits="userSpaceOnUse"><stop stop-color="#fff"/><stop offset="1" stop-color="#fff" stop-opacity="0"/></linearGradient><linearGradient id="o_icon_mrp_maintenance__b" x1="23.894" y1="4" x2="49.901" y2="10.502" gradientUnits="userSpaceOnUse"><stop stop-color="#fff"/><stop offset="1" stop-color="#fff" stop-opacity="0"/></linearGradient><linearGradient id="o_icon_mrp_maintenance__c" x1="4" y1="23.894" x2="30.007" y2="30.396" gradientUnits="userSpaceOnUse"><stop stop-color="#fff"/><stop offset="1" stop-color="#fff" stop-opacity="0"/></linearGradient></defs></svg>
