<svg width="50" height="50" viewBox="0 0 50 50" xmlns="http://www.w3.org/2000/svg"><path d="M16 38c3 0 6-1 6-5s-2.306-6-6-6a3 3 0 0 1 3-3h4c3.593 1.3 6 4 6 9 0 8-6 11-13 11S4 41 4 33h7c0 3 2 5 5 5Z" fill="var(--o-icons-purple-pure, #93407D)"/><path d="M16 38c3 0 6-1 6-5s-2.306-6-6-6a3 3 0 0 1 3-3h4c3.593 1.3 6 4 6 9 0 8-6 11-13 11S4 41 4 33h7c0 3 2 5 5 5Z" fill="url(#o_icon_appointment__a)" fill-opacity=".2"/><path d="M23 24h-5a2 2 0 0 1-2-2c4 0 5-3 5-5 0-3-1.964-5-5-5-3 0-5 2-5 4H4C4 9.616 10 6 16 6s12 4 12 10-5 8-5 8Z" fill="var(--o-icons-teal-pure, #00CEB3)"/><path d="M23 24h-5a2 2 0 0 1-2-2c4 0 5-3 5-5 0-3-1.964-5-5-5-3 0-5 2-5 4H4C4 9.616 10 6 16 6s12 4 12 10-5 8-5 8Z" fill="url(#o_icon_appointment__b)" fill-opacity=".2"/><path d="m23 24-7 3h-4v-2c0-2 1-3 4-3l7 2Z" fill="var(--o-icons-purple-teal, #003458)"/><path d="m23 24-7 3h-4v-2c0-2 1-3 4-3l7 2Z" fill="url(#o_icon_appointment__c)" fill-opacity=".3"/><path d="M39 7.333 32 12l-1 6 8-4V7.333Z" fill="var(--o-icons-purple-pure, #93407D)"/><path d="M39 7.333 32 12l-1 6 8-4V7.333Z" fill="url(#o_icon_appointment__d)" fill-opacity=".2"/><path d="M39 7.333 41 6h1c2 0 4 2 4 4v1l-7 3V7.333Z" fill="var(--o-icons-purple-teal, #003458)"/><path d="M39 7.333 41 6h1c2 0 4 2 4 4v1l-7 3V7.333Z" fill="url(#o_icon_appointment__e)" fill-opacity=".3"/><path d="M46 37V11l-7 3v23h7Z" fill="var(--o-icons-teal-pure, #00CEB3)"/><path d="M46 37V11l-7 3v23h7Z" fill="url(#o_icon_appointment__f)" fill-opacity=".2"/><path d="M50 34.5a9.5 9.5 0 1 1-19 0 9.5 9.5 0 0 1 19 0Z" fill="var(--o-icons-purple-teal, #003458)"/><path d="M50 34.5a9.5 9.5 0 1 1-19 0 9.5 9.5 0 0 1 19 0Z" fill="url(#o_icon_appointment__g)" fill-opacity=".3"/><path d="m45.625 30.813-1.038-1.063-5.11 5.234-3.065-3.141-1.038 1.063a1.483 1.483 0 0 0 0 2.06l4.102 4.205 6.149-6.298a1.482 1.482 0 0 0 0-2.06Z" fill="var(--o-icons-white, #FFFFFF)"/><defs><linearGradient id="o_icon_appointment__a" x1="4" y1="24" x2="32.47" y2="32.897" gradientUnits="userSpaceOnUse"><stop stop-color="#fff"/><stop offset="1" stop-color="#fff" stop-opacity="0"/></linearGradient><linearGradient id="o_icon_appointment__b" x1="4" y1="6" x2="31" y2="15" gradientUnits="userSpaceOnUse"><stop stop-color="#fff"/><stop offset="1" stop-color="#fff" stop-opacity="0"/></linearGradient><linearGradient id="o_icon_appointment__c" x1="12" y1="22" x2="22.557" y2="27.806" gradientUnits="userSpaceOnUse"><stop stop-color="#fff"/><stop offset="1" stop-color="#fff" stop-opacity="0"/></linearGradient><linearGradient id="o_icon_appointment__d" x1="31" y1="7.333" x2="40.66" y2="9.144" gradientUnits="userSpaceOnUse"><stop stop-color="#fff"/><stop offset="1" stop-color="#fff" stop-opacity="0"/></linearGradient><linearGradient id="o_icon_appointment__e" x1="39" y1="6" x2="47.35" y2="7.827" gradientUnits="userSpaceOnUse"><stop stop-color="#fff"/><stop offset="1" stop-color="#fff" stop-opacity="0"/></linearGradient><linearGradient id="o_icon_appointment__f" x1="39" y1="11" x2="47.711" y2="11.586" gradientUnits="userSpaceOnUse"><stop stop-color="#fff"/><stop offset="1" stop-color="#fff" stop-opacity="0"/></linearGradient><linearGradient id="o_icon_appointment__g" x1="31" y1="25" x2="53.353" y2="30.588" gradientUnits="userSpaceOnUse"><stop stop-color="#fff"/><stop offset="1" stop-color="#fff" stop-opacity="0"/></linearGradient></defs></svg>
