<svg width="50" height="50" viewBox="0 0 50 50" xmlns="http://www.w3.org/2000/svg"><path d="M28 16c0 5.523-4.477 10-10 10S8 21.523 8 16 12.477 6 18 6s10 4.477 10 10Z" fill="var(--o-icons-teal-pure, #00CEB3)"/><path d="M28 16c0 5.523-4.477 10-10 10S8 21.523 8 16 12.477 6 18 6s10 4.477 10 10Z" fill="url(#o_icon_approvals__a)" fill-opacity=".2"/><path d="M43 24a5 5 0 1 1-10 0 5 5 0 0 1 10 0Z" fill="var(--o-icons-purple-teal, #003458)"/><path d="M43 24a5 5 0 1 1-10 0 5 5 0 0 1 10 0Z" fill="url(#o_icon_approvals__b)" fill-opacity=".3"/><path d="M16 31h26a4 4 0 0 1 4 4v5a4 4 0 0 1-4 4H16V31Z" fill="var(--o-icons-purple-teal, #003458)"/><path d="M16 31h26a4 4 0 0 1 4 4v5a4 4 0 0 1-4 4H16V31Z" fill="url(#o_icon_approvals__c)" fill-opacity=".3"/><path d="M4 31h16c7.18 0 13 5.82 13 13H17C9.82 44 4 38.18 4 31Z" fill="var(--o-icons-teal-pure, #00CEB3)"/><path d="M4 31h16c7.18 0 13 5.82 13 13H17C9.82 44 4 38.18 4 31Z" fill="url(#o_icon_approvals__d)" fill-opacity=".2"/><path d="M23.549 12.128 22.425 11l-5.532 5.556-3.319-3.335-1.123 1.129a1.552 1.552 0 0 0 0 2.188L16.892 21l6.657-6.685a1.55 1.55 0 0 0 0-2.187Z" fill="var(--o-icons-white, #FFFFFF)"/><defs><linearGradient id="o_icon_approvals__a" x1="8" y1="6" x2="31.529" y2="11.882" gradientUnits="userSpaceOnUse"><stop stop-color="#fff"/><stop offset="1" stop-color="#fff" stop-opacity="0"/></linearGradient><linearGradient id="o_icon_approvals__b" x1="33" y1="19" x2="44.765" y2="21.941" gradientUnits="userSpaceOnUse"><stop stop-color="#fff"/><stop offset="1" stop-color="#fff" stop-opacity="0"/></linearGradient><linearGradient id="o_icon_approvals__c" x1="16" y1="31" x2="44.135" y2="47.232" gradientUnits="userSpaceOnUse"><stop stop-color="#fff"/><stop offset="1" stop-color="#fff" stop-opacity="0"/></linearGradient><linearGradient id="o_icon_approvals__d" x1="4" y1="31" x2="31.65" y2="46.42" gradientUnits="userSpaceOnUse"><stop stop-color="#fff"/><stop offset="1" stop-color="#fff" stop-opacity="0"/></linearGradient></defs></svg>
