<svg xmlns="http://www.w3.org/2000/svg" width="70" height="70" viewBox="0 0 70 70"><defs><clipPath id="a"><path d="M65,0 C69,0 70,1 70,5 L70,65 C70,69 69,70 65,70 L4,70 C1,70 0,69 0,65 L0,5 C0,1 1,0 4,0 L65,0 Z"/></clipPath><clipPath id="b"><path d="M70,0 L70,70 L0,70 L0,0 L70,0 Z"/></clipPath><clipPath id="d"><path d="M70,0 L70,3 C69.3333333,1.66666667 67.6666667,1 65,1 L4,1 C2,1 0.66,1.68 0,3 L0,0 L70,0 Z"/></clipPath><clipPath id="e"><path d="M70,0 L70,4 L0,4 L0,0 C0.439749048,1.8309157 2.11919123,3.0904973 4,3 L65,3 C67.6666667,3 69.3333333,2 70,0 Z"/></clipPath><clipPath id="f"><path d="M20,0 L54,31 L31.13,52.5 L4,52.5 L3.86668861,52.4997525 L3.60059259,52.4970519 C1.74222222,52.4644889 0,52.098 0,48.43 L0,23.43 L20,0 Z"/></clipPath><clipPath id="g"><path d="M23,0 C35.7025492,0 46,10.2974508 46,23 C46,35.7025492 35.7025492,46 23,46 C10.2974508,46 0,35.7025492 0,23 C0,10.2974508 10.2974508,0 23,0 Z"/></clipPath><clipPath id="h"><path d="M0,0 C12.7025492,0 23,10.2974508 23,23 C23,35.7025492 12.7025492,46 0,46 Z"/></clipPath><linearGradient id="c" x1="68.5" x2="-.1" y1="1.33" y2="69.93" gradientUnits="userSpaceOnUse"><stop offset="0%" stop-color="#545554"/><stop offset="100%" stop-color="#797C79"/></linearGradient></defs><g clip-path="url(#a)"><g clip-path="url(#b)"><polygon fill="url(#c)" points="0 0 70 0 70 70 0 70 0 0"/></g><g clip-path="url(#d)"><polygon fill="rgba(255, 255, 255, 0.38)" points="0 0 70 0 70 3 0 3 0 0"/></g><g clip-path="url(#e)" transform="translate(0 66)"><polygon fill="rgba(0, 0, 0, 0.38)" points="0 0 70 0 70 4 0 4 0 0"/></g><g clip-path="url(#f)" transform="translate(0 16.5)"><polygon fill="#383838" points="0 0 54 0 54 52.5 0 52.5 0 0" opacity="63.5%"/></g><g clip-path="url(#g)" transform="translate(12 11)"><polygon fill="#D8D8D8" points="0 0 46 0 46 46 0 46 0 0"/></g><g clip-path="url(#h)" transform="rotate(-45 30.757 -13.777)"><polygon fill="#2A2A2A" points="0 0 23 0 23 46 0 46 0 0"/></g></g></svg>