<svg xmlns="http://www.w3.org/2000/svg" viewBox="0 0 57.34 77.42"><defs><style>.cls-1{isolation:isolate;}.cls-2{opacity:0.3;mix-blend-mode:hard-light;}.cls-3{fill:currentColor;stroke:#fff;stroke-miterlimit:10;stroke-width:1.6px;}</style></defs><g class="cls-1"><g id="Layer_2" data-name="Layer 2"><g id="Layer_1-2" data-name="Layer 1"><path class="cls-2" d="M29.84,2.87A27.53,27.53,0,0,0,2.34,30.36c0,18.25,23.43,44.58,24.43,45.69a4.12,4.12,0,0,0,6.14,0c1-1.11,24.43-27.44,24.43-45.69A27.53,27.53,0,0,0,29.84,2.87Z"/><path class="cls-3" d="M27.87.8A27.11,27.11,0,0,0,.8,27.87C.8,46.4,25,73.6,26.06,74.74a2.44,2.44,0,0,0,3.63,0C30.72,73.6,55,46.4,55,27.87A27.11,27.11,0,0,0,27.87.8Z"/></g></g></g></svg>
