<svg width="50" height="50" viewBox="0 0 50 50" xmlns="http://www.w3.org/2000/svg"><path d="M44.521 5.5a4.477 4.477 0 0 1 0 6.332l-34.19 34.19H4V39.69L38.19 5.5a4.477 4.477 0 0 1 6.331 0Z" fill="var(--o-icons-cyan-pure, #1BB6F9)"/><path d="M44.521 5.5a4.477 4.477 0 0 1 0 6.332l-34.19 34.19H4V39.69L38.19 5.5a4.477 4.477 0 0 1 6.331 0Z" fill="url(#o_icon_web_studio__a)" fill-opacity=".2"/><path d="M10.9 15.122 4.898 9.12a9.004 9.004 0 0 0 10.48 12.568l23.001 23a4.477 4.477 0 0 0 6.331-6.33l-23-23.001A9.004 9.004 0 0 0 9.141 4.877l6.002 6.002-4.243 4.243Z" fill="var(--o-icons-purple-pure, #93407D)"/><path d="M10.9 15.122 4.898 9.12a9.004 9.004 0 0 0 10.48 12.568l23.001 23a4.477 4.477 0 0 0 6.331-6.33l-23-23.001A9.004 9.004 0 0 0 9.141 4.877l6.002 6.002-4.243 4.243Z" fill="url(#o_icon_web_studio__b)" fill-opacity=".2"/><path d="M25.023 18.67 18.69 25l6.332 6.331L31.352 25l-6.33-6.331Z" fill="var(--o-icons-purple-cyan, #102E7A)"/><path d="M25.023 18.67 18.69 25l6.332 6.331L31.352 25l-6.33-6.331Z" fill="url(#o_icon_web_studio__c)" fill-opacity=".3"/><defs><linearGradient id="o_icon_web_studio__a" x1="4" y1="4.189" x2="53.214" y2="16.493" gradientUnits="userSpaceOnUse"><stop stop-color="#fff"/><stop offset="1" stop-color="#fff" stop-opacity="0"/></linearGradient><linearGradient id="o_icon_web_studio__b" x1="4.021" y1="4" x2="53.433" y2="16.353" gradientUnits="userSpaceOnUse"><stop stop-color="#fff"/><stop offset="1" stop-color="#fff" stop-opacity="0"/></linearGradient><linearGradient id="o_icon_web_studio__c" x1="18.691" y1="18.67" x2="33.588" y2="22.394" gradientUnits="userSpaceOnUse"><stop stop-color="#fff"/><stop offset="1" stop-color="#fff" stop-opacity="0"/></linearGradient></defs></svg>
