<svg width="50" height="50" xmlns="http://www.w3.org/2000/svg"><path d="M4 8a4 4 0 0 1 4-4h11a4 4 0 0 1 4 4v15H8a4 4 0 0 1-4-4V8Z" fill="var(--o-icons-purple-pure, #93407D)"/><path d="M4 8a4 4 0 0 1 4-4h11a4 4 0 0 1 4 4v15H8a4 4 0 0 1-4-4V8Z" fill="url(#o_icon_web_studio__a)" fill-opacity=".2"/><path d="M44.156 4.319c.68-.681 1.844-.199 1.844.763V21.92A1.08 1.08 0 0 1 44.92 23H28.082c-.962 0-1.444-1.164-.763-1.844L44.156 4.319Z" fill="var(--o-icons-cyan-pure, #1BB6F9)"/><path d="M44.156 4.319c.68-.681 1.844-.199 1.844.763V21.92A1.08 1.08 0 0 1 44.92 23H28.082c-.962 0-1.444-1.164-.763-1.844L44.156 4.319Z" fill="url(#o_icon_web_studio__b)" fill-opacity=".2"/><path d="M21.156 27.319c.68-.681 1.844-.199 1.844.764V44.92A1.08 1.08 0 0 1 21.92 46H5.082c-.962 0-1.444-1.164-.763-1.844l16.837-16.837Z" fill="var(--o-icons-cyan-pure, #1BB6F9)"/><path d="M21.156 27.319c.68-.681 1.844-.199 1.844.764V44.92A1.08 1.08 0 0 1 21.92 46H5.082c-.962 0-1.444-1.164-.763-1.844l16.837-16.837Z" fill="url(#o_icon_web_studio__c)" fill-opacity=".2"/><path d="M27 36.5a9.5 9.5 0 1 1 19 0 9.5 9.5 0 0 1-19 0Z" fill="var(--o-icons-purple-pure, #93407D)"/><path d="M27 36.5a9.5 9.5 0 1 1 19 0 9.5 9.5 0 0 1-19 0Z" fill="url(#o_icon_web_studio__d)" fill-opacity=".2"/><defs><linearGradient id="o_icon_web_studio__a" x1="4" y1="4" x2="26.353" y2="9.588" gradientUnits="userSpaceOnUse"><stop stop-color="#fff"/><stop offset="1" stop-color="#fff" stop-opacity="0"/></linearGradient><linearGradient id="o_icon_web_studio__b" x1="27" y1="4" x2="49.353" y2="9.588" gradientUnits="userSpaceOnUse"><stop stop-color="#fff"/><stop offset="1" stop-color="#fff" stop-opacity="0"/></linearGradient><linearGradient id="o_icon_web_studio__c" x1="4" y1="27" x2="26.353" y2="32.588" gradientUnits="userSpaceOnUse"><stop stop-color="#fff"/><stop offset="1" stop-color="#fff" stop-opacity="0"/></linearGradient><linearGradient id="o_icon_web_studio__d" x1="27" y1="27" x2="49.353" y2="32.588" gradientUnits="userSpaceOnUse"><stop stop-color="#fff"/><stop offset="1" stop-color="#fff" stop-opacity="0"/></linearGradient></defs></svg>
