<svg id="Layer_1" data-name="Layer 1" xmlns="http://www.w3.org/2000/svg" xmlns:xlink="http://www.w3.org/1999/xlink" viewBox="0 0 70 70">
  <defs>
    <mask id="mask" x="-0.05" y="0" width="70.05" height="70" maskUnits="userSpaceOnUse">
      <g id="b">
        <path id="a" d="M4,0H65c4,0,5,1,5,5V65c0,4-1,5-5,5H4c-3,0-4-1-4-5V5C0,1,1,0,4,0Z" fill="#fff" fill-rule="evenodd"/>
      </g>
    </mask>
    <linearGradient id="linear-gradient" x1="-1172.36" y1="568.8" x2="-1173.36" y2="567.8" gradientTransform="matrix(70, 0, 0, -70, 82134.99, 39816)" gradientUnits="userSpaceOnUse">
      <stop offset="0" stop-color="#94b6c8"/>
      <stop offset="1" stop-color="#6a9eba"/>
    </linearGradient>
  </defs>
  <g mask="url(#mask)">
    <g>
      <path d="M0,0H70V70H0Z" fill-rule="evenodd" fill="url(#linear-gradient)"/>
      <path d="M4,1H65q4,0,5,2V0H0V3Q1,1,4,1Z" fill="#fff" fill-opacity="0.38" fill-rule="evenodd"/>
      <path d="M4,69H65q4,0,5-3v4H0V66A3.92,3.92,0,0,0,4,69Z" fill-opacity="0.38" fill-rule="evenodd"/>
      <path d="M44.5,69H4a3.66,3.66,0,0,1-4-4V37.35l28.54-27-.09,8.2,4.84-7.23H50.36l-2.19,9.2,5-3.67,5.77,4-1.49,5.2L62.13,32Z" fill="#393939" fill-rule="evenodd" opacity="0.32" style="isolation: isolate"/>
      <g>
        <g opacity="0.4">
          <path d="M54.83,46l-6.15-5.64c.11-.28.2-.55.28-.83H46.1a10.75,10.75,0,0,1-2.64,4.25,11,11,0,0,1-15.55,0,11,11,0,0,1,0-15.56c.26-.26.54-.51.82-.74V21l-4.05-4.2a23.05,23.05,0,0,1,4.05-1.73V11.88a23.5,23.5,0,0,0-3.06,1A24.1,24.1,0,0,0,12.62,26a24.33,24.33,0,0,0,0,19,24.1,24.1,0,0,0,13.05,13,24.3,24.3,0,0,0,19,0,24,24,0,0,0,13-13,23.76,23.76,0,0,0,1.59-5.49H57.26A21,21,0,0,1,54.83,46ZM22.68,40.35,16.54,46a20.7,20.7,0,0,1,0-21l6.14,5.64a13.86,13.86,0,0,0,0,9.72ZM35.68,57a22.61,22.61,0,0,1-11-2.85L30.59,48a15.2,15.2,0,0,0,5.09.89A15.44,15.44,0,0,0,40.77,48l5.91,6.15A22.58,22.58,0,0,1,35.68,57Z" fill-rule="evenodd"/>
          <path d="M45.87,28.61H33.47a1.31,1.31,0,0,1-1.31-1.31V14.17a1.32,1.32,0,0,1,1.31-1.32H50.55a1.32,1.32,0,0,1,1.31,1.32v3.19A4.92,4.92,0,0,0,50.52,25l-.25,0c-1.35,0-.83-.14-2-1.34a7.82,7.82,0,0,0-4,3.64A7.9,7.9,0,0,1,45.87,28.61Zm6-.57a8.29,8.29,0,0,1,6.86,0c1,.67,2.22,2.48,3.6,5.46-1,1.16-1.71,1.66-2.06,1.48a22.76,22.76,0,0,1-1.54-2.47V36a13.34,13.34,0,0,1-7.2,0V32.51A35.68,35.68,0,0,0,46,28c0-.38,0-.66.66-1.32a7.86,7.86,0,0,1,2-1.31C49.74,27.8,50.83,28.71,51.86,28Zm3.11.57-.74,3,1.12,1.5,1.11-1.5-.74-3Zm-16.9,4.6L42,28.61,46,33.21H44.64L42,29.93l-2.63,3.28Zm16.75-6.57a4.27,4.27,0,1,1,4.27-4.26A4.27,4.27,0,0,1,54.82,26.64Z" fill-rule="evenodd"/>
        </g>
        <g>
          <path d="M54.65,44.5,48.5,38.86c.1-.27.19-.55.27-.83H45.91A11,11,0,0,1,35.5,45.5a11,11,0,0,1-11-11,10.59,10.59,0,0,1,3.22-7.78c.27-.26.54-.5.82-.73V19.56l-4-4.21a24.08,24.08,0,0,1,4-1.73V10.39a25.69,25.69,0,0,0-3.06,1,24,24,0,0,0-13,13,24.33,24.33,0,0,0,0,19,24,24,0,0,0,13,13,24.33,24.33,0,0,0,19,0,24,24,0,0,0,13-13A23.76,23.76,0,0,0,59.15,38H57.07A21.2,21.2,0,0,1,54.65,44.5ZM22.5,38.86,16.35,44.5a20.77,20.77,0,0,1,0-21l6.15,5.64a13.71,13.71,0,0,0,0,9.72Zm13,16.64a22.58,22.58,0,0,1-11-2.85l5.91-6.15a15.16,15.16,0,0,0,5.09.89,15,15,0,0,0,5.09-.89l5.91,6.15A22.58,22.58,0,0,1,35.5,55.5Z" fill="#fff" fill-rule="evenodd"/>
          <path d="M45.68,27.13H33.29A1.31,1.31,0,0,1,32,25.81V12.68a1.31,1.31,0,0,1,1.31-1.32H50.36a1.32,1.32,0,0,1,1.32,1.32v3.19a4.92,4.92,0,0,0-1.34,7.68l-.26,0c-1.34,0-.82-.14-2-1.34a7.86,7.86,0,0,0-4,3.64A7.44,7.44,0,0,1,45.68,27.13Zm6-.57a8.2,8.2,0,0,1,6.85,0c1,.66,2.23,2.47,3.6,5.45-1,1.16-1.7,1.66-2.05,1.49A26,26,0,0,1,58.53,31v3.47a13.3,13.3,0,0,1-7.19,0V31a36.84,36.84,0,0,0-5.57-4.55c0-.38,0-.66.65-1.31a7.78,7.78,0,0,1,2-1.32C49.56,26.31,50.65,27.22,51.68,26.56Zm3.11.57-.74,3,1.11,1.51,1.11-1.51-.74-3Zm-16.9,4.59,3.94-4.59,3.94,4.59H44.45l-2.62-3.28L39.2,31.72Zm16.74-6.56a4.27,4.27,0,1,1,4.27-4.27A4.28,4.28,0,0,1,54.63,25.16Z" fill="#fff" fill-rule="evenodd"/>
        </g>
      </g>
    </g>
  </g>
</svg>
