<svg width="50" height="50" viewBox="0 0 50 50" xmlns="http://www.w3.org/2000/svg"><path d="M17 3.99C17 2 19 0 21 0h21v35a1 1 0 0 1-1.572.82L32 30c-1.5-1-3.5-1-5 0l-8.428 5.82A1 1 0 0 1 17 35V3.99Z" fill="var(--o-icons-teal-pure, #00CEB3)"/><path d="M17 3.99C17 2 19 0 21 0h21v35a1 1 0 0 1-1.572.82L32 30c-1.5-1-3.5-1-5 0l-8.428 5.82A1 1 0 0 1 17 35V3.99Z" fill="url(#o_icon_knowledge__a)" fill-opacity=".2"/><path d="M8 17.99C8 16 10 14 12 14h21v35a1 1 0 0 1-1.572.82L23 44c-1.5-1-3.5-1-5 0l-8.428 5.82A1 1 0 0 1 8 49V17.99Z" fill="var(--o-icons-purple-pure, #93407D)"/><path d="M8 17.99C8 16 10 14 12 14h21v35a1 1 0 0 1-1.572.82L23 44c-1.5-1-3.5-1-5 0l-8.428 5.82A1 1 0 0 1 8 49V17.99Z" fill="url(#o_icon_knowledge__b)" fill-opacity=".2"/><path d="M33 30.658 32 30c-1.5-1-3.5-1-5 0l-8.428 5.82A1 1 0 0 1 17 35V14h16v16.658Z" fill="var(--o-icons-purple-teal, #003458)"/><path d="M33 30.658 32 30c-1.5-1-3.5-1-5 0l-8.428 5.82A1 1 0 0 1 17 35V14h16v16.658Z" fill="url(#o_icon_knowledge__c)" fill-opacity=".3"/><defs><linearGradient id="o_icon_knowledge__a" x1="17" y1="0" x2="47.336" y2="5.267" gradientUnits="userSpaceOnUse"><stop stop-color="#fff"/><stop offset="1" stop-color="#fff" stop-opacity="0"/></linearGradient><linearGradient id="o_icon_knowledge__b" x1="8" y1="14" x2="38.336" y2="19.267" gradientUnits="userSpaceOnUse"><stop stop-color="#fff"/><stop offset="1" stop-color="#fff" stop-opacity="0"/></linearGradient><linearGradient id="o_icon_knowledge__c" x1="17" y1="14" x2="36.36" y2="17.52" gradientUnits="userSpaceOnUse"><stop stop-color="#fff"/><stop offset="1" stop-color="#fff" stop-opacity="0"/></linearGradient></defs></svg>
