<svg width="50" height="50" viewBox="0 0 50 50" xmlns="http://www.w3.org/2000/svg"><path d="M27.436 17.139 7.494 37.08a4.029 4.029 0 1 0 5.697 5.697l19.942-19.942a4.029 4.029 0 0 0-5.697-5.697Z" fill="var(--o-icons-teal-pure, #00CEB3)"/><path d="M27.436 17.139 7.494 37.08a4.029 4.029 0 1 0 5.697 5.697l19.942-19.942a4.029 4.029 0 0 0-5.697-5.697Z" fill="url(#o_icon_sale_renting__a)" fill-opacity=".2"/><path d="M27.436 17.139 7.494 37.08a4.029 4.029 0 1 0 5.697 5.697l19.942-19.942a4.029 4.029 0 0 0-5.697-5.697Z" fill="var(--o-icons-teal-pure, #00CEB3)"/><path d="M27.436 17.139 7.494 37.08a4.029 4.029 0 1 0 5.697 5.697l19.942-19.942a4.029 4.029 0 0 0-5.697-5.697Z" fill="url(#o_icon_sale_renting__b)" fill-opacity=".2"/><path fill-rule="evenodd" clip-rule="evenodd" d="M22.45 10.729a8.058 8.058 0 0 0 0 11.395l5.698 5.698a8.058 8.058 0 0 0 11.395 0l6.41-6.41a8.058 8.058 0 0 0 0-11.396L40.255 4.32a8.058 8.058 0 0 0-11.395 0l-6.41 6.41Zm17.805 3.56a3.022 3.022 0 1 0-4.273-4.273 3.022 3.022 0 0 0 4.273 4.274Z" fill="var(--o-icons-purple-pure, #93407D)"/><path fill-rule="evenodd" clip-rule="evenodd" d="M22.45 10.729a8.058 8.058 0 0 0 0 11.395l5.698 5.698a8.058 8.058 0 0 0 11.395 0l6.41-6.41a8.058 8.058 0 0 0 0-11.396L40.255 4.32a8.058 8.058 0 0 0-11.395 0l-6.41 6.41Zm17.805 3.56a3.022 3.022 0 1 0-4.273-4.273 3.022 3.022 0 0 0 4.273 4.274Z" fill="url(#o_icon_sale_renting__c)" fill-opacity=".2"/><path d="m28.149 27.822 4.986-4.986a4.03 4.03 0 0 0-5.698-5.697l-4.986 4.985 5.698 5.698Z" fill="var(--o-icons-purple-teal, #003458)"/><path d="m28.149 27.822 4.986-4.986a4.03 4.03 0 0 0-5.698-5.697l-4.986 4.985 5.698 5.698Z" fill="url(#o_icon_sale_renting__d)" fill-opacity=".3"/><defs><linearGradient id="o_icon_sale_renting__a" x1="6.313" y1="15.959" x2="39.255" y2="24.194" gradientUnits="userSpaceOnUse"><stop stop-color="#fff"/><stop offset="1" stop-color="#fff" stop-opacity="0"/></linearGradient><linearGradient id="o_icon_sale_renting__b" x1="6.313" y1="15.959" x2="39.255" y2="24.194" gradientUnits="userSpaceOnUse"><stop stop-color="#fff"/><stop offset="1" stop-color="#fff" stop-opacity="0"/></linearGradient><linearGradient id="o_icon_sale_renting__c" x1="20.09" y1="1.958" x2="53.294" y2="10.259" gradientUnits="userSpaceOnUse"><stop stop-color="#fff"/><stop offset="1" stop-color="#fff" stop-opacity="0"/></linearGradient><linearGradient id="o_icon_sale_renting__d" x1="22.451" y1="15.959" x2="36.408" y2="19.448" gradientUnits="userSpaceOnUse"><stop stop-color="#fff"/><stop offset="1" stop-color="#fff" stop-opacity="0"/></linearGradient></defs></svg>
