<svg id="Layer_1" data-name="Layer 1" xmlns="http://www.w3.org/2000/svg" xmlns:xlink="http://www.w3.org/1999/xlink" viewBox="0 0 70 70">
  <defs>
    <mask id="mask" x="0" y="0" width="70" height="70" maskUnits="userSpaceOnUse">
      <g id="b">
        <path id="a" d="M4,0H65c4,0,5,1,5,5V65c0,4-1,5-5,5H4c-3,0-4-1-4-5V5C0,1,1,0,4,0Z" fill="#fff" fill-rule="evenodd"/>
      </g>
    </mask>
    <linearGradient id="linear-gradient" x1="-1083.78" y1="568.8" x2="-1084.78" y2="567.8" gradientTransform="matrix(70, 0, 0, -70, 75934.61, 39816)" gradientUnits="userSpaceOnUse">
      <stop offset="0" stop-color="#cd7690"/>
      <stop offset="1" stop-color="#ca5377"/>
    </linearGradient>
  </defs>
  <g mask="url(#mask)">
    <g>
      <path d="M0,0H70V70H0Z" fill-rule="evenodd" fill="url(#linear-gradient)"/>
      <path d="M4,1H65c2.67,0,4.33.67,5,2V0H0V3C.67,1.67,2,1,4,1Z" fill="#fff" fill-opacity="0.38" fill-rule="evenodd"/>
      <path d="M4,69H65c2.67,0,4.33-1,5-3v4H0V66A3.92,3.92,0,0,0,4,69Z" fill-opacity="0.38" fill-rule="evenodd"/>
      <path d="M4,69a3.68,3.68,0,0,1-4-4V39.16l18-21.5q20-13.09,33-1a22.77,22.77,0,0,1,5.88,8.44c.12.31,2.53-4.54,2.64-4.21,1.27,3.79,1.15,7.81-.37,13.89-.1.4,4.23.44,4,.78C60.34,39.56,42.3,69,42.3,69Z" fill="#393939" fill-rule="evenodd" opacity="0.32" style="isolation: isolate"/>
      <g>
        <g opacity="0.4">
          <path d="M58.16,39.9a21.57,21.57,0,0,1-2.35,6l-6.15-5.65c.1-.25.17-.5.25-.75a16.43,16.43,0,0,1-2.55-1,11.07,11.07,0,0,1-10.7,8.37,11,11,0,0,1-11-11,10.6,10.6,0,0,1,3.23-7.78,11,11,0,0,1,2.58-1.95,8.26,8.26,0,0,1-.75-3.4c0-.24,0-.47.05-.71l-5.11-5.31A22.72,22.72,0,0,1,34.07,14a15.06,15.06,0,0,1,5.18-2.95,24.3,24.3,0,0,0-3.09-.2,23.9,23.9,0,0,0-9.51,1.94,24.1,24.1,0,0,0-13,13,24.3,24.3,0,0,0,0,19,24.1,24.1,0,0,0,13.05,13,24.19,24.19,0,0,0,19,0,24,24,0,0,0,13-13,24.15,24.15,0,0,0,1.62-5.53A18.75,18.75,0,0,1,58.16,39.9Zm-34.5.34-6.14,5.65a20.7,20.7,0,0,1,0-21l6.14,5.64a13.83,13.83,0,0,0,0,9.71Zm13,16.65a22.62,22.62,0,0,1-11-2.86l5.91-6.14a15.16,15.16,0,0,0,10.18,0L47.66,54A22.48,22.48,0,0,1,36.66,56.89Z" fill-rule="evenodd"/>
        </g>
        <path d="M57.49,38.63a21.48,21.48,0,0,1-2.34,6L49,39c.09-.25.17-.5.25-.76a16.53,16.53,0,0,1-2.56-1A11,11,0,0,1,36,45.61a11,11,0,0,1-11-11,10.57,10.57,0,0,1,3.22-7.77,11.24,11.24,0,0,1,2.58-1.95,8.25,8.25,0,0,1-.74-3.4c0-.24,0-.48.05-.71L25,15.46a22.7,22.7,0,0,1,8.41-2.69,14.87,14.87,0,0,1,5.17-3A24.2,24.2,0,0,0,26,11.55a24.1,24.1,0,0,0-13,13.05,24.3,24.3,0,0,0,0,19,24.92,24.92,0,0,0,5.22,7.82A24.59,24.59,0,0,0,26,56.67a24.33,24.33,0,0,0,19,0,24.59,24.59,0,0,0,7.82-5.22,24.92,24.92,0,0,0,5.22-7.82,23.71,23.71,0,0,0,1.61-5.54A16.53,16.53,0,0,1,57.49,38.63ZM23,39l-6.15,5.64a20.77,20.77,0,0,1,0-21L23,29.26A13.69,13.69,0,0,0,23,39ZM36,55.61a22.58,22.58,0,0,1-11-2.85l5.91-6.15A15.16,15.16,0,0,0,36,47.5a15,15,0,0,0,5.09-.89L47,52.76A22.58,22.58,0,0,1,36,55.61Z" fill="#fff" fill-rule="evenodd"/>
      </g>
      <g>
        <path d="M45.76,30.58c6.26,0,11.33-3.74,11.33-8.37S52,13.84,45.76,13.84s-11.33,3.75-11.33,8.37a7,7,0,0,0,2.31,5.06,5.24,5.24,0,0,1-2,3.81c-.15.15-.31.27-.26.48a.41.41,0,0,0,.45.3,10.78,10.78,0,0,0,5.6-2.24,14.66,14.66,0,0,0,5.27,1Z" opacity="0.4"/>
        <path d="M63.32,36.07a4.74,4.74,0,0,1-1.9-3.46c3.48-3.31,2.64-8-1.9-10.61v.21C59.52,28.48,53,33.29,45.14,33a12.58,12.58,0,0,0,7.91,2.58,13.72,13.72,0,0,0,4.89-.87,10.11,10.11,0,0,0,5.2,2,.38.38,0,0,0,.42-.28C63.61,36.32,63.46,36.2,63.32,36.07Z" opacity="0.4"/>
        <path d="M45.76,29.18c6.26,0,11.33-3.74,11.33-8.37S52,12.44,45.76,12.44s-11.33,3.75-11.33,8.37a7.06,7.06,0,0,0,2.31,5.07,5.23,5.23,0,0,1-2,3.8c-.15.15-.31.28-.26.48a.42.42,0,0,0,.45.31,10.79,10.79,0,0,0,5.6-2.25,14.66,14.66,0,0,0,5.27,1Z" fill="#fff"/>
        <path d="M63.32,34.67a4.74,4.74,0,0,1-1.9-3.46c3.48-3.31,2.64-8-1.9-10.61v.21c0,6.27-6.55,11.08-14.38,10.82a12.58,12.58,0,0,0,7.91,2.58,13.72,13.72,0,0,0,4.89-.87,10.11,10.11,0,0,0,5.2,2,.37.37,0,0,0,.42-.28C63.61,34.92,63.46,34.81,63.32,34.67Z" fill="#fff"/>
      </g>
    </g>
  </g>
</svg>
