<svg id="Calque_1" data-name="Calque 1" xmlns="http://www.w3.org/2000/svg" xmlns:xlink="http://www.w3.org/1999/xlink" viewBox="0 0 70 70"><defs><style>.cls-1{fill:none;}.cls-2,.cls-5{fill:#fff;}.cls-3{clip-path:url(#clip-path);}.cls-4{fill:url(#Dégradé_sans_nom_3);}.cls-5,.cls-7{fill-opacity:0.38;}.cls-6{fill:#393939;opacity:0.32;isolation:isolate;}.cls-8{opacity:0.37;}</style><clipPath id="clip-path"><path class="cls-1" d="M4-.1H65c4,0,5,1,5,5v60c0,4-1,5-5,5H4c-3,0-4-1-4-5V4.9C0,.9,1-.1,4-.1Z"/></clipPath><linearGradient id="Dégradé_sans_nom_3" x1="-795.33" y1="276.83" x2="-796.33" y2="275.83" gradientTransform="matrix(70, 0, 0, -70, 55743.38, 19378)" gradientUnits="userSpaceOnUse"><stop offset="0" stop-color="#cd7690"/><stop offset="1" stop-color="#ca5377"/></linearGradient></defs><title>social</title><path id="a" class="cls-2" d="M4,0H65c4,0,5,1,5,5V65c0,4-1,5-5,5H4c-3,0-4-1-4-5V5C0,1,1,0,4,0Z"/><g class="cls-3"><path class="cls-4" d="M0,0H70V70H0Z"/></g><g class="cls-3"><path class="cls-5" d="M4,1H65c2.7,0,4.3.7,5,2V0H0V3C.7,1.7,2,1,4,1Z"/></g><g class="cls-3"><path class="cls-6" d="M37.6,9.9s-1.9,8.4,3.1,10.6L27.4,33,39,43.9l7.2-1.6,4.3,7.1L31.3,69H4a3.66,3.66,0,0,1-4-4V37.9"/></g><g class="cls-3"><path class="cls-7" d="M4,69H65c2.7,0,4.3-1,5-3v4H0V66A4,4,0,0,0,4,69Z"/></g><g class="cls-3"><g class="cls-8"><path d="M36.6,11.9c5,1,6.7,3.5,5.8,7.8a34,34,0,0,1-1.2,3.4c-.4,1-.7,2-1.2,3.5,2.2.1,4,.2,5.8.3a31.28,31.28,0,0,1,4.4.4,4.41,4.41,0,0,1,3.2,5.2c-.8,4.1-1.4,8.2-2.2,12.2a54.82,54.82,0,0,1-1.7,6.7c-.5,1.7-2.1,2.2-3.7,2.7A20.64,20.64,0,0,1,34,53.5c-2.7-.9-5.5-1.6-8.4-2.7a1.5,1.5,0,0,1-1-1.4v-2c0-4.3.1-8.7,0-13a6.94,6.94,0,0,1,1.9-5c1-1.1,1.8-2.3,2.7-3.4,2.5-3.3,6.1-5.4,6.9-9.7C36.3,15.2,36.1,13.1,36.6,11.9Z"/><path d="M21,33.8c0-2-.7-2.4-2.8-2.6a32.3,32.3,0,0,0-4.4,0c-2.4.1-3,.6-3.1,3.1-.1,2.8-.1,14.2,0,17.1.1,2.7,1.1,3.4,4.4,3.4,4.5.1,5.7-.5,5.8-3.2C21.1,45.7,21.1,39.8,21,33.8ZM16.5,51.6a2.32,2.32,0,0,1-2.8-2.8,2.43,2.43,0,0,1,1.7-1.7,2.32,2.32,0,0,1,2.8,2.8A2.27,2.27,0,0,1,16.5,51.6Z"/></g></g><g class="cls-3"><path class="cls-2" d="M37.6,9.9c5,1,6.7,3.5,5.8,7.8a34,34,0,0,1-1.2,3.4c-.4,1-.7,2-1.2,3.5,2.2.1,4,.2,5.8.3a31.28,31.28,0,0,1,4.4.4,4.41,4.41,0,0,1,3.2,5.2c-.8,4.1-1.4,8.2-2.2,12.2a54.82,54.82,0,0,1-1.7,6.7c-.5,1.7-2.1,2.2-3.7,2.7A20.64,20.64,0,0,1,35,51.5c-2.7-.9-5.5-1.6-8.4-2.7a1.5,1.5,0,0,1-1-1.4v-2c0-4.3.1-8.7,0-13a6.94,6.94,0,0,1,1.9-5c1-1.1,1.8-2.3,2.7-3.4,2.5-3.3,5.1-6.4,5.9-10.7A19.67,19.67,0,0,1,37.6,9.9Z"/><path class="cls-2" d="M22,31.8c0-2-.7-2.4-2.8-2.6a32.3,32.3,0,0,0-4.4,0c-2.4.1-3,.6-3.1,3.1-.1,2.8-.1,14.2,0,17.1.1,2.7,1.1,3.4,4.4,3.4,4.5.1,5.7-.5,5.8-3.2C22.1,43.7,22.1,37.8,22,31.8ZM17.5,49.6a2.32,2.32,0,0,1-2.8-2.8,2.43,2.43,0,0,1,1.7-1.7,2.32,2.32,0,0,1,2.8,2.8A2.27,2.27,0,0,1,17.5,49.6Z"/></g></svg>