<svg width="50" height="50" viewBox="0 0 50 50" xmlns="http://www.w3.org/2000/svg"><path d="M7.402 10.346c4.535-4.461 11.89-4.461 16.425 0l17.598 17.308-15.019 14.771a2.007 2.007 0 0 1-2.812 0L7.402 26.5a11.29 11.29 0 0 1 0-16.154Z" fill="var(--o-icons-red-pure, #FC787D)"/><path d="M7.402 10.346c4.535-4.461 11.89-4.461 16.425 0l17.598 17.308-15.019 14.771a2.007 2.007 0 0 1-2.812 0L7.402 26.5a11.29 11.29 0 0 1 0-16.154Z" fill="url(#o_icon_social__a)" fill-opacity=".2"/><path d="M42.598 10.346a11.29 11.29 0 0 1 0 16.154L26.406 42.425a2.007 2.007 0 0 1-2.812 0L8.575 27.654l17.598-17.308c4.536-4.461 11.89-4.461 16.425 0Z" fill="var(--o-icons-yellow-pure, #FBB130)"/><path d="M42.598 10.346a11.29 11.29 0 0 1 0 16.154L26.406 42.425a2.007 2.007 0 0 1-2.812 0L8.575 27.654l17.598-17.308c4.536-4.461 11.89-4.461 16.425 0Z" fill="url(#o_icon_social__b)" fill-opacity=".2"/><path d="m25 11.5 16.425 16.154-15.019 14.771a2.007 2.007 0 0 1-2.812 0L8.575 27.655 25 11.5Z" fill="var(--o-icons-red-yellow, #F85318)"/><path d="m25 11.5 16.425 16.154-15.019 14.771a2.007 2.007 0 0 1-2.812 0L8.575 27.655 25 11.5Z" fill="url(#o_icon_social__c)" fill-opacity=".2"/><defs><linearGradient id="o_icon_social__a" x1="4" y1="7" x2="47.821" y2="18.389" gradientUnits="userSpaceOnUse"><stop stop-color="#fff"/><stop offset="1" stop-color="#fff" stop-opacity="0"/></linearGradient><linearGradient id="o_icon_social__b" x1="8.575" y1="7" x2="52.396" y2="18.389" gradientUnits="userSpaceOnUse"><stop stop-color="#fff"/><stop offset="1" stop-color="#fff" stop-opacity="0"/></linearGradient><linearGradient id="o_icon_social__c" x1="8.575" y1="11.5" x2="47.024" y2="21.524" gradientUnits="userSpaceOnUse"><stop stop-color="#fff"/><stop offset="1" stop-color="#fff" stop-opacity="0"/></linearGradient></defs></svg>
