<svg width="50" height="50" viewBox="0 0 50 50" xmlns="http://www.w3.org/2000/svg"><path d="M5 9a4 4 0 0 1 4-4h19v23H5V9Z" fill="var(--o-icons-cyan-pure, #1BB6F9)"/><path d="M5 9a4 4 0 0 1 4-4h19v23H5V9Z" fill="url(#o_icon_quality_control__a)" fill-opacity=".2"/><path d="M22 23h11v5.5a5.5 5.5 0 0 1-5.5 5.5H22V23Z" fill="var(--o-icons-cyan-pure, #1BB6F9)"/><path d="M22 23h11v5.5a5.5 5.5 0 0 1-5.5 5.5H22V23Z" fill="url(#o_icon_quality_control__b)" fill-opacity=".2"/><path fill-rule="evenodd" clip-rule="evenodd" d="M31 43c2.225 0 4.31-.606 6.096-1.661l4.332 4.332a25.146 25.146 0 0 0 4.243-4.243l-4.332-4.332A11.944 11.944 0 0 0 43 31c0-6.627-5.373-12-12-12s-12 5.373-12 12 5.373 12 12 12Zm0-5a7 7 0 1 0 0-14 7 7 0 0 0 0 14Z" fill="var(--o-icons-purple-pure, #93407D)"/><path fill-rule="evenodd" clip-rule="evenodd" d="M31 43c2.225 0 4.31-.606 6.096-1.661l4.332 4.332a25.146 25.146 0 0 0 4.243-4.243l-4.332-4.332A11.944 11.944 0 0 0 43 31c0-6.627-5.373-12-12-12s-12 5.373-12 12 5.373 12 12 12Zm0-5a7 7 0 1 0 0-14 7 7 0 0 0 0 14Z" fill="url(#o_icon_quality_control__c)" fill-opacity=".2"/><path d="M19.378 34A12.022 12.022 0 0 1 19 31c0-6.627 5.373-12 12-12 .681 0 1.35.057 2 .166v5.124A7 7 0 0 0 24.674 34h-5.296Z" fill="var(--o-icons-purple-cyan, #102E7A)"/><path d="M19.378 34A12.022 12.022 0 0 1 19 31c0-6.627 5.373-12 12-12 .681 0 1.35.057 2 .166v5.124A7 7 0 0 0 24.674 34h-5.296Z" fill="url(#o_icon_quality_control__d)" fill-opacity=".3"/><defs><linearGradient id="o_icon_quality_control__a" x1="5" y1="5" x2="32.059" y2="11.765" gradientUnits="userSpaceOnUse"><stop stop-color="#fff"/><stop offset="1" stop-color="#fff" stop-opacity="0"/></linearGradient><linearGradient id="o_icon_quality_control__b" x1="22" y1="23" x2="34.941" y2="26.235" gradientUnits="userSpaceOnUse"><stop stop-color="#fff"/><stop offset="1" stop-color="#fff" stop-opacity="0"/></linearGradient><linearGradient id="o_icon_quality_control__c" x1="19" y1="19" x2="50.377" y2="26.844" gradientUnits="userSpaceOnUse"><stop stop-color="#fff"/><stop offset="1" stop-color="#fff" stop-opacity="0"/></linearGradient><linearGradient id="o_icon_quality_control__d" x1="19" y1="19" x2="35.596" y2="22.872" gradientUnits="userSpaceOnUse"><stop stop-color="#fff"/><stop offset="1" stop-color="#fff" stop-opacity="0"/></linearGradient></defs></svg>
