<svg width="50" height="50" viewBox="0 0 50 50" xmlns="http://www.w3.org/2000/svg"><g style="mix-blend-mode:multiply" fill-rule="evenodd" clip-rule="evenodd"><path d="M12 29H4V16a4 4 0 0 1 4-4h13v17h-9Zm0 0v-4c0-2 2-4 4-4h5v8h-9Z" fill="var(--o-icons-yellow-pure, #FBB130)"/><path d="M12 29H4V16a4 4 0 0 1 4-4h13v17h-9Zm0 0v-4c0-2 2-4 4-4h5v8h-9Z" fill="url(#o_icon_website_helpdesk_fourm__a)" fill-opacity=".2"/></g><g style="mix-blend-mode:multiply" fill-rule="evenodd" clip-rule="evenodd"><path d="M38 21h8v13a4 4 0 0 1-4 4H29V21h9Zm0 0v4c0 2-2 4-4 4h-5v-8h9Z" fill="var(--o-icons-yellow-pure, #FBB130)"/><path d="M38 21h8v13a4 4 0 0 1-4 4H29V21h9Zm0 0v4c0 2-2 4-4 4h-5v-8h9Z" fill="url(#o_icon_website_helpdesk_fourm__b)" fill-opacity=".2"/></g><g style="mix-blend-mode:multiply" fill-rule="evenodd" clip-rule="evenodd"><path d="M21 12V4h13a4 4 0 0 1 4 4v13H21v-9Zm0 0h4c2 0 4 2 4 4v5h-8v-9Z" fill="var(--o-icons-teal-teal, #00A079)"/><path d="M21 12V4h13a4 4 0 0 1 4 4v13H21v-9Zm0 0h4c2 0 4 2 4 4v5h-8v-9Z" fill="url(#o_icon_website_helpdesk_fourm__c)" fill-opacity=".2"/></g><g style="mix-blend-mode:multiply" fill-rule="evenodd" clip-rule="evenodd"><path d="M29 38v8H16a4 4 0 0 1-4-4V29h17v9Zm0 0h-4c-2 0-4-2-4-4v-5h8v9Z" fill="var(--o-icons-teal-teal, #00A079)"/><path d="M29 38v8H16a4 4 0 0 1-4-4V29h17v9Zm0 0h-4c-2 0-4-2-4-4v-5h8v9Z" fill="url(#o_icon_website_helpdesk_fourm__d)" fill-opacity=".2"/></g><defs><linearGradient id="o_icon_website_helpdesk_fourm__a" x1="4" y1="12" x2="24" y2="17" gradientUnits="userSpaceOnUse"><stop stop-color="#fff"/><stop offset="1" stop-color="#fff" stop-opacity="0"/></linearGradient><linearGradient id="o_icon_website_helpdesk_fourm__b" x1="29" y1="21" x2="49" y2="26" gradientUnits="userSpaceOnUse"><stop stop-color="#fff"/><stop offset="1" stop-color="#fff" stop-opacity="0"/></linearGradient><linearGradient id="o_icon_website_helpdesk_fourm__c" x1="21" y1="4" x2="41" y2="9" gradientUnits="userSpaceOnUse"><stop stop-color="#fff"/><stop offset="1" stop-color="#fff" stop-opacity="0"/></linearGradient><linearGradient id="o_icon_website_helpdesk_fourm__d" x1="12" y1="29" x2="32" y2="34" gradientUnits="userSpaceOnUse"><stop stop-color="#fff"/><stop offset="1" stop-color="#fff" stop-opacity="0"/></linearGradient></defs></svg>
