<svg width="50" height="50" viewBox="0 0 50 50" xmlns="http://www.w3.org/2000/svg"><path d="M22 8h8v34h-8V8Z" fill="var(--o-icons-purple-pure, #93407D)"/><path d="M22 8h8v34h-8V8Z" fill="url(#o_icon_stock_barcode__a)" fill-opacity=".2"/><path d="M4 8h9v34H8a4 4 0 0 1-4-4V8Z" fill="var(--o-icons-purple-pure, #93407D)"/><path d="M4 8h9v34H8a4 4 0 0 1-4-4V8Z" fill="url(#o_icon_stock_barcode__b)" fill-opacity=".2"/><path d="M39 8h3a4 4 0 0 1 4 4v30h-7V8Z" fill="var(--o-icons-purple-pure, #93407D)"/><path d="M39 8h3a4 4 0 0 1 4 4v30h-7V8Z" fill="url(#o_icon_stock_barcode__c)" fill-opacity=".2"/><path d="M33 8h3v34h-3V8Z" fill="var(--o-icons-purple-pure, #93407D)"/><path d="M33 8h3v34h-3V8Z" fill="url(#o_icon_stock_barcode__d)" fill-opacity=".2"/><path d="M16 8h3v34h-3V8Z" fill="var(--o-icons-purple-pure, #93407D)"/><path d="M16 8h3v34h-3V8Z" fill="url(#o_icon_stock_barcode__e)" fill-opacity=".2"/><defs><linearGradient id="o_icon_stock_barcode__a" x1="22" y1="8" x2="31.965" y2="8.586" gradientUnits="userSpaceOnUse"><stop stop-color="#fff"/><stop offset="1" stop-color="#fff" stop-opacity="0"/></linearGradient><linearGradient id="o_icon_stock_barcode__b" x1="4" y1="8" x2="15.201" y2="8.741" gradientUnits="userSpaceOnUse"><stop stop-color="#fff"/><stop offset="1" stop-color="#fff" stop-opacity="0"/></linearGradient><linearGradient id="o_icon_stock_barcode__c" x1="39" y1="8" x2="47.727" y2="8.449" gradientUnits="userSpaceOnUse"><stop stop-color="#fff"/><stop offset="1" stop-color="#fff" stop-opacity="0"/></linearGradient><linearGradient id="o_icon_stock_barcode__d" x1="33" y1="8" x2="36.748" y2="8.083" gradientUnits="userSpaceOnUse"><stop stop-color="#fff"/><stop offset="1" stop-color="#fff" stop-opacity="0"/></linearGradient><linearGradient id="o_icon_stock_barcode__e" x1="16" y1="8" x2="19.748" y2="8.083" gradientUnits="userSpaceOnUse"><stop stop-color="#fff"/><stop offset="1" stop-color="#fff" stop-opacity="0"/></linearGradient></defs></svg>
