<svg width="50" height="50" viewBox="0 0 50 50" xmlns="http://www.w3.org/2000/svg"><path d="M37 17h11v13H37V17Z" fill="var(--o-icons-cyan-cyan, #0382F3)"/><path d="M37 17h11v13H37V17Z" fill="url(#o_icon_account_asset__a)" fill-opacity=".2"/><path d="M0 34h4v4H0v-4Z" fill="var(--o-icons-cyan-pure, #1BB6F9)"/><path d="M0 34h4v4H0v-4Z" fill="url(#o_icon_account_asset__b)" fill-opacity=".2"/><path d="M44 33h4v5h-4v-5Z" fill="var(--o-icons-cyan-cyan, #0382F3)"/><path d="M44 33h4v5h-4v-5Z" fill="url(#o_icon_account_asset__c)" fill-opacity=".2"/><path d="M0 38a4 4 0 0 1 4-4h44v4a4 4 0 0 1-4 4H4a4 4 0 0 1-4-4Z" fill="var(--o-icons-purple-cyan, #102E7A)"/><path d="M0 38a4 4 0 0 1 4-4h44v4a4 4 0 0 1-4 4H4a4 4 0 0 1-4-4Z" fill="url(#o_icon_account_asset__d)" fill-opacity=".3"/><path d="M4.421 8C1.979 8 0 9.959 0 12.375V34h46c2.442 0 4-1.584 4-4v-4a2 2 0 0 0-2-2h-6c-1.831 0-3-1.188-3-3s1.169-3 3-3h6a2 2 0 0 0 2-2v-3.625C50 9.959 48.02 8 45.579 8H4.42Z" fill="var(--o-icons-cyan-pure, #1BB6F9)"/><path d="M4.421 8C1.979 8 0 9.959 0 12.375V34h46c2.442 0 4-1.584 4-4v-4a2 2 0 0 0-2-2h-6c-1.831 0-3-1.188-3-3s1.169-3 3-3h6a2 2 0 0 0 2-2v-3.625C50 9.959 48.02 8 45.579 8H4.42Z" fill="url(#o_icon_account_asset__e)" fill-opacity=".2"/><defs><linearGradient id="o_icon_account_asset__a" x1="37" y1="17" x2="50.161" y2="19.784" gradientUnits="userSpaceOnUse"><stop stop-color="#fff"/><stop offset="1" stop-color="#fff" stop-opacity="0"/></linearGradient><linearGradient id="o_icon_account_asset__b" x1="0" y1="34" x2="4.706" y2="35.176" gradientUnits="userSpaceOnUse"><stop stop-color="#fff"/><stop offset="1" stop-color="#fff" stop-opacity="0"/></linearGradient><linearGradient id="o_icon_account_asset__c" x1="44" y1="33" x2="48.808" y2="33.962" gradientUnits="userSpaceOnUse"><stop stop-color="#fff"/><stop offset="1" stop-color="#fff" stop-opacity="0"/></linearGradient><linearGradient id="o_icon_account_asset__d" x1="0" y1="34" x2="18.462" y2="61.692" gradientUnits="userSpaceOnUse"><stop stop-color="#fff"/><stop offset="1" stop-color="#fff" stop-opacity="0"/></linearGradient><linearGradient id="o_icon_account_asset__e" x1="0" y1="8" x2="50.766" y2="32.407" gradientUnits="userSpaceOnUse"><stop stop-color="#fff"/><stop offset="1" stop-color="#fff" stop-opacity="0"/></linearGradient></defs></svg>
