<svg width="50" height="50" viewBox="0 0 50 50" xmlns="http://www.w3.org/2000/svg"><path d="M0 12h50v26a4 4 0 0 1-4 4H0V12Z" fill="var(--o-icons-purple-pure, #93407D)"/><path d="M0 12h50v26a4 4 0 0 1-4 4H0V12Z" fill="url(#o_icon_hr_payroll__a)" fill-opacity=".2"/><path d="M4 21a4 4 0 0 1-4-4v-5a4 4 0 0 1 4-4h46v9a4 4 0 0 1-4 4H4Z" fill="var(--o-icons-red-pure, #FC787D)"/><path d="M4 21a4 4 0 0 1-4-4v-5a4 4 0 0 1 4-4h46v9a4 4 0 0 1-4 4H4Z" fill="url(#o_icon_hr_payroll__b)" fill-opacity=".2"/><path d="M0 16h50v4a4 4 0 0 1-4 4H4a4 4 0 0 1-4-4v-4Z" fill="var(--o-icons-purple-red, #911E3D)"/><path d="M0 16h50v4a4 4 0 0 1-4 4H4a4 4 0 0 1-4-4v-4Z" fill="url(#o_icon_hr_payroll__c)" fill-opacity=".2"/><path d="M41 24a3 3 0 1 1-6 0 3 3 0 0 1 6 0Zm-8 5h5a5 5 0 0 1 5 5h-5a5 5 0 0 1-5-5Z" fill="var(--o-icons-white, #FFFFFF)"/><defs><linearGradient id="o_icon_hr_payroll__a" x1="0" y1="12" x2="53.254" y2="34.189" gradientUnits="userSpaceOnUse"><stop stop-color="#fff"/><stop offset="1" stop-color="#fff" stop-opacity="0"/></linearGradient><linearGradient id="o_icon_hr_payroll__b" x1="0" y1="8" x2="32.475" y2="39.226" gradientUnits="userSpaceOnUse"><stop stop-color="#fff"/><stop offset="1" stop-color="#fff" stop-opacity="0"/></linearGradient><linearGradient id="o_icon_hr_payroll__c" x1="0" y1="16" x2="18.161" y2="44.377" gradientUnits="userSpaceOnUse"><stop stop-color="#fff"/><stop offset="1" stop-color="#fff" stop-opacity="0"/></linearGradient></defs></svg>
