<svg width="50" height="50" xmlns="http://www.w3.org/2000/svg"><g clip-path="url(#o_icon_website_enterprise__a)"><path d="M25 50c13.807 0 25-11.193 25-25a24.9 24.9 0 0 0-2.276-10.435C45.5 12.5 42.07 11 39 11c-13.807 0-28 13.193-28 27 0 3.725 3 8 5.276 10.435A24.947 24.947 0 0 0 25 50Z" fill="var(--o-icons-teal-pure, #00CEB3)"/><path d="M25 50c13.807 0 25-11.193 25-25a24.9 24.9 0 0 0-2.276-10.435C45.5 12.5 42.07 11 39 11c-13.807 0-28 13.193-28 27 0 3.725 3 8 5.276 10.435A24.947 24.947 0 0 0 25 50Z" fill="url(#o_icon_website_enterprise__b)" fill-opacity=".2"/><path d="M16.276 48.435A24.907 24.907 0 0 1 14 38c0-13.807 11.193-25 25-25 3.069 0 6.008.553 8.724 1.565a24.94 24.94 0 0 0-1.594-2.933C42.5 7.5 34.94 3.5 29 3.5c-13.531 0-25 13.469-25 27 0 5.94 4.115 11.388 7.632 15.63a24.912 24.912 0 0 0 4.644 2.305Z" fill="var(--o-icons-teal-teal, #00A079)"/><path d="M16.276 48.435A24.907 24.907 0 0 1 14 38c0-13.807 11.193-25 25-25 3.069 0 6.008.553 8.724 1.565a24.94 24.94 0 0 0-1.594-2.933C42.5 7.5 34.94 3.5 29 3.5c-13.531 0-25 13.469-25 27 0 5.94 4.115 11.388 7.632 15.63a24.912 24.912 0 0 0 4.644 2.305Z" fill="url(#o_icon_website_enterprise__c)" fill-opacity=".2"/><path d="M46.13 11.632C41.697 4.641 33.89 0 25 0 11.193 0 0 11.193 0 25c0 8.89 4.64 16.697 11.632 21.13A24.4 24.4 0 0 1 6 30.5C6 16.969 16.969 6 30.5 6a24.4 24.4 0 0 1 15.63 5.632Z" fill="var(--o-icons-red-teal, #006158)"/><path d="M46.13 11.632C41.697 4.641 33.89 0 25 0 11.193 0 0 11.193 0 25c0 8.89 4.64 16.697 11.632 21.13A24.4 24.4 0 0 1 6 30.5C6 16.969 16.969 6 30.5 6a24.4 24.4 0 0 1 15.63 5.632Z" fill="url(#o_icon_website_enterprise__d)" fill-opacity=".2"/></g><defs><linearGradient id="o_icon_website_enterprise__b" x1="11" y1="11" x2="56.882" y2="22.471" gradientUnits="userSpaceOnUse"><stop stop-color="#fff"/><stop offset="1" stop-color="#fff" stop-opacity="0"/></linearGradient><linearGradient id="o_icon_website_enterprise__c" x1="4" y1="3.5" x2="55.602" y2="16.053" gradientUnits="userSpaceOnUse"><stop stop-color="#fff"/><stop offset="1" stop-color="#fff" stop-opacity="0"/></linearGradient><linearGradient id="o_icon_website_enterprise__d" x1="0" y1="0" x2="54.27" y2="13.568" gradientUnits="userSpaceOnUse"><stop stop-color="#fff"/><stop offset="1" stop-color="#fff" stop-opacity="0"/></linearGradient><clipPath id="o_icon_website_enterprise__a"><path fill="var(--o-icons-white, #FFFFFF)" d="M0 0h50v50H0z"/></clipPath></defs></svg>
