<svg width="50" height="50" viewBox="0 0 50 50" xmlns="http://www.w3.org/2000/svg"><path d="M46 30.5C46 39.06 39.06 46 30.5 46 21.94 46 15 39.06 15 30.5 15 21.94 21.94 15 30.5 15 39.06 15 46 21.94 46 30.5Z" fill="var(--o-icons-cyan-pure, #1BB6F9)"/><path d="M46 30.5C46 39.06 39.06 46 30.5 46 21.94 46 15 39.06 15 30.5 15 21.94 21.94 15 30.5 15 39.06 15 46 21.94 46 30.5Z" fill="url(#o_icon_data_cleaning__a)" fill-opacity=".2"/><path d="M28 16c0 6.627-5.373 12-12 12S4 22.627 4 16 9.373 4 16 4s12 5.373 12 12Z" fill="var(--o-icons-purple-pure, #93407D)"/><path d="M28 16c0 6.627-5.373 12-12 12S4 22.627 4 16 9.373 4 16 4s12 5.373 12 12Z" fill="url(#o_icon_data_cleaning__b)" fill-opacity=".2"/><path d="M16 28c6.628 0 12-5.372 12-12 0-.267-.009-.532-.026-.795-6.537 1.071-11.698 6.232-12.77 12.77.264.016.529.025.796.025Z" fill="var(--o-icons-purple-cyan, #102E7A)"/><path d="M16 28c6.628 0 12-5.372 12-12 0-.267-.009-.532-.026-.795-6.537 1.071-11.698 6.232-12.77 12.77.264.016.529.025.796.025Z" fill="url(#o_icon_data_cleaning__c)" fill-opacity=".3"/><path d="M12.888 9.429c0-1.302-1.094-2.398-2.296-1.9a6 6 0 0 0-3.247 3.247c-.498 1.203.598 2.296 1.899 2.296h.644a3 3 0 0 0 3-3V9.43Z" fill="var(--o-icons-white, #FFFFFF)"/><path d="M46 9a5 5 0 1 1-10 0 5 5 0 0 1 10 0Z" fill="var(--o-icons-purple-pure, #93407D)"/><path d="M46 9a5 5 0 1 1-10 0 5 5 0 0 1 10 0Z" fill="url(#o_icon_data_cleaning__d)" fill-opacity=".2"/><path d="M40 6.178c0-.65-.547-1.199-1.148-.95a3 3 0 0 0-1.624 1.624c-.249.601.3 1.148.95 1.148h.322A1.5 1.5 0 0 0 40 6.5v-.322Z" fill="var(--o-icons-white, #FFFFFF)"/><defs><linearGradient id="o_icon_data_cleaning__a" x1="15" y1="15" x2="51.471" y2="24.118" gradientUnits="userSpaceOnUse"><stop stop-color="#fff"/><stop offset="1" stop-color="#fff" stop-opacity="0"/></linearGradient><linearGradient id="o_icon_data_cleaning__b" x1="4" y1="4" x2="32.235" y2="11.059" gradientUnits="userSpaceOnUse"><stop stop-color="#fff"/><stop offset="1" stop-color="#fff" stop-opacity="0"/></linearGradient><linearGradient id="o_icon_data_cleaning__c" x1="15.205" y1="15.205" x2="30.258" y2="18.968" gradientUnits="userSpaceOnUse"><stop stop-color="#fff"/><stop offset="1" stop-color="#fff" stop-opacity="0"/></linearGradient><linearGradient id="o_icon_data_cleaning__d" x1="36" y1="4" x2="47.765" y2="6.941" gradientUnits="userSpaceOnUse"><stop stop-color="#fff"/><stop offset="1" stop-color="#fff" stop-opacity="0"/></linearGradient></defs></svg>
