<svg width="50" height="50" viewBox="0 0 50 50" xmlns="http://www.w3.org/2000/svg"><path d="M4 37c0-2.208 1.76-4 3.932-4H45.29c0 2.21-1.76 4-3.932 4H4Z" fill="var(--o-icons-cyan-pure, #1BB6F9)"/><path d="M4 37c0-2.208 1.76-4 3.932-4H45.29c0 2.21-1.76 4-3.932 4H4Z" fill="url(#o_icon_sign__a)" fill-opacity=".2"/><path fill-rule="evenodd" clip-rule="evenodd" d="M12.249 11.883c-1.86 2.715-3.519 6.134-4.468 8.451l-3.63-1.538c1.017-2.483 2.8-6.177 4.872-9.2 1.03-1.504 2.198-2.939 3.447-3.969 1.207-.993 2.829-1.883 4.648-1.56 3.606.64 5.297 3.819 6.092 6.525.821 2.793.943 5.864.943 7.664v.017c0 .986 0 2.416-.068 4.083 1.236-.069 2.307.085 3.235.406.188-.387.419-.763.702-1.117 1.01-1.26 2.518-2.026 4.45-2.062 1.727-.032 2.889 1.002 3.646 1.677l.19.168c.823.718 1.822 1.558 3.63 2.314a2.63 2.63 0 0 0 .24-.039c.35-.07.811-.21 1.354-.406.722-.261 1.382-.54 1.995-.799.366-.154.715-.302 1.051-.434L46 25.794c-.182.071-.45.183-.766.316-.683.287-1.595.67-2.386.956-.614.222-1.283.436-1.91.562-.516.103-1.429.245-2.271-.095-2.504-1.008-3.925-2.2-4.92-3.07-1.024-.893-1.106-.887-1.185-.881h-.017c-.868.017-1.252.313-1.475.59-.192.24-.348.58-.447 1.003.22.281.415.573.581.868.299.53.581 1.21.632 1.962.055.812-.171 1.782-.983 2.503a2.16 2.16 0 0 1-1.837.522 2.32 2.32 0 0 1-1.28-.729c-.422-.46-.654-1.04-.787-1.456a8.37 8.37 0 0 1-.36-2.052c-.461-.269-1.31-.58-2.8-.4a4.274 4.274 0 0 1-.018.163c-.377 3.354-1.151 7.172-2.827 10.148-1.524 2.706-3.092 4.93-4.596 6.507-.751.789-1.527 1.459-2.315 1.943-.773.475-1.682.847-2.66.847-1.361 0-3.155-.465-4.2-2.217-.991-1.662-.933-3.89-.134-6.489C8.634 32.103 12.39 26.45 18.47 23.832a23.41 23.41 0 0 1 1.636-.635c.113-1.995.114-3.75.114-4.941 0-1.691-.124-4.293-.778-6.518-.68-2.312-1.691-3.498-3.001-3.73-.147-.026-.614 0-1.497.728-.839.691-1.76 1.782-2.696 3.147Zm7.41 15.787c-4.54 2.105-7.546 6.519-8.867 10.819-.676 2.2-.372 3.027-.257 3.22.061.103.233.292.838.292 0 0 .049-.001.156-.038.112-.038.269-.109.47-.233.411-.252.926-.673 1.526-1.303 1.2-1.26 2.582-3.18 4.007-5.711 1.063-1.888 1.727-4.407 2.127-7.046Z" fill="var(--o-icons-purple-teal, #003458)"/><path fill-rule="evenodd" clip-rule="evenodd" d="M12.249 11.883c-1.86 2.715-3.519 6.134-4.468 8.451l-3.63-1.538c1.017-2.483 2.8-6.177 4.872-9.2 1.03-1.504 2.198-2.939 3.447-3.969 1.207-.993 2.829-1.883 4.648-1.56 3.606.64 5.297 3.819 6.092 6.525.821 2.793.943 5.864.943 7.664v.017c0 .986 0 2.416-.068 4.083 1.236-.069 2.307.085 3.235.406.188-.387.419-.763.702-1.117 1.01-1.26 2.518-2.026 4.45-2.062 1.727-.032 2.889 1.002 3.646 1.677l.19.168c.823.718 1.822 1.558 3.63 2.314a2.63 2.63 0 0 0 .24-.039c.35-.07.811-.21 1.354-.406.722-.261 1.382-.54 1.995-.799.366-.154.715-.302 1.051-.434L46 25.794c-.182.071-.45.183-.766.316-.683.287-1.595.67-2.386.956-.614.222-1.283.436-1.91.562-.516.103-1.429.245-2.271-.095-2.504-1.008-3.925-2.2-4.92-3.07-1.024-.893-1.106-.887-1.185-.881h-.017c-.868.017-1.252.313-1.475.59-.192.24-.348.58-.447 1.003.22.281.415.573.581.868.299.53.581 1.21.632 1.962.055.812-.171 1.782-.983 2.503a2.16 2.16 0 0 1-1.837.522 2.32 2.32 0 0 1-1.28-.729c-.422-.46-.654-1.04-.787-1.456a8.37 8.37 0 0 1-.36-2.052c-.461-.269-1.31-.58-2.8-.4a4.274 4.274 0 0 1-.018.163c-.377 3.354-1.151 7.172-2.827 10.148-1.524 2.706-3.092 4.93-4.596 6.507-.751.789-1.527 1.459-2.315 1.943-.773.475-1.682.847-2.66.847-1.361 0-3.155-.465-4.2-2.217-.991-1.662-.933-3.89-.134-6.489C8.634 32.103 12.39 26.45 18.47 23.832a23.41 23.41 0 0 1 1.636-.635c.113-1.995.114-3.75.114-4.941 0-1.691-.124-4.293-.778-6.518-.68-2.312-1.691-3.498-3.001-3.73-.147-.026-.614 0-1.497.728-.839.691-1.76 1.782-2.696 3.147Zm7.41 15.787c-4.54 2.105-7.546 6.519-8.867 10.819-.676 2.2-.372 3.027-.257 3.22.061.103.233.292.838.292 0 0 .049-.001.156-.038.112-.038.269-.109.47-.233.411-.252.926-.673 1.526-1.303 1.2-1.26 2.582-3.18 4.007-5.711 1.063-1.888 1.727-4.407 2.127-7.046Z" fill="url(#o_icon_sign__b)" fill-opacity=".3"/><defs><linearGradient id="o_icon_sign__a" x1="4" y1="4" x2="53.412" y2="16.353" gradientUnits="userSpaceOnUse"><stop stop-color="#fff"/><stop offset="1" stop-color="#fff" stop-opacity="0"/></linearGradient><linearGradient id="o_icon_sign__b" x1="4" y1="4" x2="53.412" y2="16.353" gradientUnits="userSpaceOnUse"><stop stop-color="#fff"/><stop offset="1" stop-color="#fff" stop-opacity="0"/></linearGradient></defs></svg>
