<svg width="50" height="50" viewBox="0 0 50 50" xmlns="http://www.w3.org/2000/svg"><path d="M48.735 21.367c1.707-1.607 1.721-4.234-.171-5.645a38.54 38.54 0 0 0-9.046-5.004A40.01 40.01 0 0 0 25 8a40.01 40.01 0 0 0-14.518 2.718 38.54 38.54 0 0 0-9.046 5.004c-1.892 1.411-1.878 4.038-.171 5.645l20.643 19.428c1.708 1.607 4.476 1.607 6.183 0l20.644-19.428Z" fill="var(--o-icons-cyan-pure, #1BB6F9)"/><path d="M48.735 21.367c1.707-1.607 1.721-4.234-.171-5.645a38.54 38.54 0 0 0-9.046-5.004A40.01 40.01 0 0 0 25 8a40.01 40.01 0 0 0-14.518 2.718 38.54 38.54 0 0 0-9.046 5.004c-1.892 1.411-1.878 4.038-.171 5.645l20.643 19.428c1.708 1.607 4.476 1.607 6.183 0l20.644-19.428Z" fill="url(#o_icon_iot__a)" fill-opacity=".2"/><path d="M5.49 25.342c10.775-10.14 28.245-10.14 39.02 0L28.092 40.795c-1.708 1.607-4.476 1.607-6.183 0L5.488 25.342Z" fill="var(--o-icons-cyan-cyan, #0382F3)"/><path d="M5.49 25.342c10.775-10.14 28.245-10.14 39.02 0L28.092 40.795c-1.708 1.607-4.476 1.607-6.183 0L5.488 25.342Z" fill="url(#o_icon_iot__b)" fill-opacity=".2"/><path d="M12.806 32.228c6.735-6.337 17.653-6.337 24.388 0l-9.103 8.567c-1.707 1.607-4.475 1.607-6.183 0l-9.102-8.567Z" fill="var(--o-icons-purple-cyan, #102E7A)"/><path d="M12.806 32.228c6.735-6.337 17.653-6.337 24.388 0l-9.103 8.567c-1.707 1.607-4.475 1.607-6.183 0l-9.102-8.567Z" fill="url(#o_icon_iot__c)" fill-opacity=".3"/><defs><linearGradient id="o_icon_iot__a" x1="0" y1="8" x2="55.058" y2="28.242" gradientUnits="userSpaceOnUse"><stop stop-color="#fff"/><stop offset="1" stop-color="#fff" stop-opacity="0"/></linearGradient><linearGradient id="o_icon_iot__b" x1="0" y1="8" x2="55.058" y2="28.242" gradientUnits="userSpaceOnUse"><stop stop-color="#fff"/><stop offset="1" stop-color="#fff" stop-opacity="0"/></linearGradient><linearGradient id="o_icon_iot__c" x1="0" y1="8" x2="55.058" y2="28.242" gradientUnits="userSpaceOnUse"><stop stop-color="#fff"/><stop offset="1" stop-color="#fff" stop-opacity="0"/></linearGradient></defs></svg>
