<svg id="Layer_1" data-name="Layer 1" xmlns="http://www.w3.org/2000/svg" xmlns:xlink="http://www.w3.org/1999/xlink" viewBox="0 0 70 70">
  <defs>
    <mask id="mask" x="0" y="0" width="70" height="70" maskUnits="userSpaceOnUse">
      <g id="b">
        <path id="a" d="M4,0H65c4,0,5,1,5,5V65c0,4-1,5-5,5H4c-3,0-4-1-4-5V5C0,1,1,0,4,0Z" fill="#fff" fill-rule="evenodd"/>
      </g>
    </mask>
    <linearGradient id="linear-gradient" x1="-1704.64" y1="477.94" x2="-1705.64" y2="476.95" gradientTransform="matrix(70, 0, 0, -70, 119394.99, 33455.73)" gradientUnits="userSpaceOnUse">
      <stop offset="0" stop-color="#797c79"/>
      <stop offset="1" stop-color="#545554"/>
    </linearGradient>
  </defs>
  <g mask="url(#mask)">
    <g>
      <path d="M0,0H70V70H0Z" fill-rule="evenodd" fill="url(#linear-gradient)"/>
      <path d="M4,1H65c2.67,0,4.33.67,5,2V0H0V3C.67,1.67,2,1,4,1Z" fill="#fff" fill-opacity="0.38" fill-rule="evenodd"/>
      <path d="M4,69c-2,0-4-.14-4-4V40L23.44,12.61l4.33,1.83,0,8.79,1.14,1.69L38.51,21,37,29.18l10.78-2.89,11.87,3.14,2,3L59,38l-.67,1.34-.39.79L43.5,69Z" fill="#393939" fill-rule="evenodd" opacity="0.32" style="isolation: isolate"/>
      <path d="M4,69H65c2.67,0,4.33-1,5-3v4H0V66A3.92,3.92,0,0,0,4,69Z" fill-opacity="0.38" fill-rule="evenodd"/>
      <g opacity="0.4">
        <path d="M18.15,45.42h-1a.58.58,0,0,0-.36.12.43.43,0,0,0-.14.32v4.81h-3.5a.58.58,0,0,0-.36.12.43.43,0,0,0-.14.32V52a.43.43,0,0,0,.14.32.52.52,0,0,0,.36.12h5a.51.51,0,0,0,.36-.12.37.37,0,0,0,.14-.32V45.86a.37.37,0,0,0-.14-.32A.52.52,0,0,0,18.15,45.42Z"/>
        <path d="M27,43.33a1,1,0,0,0-1.38-.2l-1.27.93a9.84,9.84,0,0,0-2.71-2.3,9.73,9.73,0,0,0-3.52-1.23V39.42h.5a1,1,0,0,0,0-2h-4a1,1,0,1,0,0,2h.5v1.11a9.74,9.74,0,0,0-3.51,1.23A9.85,9.85,0,0,0,8,45.4a10,10,0,0,0,0,10,9.94,9.94,0,0,0,8.65,5,9.8,9.8,0,0,0,5-1.34,9.93,9.93,0,0,0,3.64-3.64,9.71,9.71,0,0,0,1.34-5,9.88,9.88,0,0,0-.94-4.27l1.41-1,0,0a1,1,0,0,0,.17-1.4Zm-4.31,10.6a7.08,7.08,0,0,1-2.55,2.55,7,7,0,0,1-7,0,7,7,0,0,1-2.55-2.55,7,7,0,0,1,2.55-9.57,6.79,6.79,0,0,1,3.51-.94h0a6.9,6.9,0,0,1,3.52.94,7,7,0,0,1,2.54,2.55,7.06,7.06,0,0,1,0,7Z"/>
        <path d="M28.1,36.22C27.84,30.28,31.81,25,37,22.6v-.07c-.75.18-2,.57-3.86,1.18a36,36,0,0,1-4.28,1.21,4.65,4.65,0,0,1-2.62-.16,2.28,2.28,0,0,1-1.41-1.84,3.7,3.7,0,0,1,.09-1.81,6.34,6.34,0,0,1,.65-1.55,6.14,6.14,0,0,0,.64-1.62,4.51,4.51,0,0,0,.05-2,3.76,3.76,0,0,0-1.89-2.75,5,5,0,0,0-3.45-.45,5.6,5.6,0,0,0-3.27,1.78,3.81,3.81,0,0,0-.82,3.39,5.74,5.74,0,0,0,.76,1.95,6.35,6.35,0,0,0,1.11,1.41,9.4,9.4,0,0,1,1.06,1.13,2.81,2.81,0,0,1,.6,1.16A3,3,0,0,1,19.69,26,4,4,0,0,1,17,27.38a40.7,40.7,0,0,1-6,.56l-.54,0-.84,0a2.17,2.17,0,0,1-.44,0l1.39,7.17a14.52,14.52,0,0,1,4.59-.74c4.78,0,8,1.41,10.17,3.39l.44-.1a5.32,5.32,0,0,1,2.49.06C28.18,37.26,28.13,36.74,28.1,36.22Z"/>
        <path d="M57.37,36.44a.21.21,0,0,1,.09.18v5.47a.21.21,0,0,1-.13.19L47.26,46.45a.21.21,0,0,1-.19,0,.22.22,0,0,1-.1-.18V36.18a.22.22,0,0,1,.21-.21.21.21,0,0,1,.17.08l2.24,2.78a.25.25,0,0,0,.27.08l7.32-2.49A.21.21,0,0,1,57.37,36.44Zm3-2.83a.2.2,0,0,1,0,.18.24.24,0,0,1-.14.14l-9.93,3.2a.24.24,0,0,1-.24-.07l-2.78-3.25-.82.21h-.13l-.83-.22-2.78,3.25a.22.22,0,0,1-.24.07l-9.93-3.2a.21.21,0,0,1-.13-.13.18.18,0,0,1,0-.19l2-2.56a.2.2,0,0,1,.12-.08l11.73-3.14a.23.23,0,0,1,.14,0L58.2,31a.26.26,0,0,1,.11.07l2,2.57ZM46.4,33.14,54.8,31l-8.4-2.24L38,31ZM45.66,36a.21.21,0,0,1,.15.19V46.25a.22.22,0,0,1-.1.18.26.26,0,0,1-.21,0L34.87,42.28a.2.2,0,0,1-.13-.19V36.62a.21.21,0,0,1,.09-.18.23.23,0,0,1,.2,0l7.73,2.49a.28.28,0,0,0,.29-.08l2.36-2.78a.24.24,0,0,1,.25-.06Z"/>
      </g>
      <g>
        <path d="M19.64,43.89h-1a.48.48,0,0,0-.36.12.41.41,0,0,0-.14.31v4.82h-3.5a.48.48,0,0,0-.36.12.41.41,0,0,0-.14.31v.88a.41.41,0,0,0,.14.31.53.53,0,0,0,.36.13h5a.53.53,0,0,0,.36-.13.41.41,0,0,0,.14-.31V44.32A.41.41,0,0,0,20,44,.52.52,0,0,0,19.64,43.89Z" fill="#fff"/>
        <path d="M28.52,41.79a1,1,0,0,0-1.38-.19l-1.27.93a10,10,0,0,0-2.71-2.3A9.62,9.62,0,0,0,19.64,39v-1.1h.5a1,1,0,0,0,0-2h-4a1,1,0,0,0,0,2h.5V39a9.62,9.62,0,0,0-3.52,1.24A10,10,0,0,0,9.48,53.91a10,10,0,0,0,3.64,3.64,10.07,10.07,0,0,0,10,0,10.08,10.08,0,0,0,3.64-3.64,10.12,10.12,0,0,0,.4-9.29l1.41-1h0a1,1,0,0,0,.18-1.41ZM24.2,52.4A7,7,0,0,1,21.65,55a7,7,0,0,1-9.57-2.55,7,7,0,0,1,0-7,7,7,0,0,1,2.55-2.54,6.79,6.79,0,0,1,3.51-.94h0a6.88,6.88,0,0,1,3.51.95,7,7,0,0,1,2.55,2.54,7,7,0,0,1,0,7Z" fill="#fff"/>
        <path d="M29.59,34.68c-.27-5.93,3.7-11.21,8.92-13.61V21c-.76.18-2,.57-3.87,1.18a38,38,0,0,1-4.28,1.21,4.65,4.65,0,0,1-2.62-.16,2.28,2.28,0,0,1-1.41-1.84,4,4,0,0,1,.09-1.81A6.66,6.66,0,0,1,27.07,18a5.63,5.63,0,0,0,.64-1.61,4.37,4.37,0,0,0,.06-2,3.76,3.76,0,0,0-1.89-2.75,5,5,0,0,0-3.45-.46A5.62,5.62,0,0,0,19.16,13a3.76,3.76,0,0,0-.82,3.38,5.72,5.72,0,0,0,.75,2,6.36,6.36,0,0,0,1.12,1.41,9.54,9.54,0,0,1,1.06,1.14,2.75,2.75,0,0,1,.6,1.16,3.13,3.13,0,0,1-.69,2.38,4.11,4.11,0,0,1-2.67,1.4,39.08,39.08,0,0,1-6,.57,4,4,0,0,0-.53,0l-.85,0h-.44l1.4,7.17a14.47,14.47,0,0,1,4.59-.74c4.78,0,8,1.4,10.17,3.38l.44-.1a5.41,5.41,0,0,1,2.48.07C29.66,35.73,29.61,35.21,29.59,34.68Z" fill="#fff"/>
        <path d="M58.86,34.91a.22.22,0,0,1,.09.17v5.47a.21.21,0,0,1-.13.2L48.75,44.91a.2.2,0,0,1-.2,0,.2.2,0,0,1-.09-.17V34.65a.21.21,0,0,1,.21-.21.21.21,0,0,1,.16.08l2.24,2.77a.26.26,0,0,0,.27.09l7.33-2.5A.22.22,0,0,1,58.86,34.91Zm3-2.84a.21.21,0,0,1,0,.19.2.2,0,0,1-.14.13l-9.93,3.2a.22.22,0,0,1-.24-.07l-2.78-3.25-.82.22h-.13L47,32.28l-2.78,3.25a.22.22,0,0,1-.24.06L34,32.4a.2.2,0,0,1-.14-.14.22.22,0,0,1,0-.19l2-2.56a.19.19,0,0,1,.12-.07l11.74-3.15h.13l11.74,3.14a.25.25,0,0,1,.12.08l2,2.56ZM47.88,31.6l8.41-2.18-8.41-2.24-8.42,2.24Zm-.74,2.85a.21.21,0,0,1,.15.2V44.72a.19.19,0,0,1-.1.17.21.21,0,0,1-.2,0L36.36,40.75a.22.22,0,0,1-.14-.2V35.08a.2.2,0,0,1,.09-.17.24.24,0,0,1,.2,0l7.74,2.5a.27.27,0,0,0,.28-.09l2.37-2.77a.22.22,0,0,1,.24-.07Z" fill="#fff"/>
      </g>
    </g>
  </g>
</svg>
