<svg width="50" height="50" viewBox="0 0 50 50" xmlns="http://www.w3.org/2000/svg"><path d="m31.134 28.846 7.142-27.613c.251-.934-.71-1.612-1.47-.998L8.352 23.231c-.632.51-.367 1.273.432 1.487l19.863 5.514c1.09.291 2.203-.33 2.487-1.386Z" fill="var(--o-icons-cyan-pure, #1BB6F9)"/><path d="m31.134 28.846 7.142-27.613c.251-.934-.71-1.612-1.47-.998L8.352 23.231c-.632.51-.367 1.273.432 1.487l19.863 5.514c1.09.291 2.203-.33 2.487-1.386Z" fill="url(#o_icon_industry_fsm_stock__a)" fill-opacity=".2"/><path d="m18.867 21.154-7.143 27.613c-.25.934.71 1.612 1.47.998l28.455-22.996c.631-.51.367-1.273-.433-1.487l-19.862-5.513c-1.09-.292-2.203.328-2.487 1.385Z" fill="var(--o-icons-purple-pure, #93407D)"/><path d="m18.867 21.154-7.143 27.613c-.25.934.71 1.612 1.47.998l28.455-22.996c.631-.51.367-1.273-.433-1.487l-19.862-5.513c-1.09-.292-2.203.328-2.487 1.385Z" fill="url(#o_icon_industry_fsm_stock__b)" fill-opacity=".2"/><path d="m32.67 22.91-1.536 5.936c-.284 1.057-1.398 1.677-2.487 1.386L17.331 27.09l1.536-5.937c.284-1.057 1.397-1.677 2.486-1.386L32.67 22.91Z" fill="var(--o-icons-purple-cyan, #102E7A)"/><path d="m32.67 22.91-1.536 5.936c-.284 1.057-1.398 1.677-2.487 1.386L17.331 27.09l1.536-5.937c.284-1.057 1.397-1.677 2.486-1.386L32.67 22.91Z" fill="url(#o_icon_industry_fsm_stock__c)" fill-opacity=".3"/><defs><linearGradient id="o_icon_industry_fsm_stock__a" x1="8" y1="0" x2="43.665" y2="8.92" gradientUnits="userSpaceOnUse"><stop stop-color="#fff"/><stop offset="1" stop-color="#fff" stop-opacity="0"/></linearGradient><linearGradient id="o_icon_industry_fsm_stock__b" x1="11.684" y1="19.697" x2="47.349" y2="28.617" gradientUnits="userSpaceOnUse"><stop stop-color="#fff"/><stop offset="1" stop-color="#fff" stop-opacity="0"/></linearGradient><linearGradient id="o_icon_industry_fsm_stock__c" x1="17.331" y1="19.696" x2="34.288" y2="25.826" gradientUnits="userSpaceOnUse"><stop stop-color="#fff"/><stop offset="1" stop-color="#fff" stop-opacity="0"/></linearGradient></defs></svg>
