<svg id="Layer_1" data-name="Layer 1" xmlns="http://www.w3.org/2000/svg" xmlns:xlink="http://www.w3.org/1999/xlink" viewBox="0 0 70 70">
  <defs>
    <mask id="mask" x="0" y="0" width="70" height="70" maskUnits="userSpaceOnUse">
      <g id="b">
        <path id="a" d="M4,0H65c4,0,5,1,5,5V65c0,4-1,5-5,5H4c-3,0-4-1-4-5V5C0,1,1,0,4,0Z" fill="#fff" fill-rule="evenodd"/>
      </g>
    </mask>
    <linearGradient id="linear-gradient" x1="-1527.21" y1="568.8" x2="-1528.21" y2="567.8" gradientTransform="matrix(70, 0, 0, -70, 106974.99, 39816)" gradientUnits="userSpaceOnUse">
      <stop offset="0" stop-color="#b06161"/>
      <stop offset="0.46" stop-color="#984e4e"/>
      <stop offset="1" stop-color="#7c3838"/>
    </linearGradient>
  </defs>
  <g mask="url(#mask)">
    <g>
      <path d="M0,0H70V70H0Z" fill-rule="evenodd" fill="url(#linear-gradient)"/>
      <path d="M4,1H65c2.67,0,4.33.67,5,2V0H0V3C.67,1.67,2,1,4,1Z" fill="#fff" fill-opacity="0.38" fill-rule="evenodd"/>
      <path d="M4,69a3.66,3.66,0,0,1-4-4V31.05L25.47,12.17,43.29,11,43,16.12c2.66-3,7.89-3,13.53-2.58l.21,14.76,1.7-1.56L59,37.68,48.22,69Z" fill="#393939" fill-rule="evenodd" opacity="0.32" style="isolation: isolate"/>
      <path d="M4,69H65c2.67,0,4.33-1,5-3v4H0V66A3.92,3.92,0,0,0,4,69Z" fill-opacity="0.38" fill-rule="evenodd"/>
      <g>
        <path d="M56.15,28.78A20.41,20.41,0,0,1,57.5,36a20.83,20.83,0,0,1-2.85,10.5L48.5,40.86A13.94,13.94,0,0,0,49.39,36c0-.29,0-.57,0-.85-1,.88-2,1.73-3,2.52A11,11,0,0,1,35.5,46.5a11,11,0,0,1-11-11,10.78,10.78,0,0,1,4.38-8.77,9.05,9.05,0,0,1,2.33-3.48l-.8.25L24.5,17.35a22.37,22.37,0,0,1,15.19-2.44c.87-.76,1.73-1.54,2.64-2.26a24.16,24.16,0,0,0-16.85.79,24,24,0,0,0-13,13,24.33,24.33,0,0,0,0,19,24,24,0,0,0,13,13,24.33,24.33,0,0,0,19,0,24,24,0,0,0,13-13,24.3,24.3,0,0,0,.3-18.29ZM22.5,40.86,16.35,46.5a20.77,20.77,0,0,1,0-21l6.15,5.64a13.71,13.71,0,0,0,0,9.72Zm13,16.64a22.58,22.58,0,0,1-11-2.85l5.91-6.15a15.16,15.16,0,0,0,5.09.89,15,15,0,0,0,5.09-.89l5.91,6.15A22.58,22.58,0,0,1,35.5,57.5Z" fill-rule="evenodd" opacity="0.4" style="isolation: isolate"/>
        <path d="M56.69,28.3A20.61,20.61,0,0,1,57.5,34a20.83,20.83,0,0,1-2.85,10.5L48.5,38.86a13.49,13.49,0,0,0,.83-3.71l-3.57,3.4a11,11,0,0,1-2.48,3.73,11,11,0,0,1-15.56,0A10.59,10.59,0,0,1,24.5,34.5a10.59,10.59,0,0,1,3.22-7.78l.42-.38A4.49,4.49,0,0,1,29.5,23.9l3.18-3a14.91,14.91,0,0,0-2.27.61L24.5,15.35a22.58,22.58,0,0,1,11-2.85,22.28,22.28,0,0,1,5.36.65l1.65-1.57a6.07,6.07,0,0,1,.78-.62,24.3,24.3,0,0,0-17.81.48,24,24,0,0,0-13,13,24.33,24.33,0,0,0,0,19,24,24,0,0,0,13,13,24.33,24.33,0,0,0,19,0,24,24,0,0,0,13-13,24.31,24.31,0,0,0,.83-16.78C57.83,27.27,57.26,27.79,56.69,28.3ZM22.5,38.86,16.35,44.5a20.77,20.77,0,0,1,0-21l6.15,5.64a13.71,13.71,0,0,0,0,9.72Zm13,16.64a22.58,22.58,0,0,1-11-2.85l5.91-6.15a15.16,15.16,0,0,0,5.09.89,15,15,0,0,0,5.09-.89l5.91,6.15A22.58,22.58,0,0,1,35.5,55.5Z" fill="#fff" fill-rule="evenodd"/>
      </g>
      <g>
        <g>
          <path id="e" d="M41.72,38.71a2.13,2.13,0,0,1-1.49-.58l-8.1-7.67A1.94,1.94,0,0,1,31.52,29a1.87,1.87,0,0,1,.61-1.41L43.92,16.47a5,5,0,0,1,1.67-1,5.4,5.4,0,0,1,1.93-.41h6.85a2.1,2.1,0,0,1,1.48.59,1.89,1.89,0,0,1,.63,1.41v6.49A4.63,4.63,0,0,1,56,25.37,4.65,4.65,0,0,1,55,27L43.22,38.13a2.21,2.21,0,0,1-1.5.58ZM51.21,22a2.1,2.1,0,0,0,1.49-.58,1.95,1.95,0,0,0,0-2.83,2.1,2.1,0,0,0-1.49-.58,2.07,2.07,0,0,0-1.49.58,1.92,1.92,0,0,0,0,2.83A2.07,2.07,0,0,0,51.21,22Z" fill="none" stroke="#000" stroke-linecap="round" stroke-linejoin="round" stroke-width="2" opacity="0.4"/>
          <path id="e-2" data-name="e" d="M41.72,37.2a2.08,2.08,0,0,1-1.49-.58L32.13,29a1.92,1.92,0,0,1-.61-1.42,1.83,1.83,0,0,1,.61-1.4L43.92,15a5,5,0,0,1,1.67-1,5.22,5.22,0,0,1,1.93-.42h6.85a2.07,2.07,0,0,1,1.48.6,1.85,1.85,0,0,1,.63,1.4V22A4.59,4.59,0,0,1,56,23.86,4.8,4.8,0,0,1,55,25.46L43.22,36.62a2.16,2.16,0,0,1-1.5.58Zm9.49-16.66A2.11,2.11,0,0,0,52.7,20a1.93,1.93,0,0,0,0-2.82,2.11,2.11,0,0,0-1.49-.59,2,2,0,0,0-1.49.59,1.91,1.91,0,0,0,0,2.82A2.08,2.08,0,0,0,51.21,20.54Z" fill="none" stroke="#fff" stroke-linecap="round" stroke-linejoin="round" stroke-width="2"/>
        </g>
        <g>
          <g opacity="0.4">
            <path id="d" d="M40.29,27.69c.74.74,2.8-1.7,4.21-.29a2,2,0,0,1,.07,2.66l.55.55a.21.21,0,0,1,0,.29l-.49.49a.21.21,0,0,1-.29,0l-.56-.56a3.36,3.36,0,0,1-1.77.64.2.2,0,0,1-.2-.17l-.11-.85a.21.21,0,0,1,.19-.23,2.63,2.63,0,0,0,1.49-.65c.44-.44.39-.89.15-1.12-.68-.69-2.79,1.71-4.24.27a1.93,1.93,0,0,1-.08-2.46l-.59-.59a.21.21,0,0,1,0-.29l.49-.48a.19.19,0,0,1,.28,0l.56.55a3.09,3.09,0,0,1,1.55-.67.22.22,0,0,1,.21.15l.22.79a.21.21,0,0,1-.15.26h0a2.47,2.47,0,0,0-1.26.6C40.1,27,40,27.42,40.29,27.69Z"/>
          </g>
          <path id="e-3" data-name="e" d="M40.29,26.39c.74.74,2.8-1.7,4.21-.3a2,2,0,0,1,.07,2.66l.55.56a.19.19,0,0,1,0,.28l-.49.49a.22.22,0,0,1-.29,0l-.56-.57a3.36,3.36,0,0,1-1.77.64.19.19,0,0,1-.2-.17l-.11-.84a.22.22,0,0,1,.19-.24,2.57,2.57,0,0,0,1.49-.65c.44-.44.39-.88.15-1.12-.68-.68-2.79,1.72-4.24.27A1.93,1.93,0,0,1,39.21,25l-.59-.58a.21.21,0,0,1,0-.29l.49-.49a.2.2,0,0,1,.28,0l.56.56a2.92,2.92,0,0,1,1.55-.67.2.2,0,0,1,.21.14l.22.8a.22.22,0,0,1-.15.26h0a2.32,2.32,0,0,0-1.26.6C40.1,25.68,40,26.11,40.29,26.39Z" fill="#fff"/>
        </g>
      </g>
    </g>
  </g>
</svg>
