<svg width="50" height="50" viewBox="0 0 50 50" fill="none" xmlns="http://www.w3.org/2000/svg"><path d="M49.682 36.753 45.154 19 36 38h12.713a1 1 0 0 0 .969-1.247Z" fill="var(--o-icons-purple-teal, #003458)"/><path d="M49.682 36.753 45.154 19 36 38h12.713a1 1 0 0 0 .969-1.247Z" fill="url(#o_icon_mes__a)" fill-opacity=".3"/><path d="m.567 35.918 11.04-23.95a1 1 0 0 1 .844-.58l35.935-2.285a1 1 0 0 1 .985 1.387L36.366 41.296a1 1 0 0 1-1.055.602l-33.97-4.57a1 1 0 0 1-.774-1.41Z" fill="var(--o-icons-cyan-pure, #1BB6F9)"/><path d="m.567 35.918 11.04-23.95a1 1 0 0 1 .844-.58l35.935-2.285a1 1 0 0 1 .985 1.387L36.366 41.296a1 1 0 0 1-1.055.602l-33.97-4.57a1 1 0 0 1-.774-1.41Z" fill="url(#o_icon_mes__b)" fill-opacity=".2"/><path d="m4.564 33.446 8.53-18.933a1 1 0 0 1 .881-.589l28.476-.876a1 1 0 0 1 .954 1.383l-9.507 22.876a1 1 0 0 1-1.034.61L5.365 34.85a1 1 0 0 1-.8-1.404Z" fill="var(--o-icons-purple-cyan, #102E7A)"/><path d="m4.564 33.446 8.53-18.933a1 1 0 0 1 .881-.589l28.476-.876a1 1 0 0 1 .954 1.383l-9.507 22.876a1 1 0 0 1-1.034.61L5.365 34.85a1 1 0 0 1-.8-1.404Z" fill="url(#o_icon_mes__c)" fill-opacity=".3"/><mask id="o_icon_mes__e" style="mask-type:alpha" maskUnits="userSpaceOnUse" x="0" y="9" width="50" height="28"><path d="m0 37 11.735-26.069L50 9 0 37Z" fill="var(--o-icons-teal-teal, #00A079)"/><path d="m0 37 11.735-26.069L50 9 0 37Z" fill="url(#o_icon_mes__d)" fill-opacity=".2"/></mask><g mask="url(#o_icon_mes__e)"><path d="m.554 35.923 11.05-24.426a1 1 0 0 1 .86-.587l35.944-1.829a1 1 0 0 1 .972 1.388L36.366 41.296a1 1 0 0 1-1.055.602l-33.98-4.572a1 1 0 0 1-.777-1.403Z" fill="var(--o-icons-teal-pure, #00CEB3)"/><path d="m.554 35.923 11.05-24.426a1 1 0 0 1 .86-.587l35.944-1.829a1 1 0 0 1 .972 1.388L36.366 41.296a1 1 0 0 1-1.055.602l-33.98-4.572a1 1 0 0 1-.777-1.403Z" fill="url(#o_icon_mes__f)" fill-opacity=".2"/><path d="m4.564 33.446 8.53-18.933a1 1 0 0 1 .881-.589l28.476-.876a1 1 0 0 1 .954 1.383l-9.507 22.876a1 1 0 0 1-1.034.61L5.365 34.85a1 1 0 0 1-.8-1.404Z" fill="var(--o-icons-red-teal, #006158)"/><path d="m4.564 33.446 8.53-18.933a1 1 0 0 1 .881-.589l28.476-.876a1 1 0 0 1 .954 1.383l-9.507 22.876a1 1 0 0 1-1.034.61L5.365 34.85a1 1 0 0 1-.8-1.404Z" fill="url(#o_icon_mes__g)" fill-opacity=".2"/></g><defs><linearGradient id="o_icon_mes__a" x1="36" y1="19" x2="52.926" y2="22.118" gradientUnits="userSpaceOnUse"><stop stop-color="#fff"/><stop offset="1" stop-color="#fff" stop-opacity="0"/></linearGradient><linearGradient id="o_icon_mes__b" x1="0" y1="9" x2="54.658" y2="29.704" gradientUnits="userSpaceOnUse"><stop stop-color="#fff"/><stop offset="1" stop-color="#fff" stop-opacity="0"/></linearGradient><linearGradient id="o_icon_mes__c" x1="4" y1="13" x2="47.103" y2="30.241" gradientUnits="userSpaceOnUse"><stop stop-color="#fff"/><stop offset="1" stop-color="#fff" stop-opacity="0"/></linearGradient><linearGradient id="o_icon_mes__d" x1="0" y1="9" x2="52.114" y2="32.265" gradientUnits="userSpaceOnUse"><stop stop-color="#fff"/><stop offset="1" stop-color="#fff" stop-opacity="0"/></linearGradient><linearGradient id="o_icon_mes__f" x1="0" y1="9" x2="54.658" y2="29.704" gradientUnits="userSpaceOnUse"><stop stop-color="#fff"/><stop offset="1" stop-color="#fff" stop-opacity="0"/></linearGradient><linearGradient id="o_icon_mes__g" x1="4" y1="13" x2="47.103" y2="30.241" gradientUnits="userSpaceOnUse"><stop stop-color="#fff"/><stop offset="1" stop-color="#fff" stop-opacity="0"/></linearGradient></defs></svg>
