<svg width="50" height="50" viewBox="0 0 50 50" xmlns="http://www.w3.org/2000/svg"><path d="M16.404 16.595a5.955 5.955 0 1 0-9.8-2.153C1.941 22.477 3.05 32.941 9.93 39.82l.043.043 3.94-3.941-.042-.043c-4.782-4.782-5.769-11.923-2.959-17.678a5.95 5.95 0 0 0 5.492-1.606Z" fill="var(--o-icons-red-red, #F9383D)"/><path d="M16.404 16.595a5.955 5.955 0 1 0-9.8-2.153C1.941 22.477 3.05 32.941 9.93 39.82l.043.043 3.94-3.941-.042-.043c-4.782-4.782-5.769-11.923-2.959-17.678a5.95 5.95 0 0 0 5.492-1.606Z" fill="url(#o_icon_account_batch_payment__a)" fill-opacity=".2"/><path d="M9.974 39.862c5.845 5.813 14.258 7.477 21.574 4.993l-4.608-4.608a15.404 15.404 0 0 1-13.026-4.325l-3.94 3.94Z" fill="var(--o-icons-red-pure, #FC787D)"/><path d="M9.974 39.862c5.845 5.813 14.258 7.477 21.574 4.993l-4.608-4.608a15.404 15.404 0 0 1-13.026-4.325l-3.94 3.94Z" fill="url(#o_icon_account_batch_payment__b)" fill-opacity=".2"/><path d="M38.709 31.61a5.955 5.955 0 1 0 4.165 4.027c4.745-8.035 3.678-18.554-3.203-25.473l-3.94 3.94c4.71 4.747 5.702 11.791 2.978 17.507Z" fill="var(--o-icons-cyan-cyan, #0382F3)"/><path d="M38.709 31.61a5.955 5.955 0 1 0 4.165 4.027c4.745-8.035 3.678-18.554-3.203-25.473l-3.94 3.94c4.71 4.747 5.702 11.791 2.978 17.507Z" fill="url(#o_icon_account_batch_payment__c)" fill-opacity=".2"/><path d="m17.847 5.142 4.58 4.58c4.69-.72 9.649.727 13.261 4.34l.043.043 3.94-3.941a17.291 17.291 0 0 0-.042-.043c-5.89-5.89-14.41-7.55-21.782-4.979Z" fill="var(--o-icons-cyan-pure, #1BB6F9)"/><path d="m17.847 5.142 4.58 4.58c4.69-.72 9.649.727 13.261 4.34l.043.043 3.94-3.941a17.291 17.291 0 0 0-.042-.043c-5.89-5.89-14.41-7.55-21.782-4.979Z" fill="url(#o_icon_account_batch_payment__d)" fill-opacity=".2"/><defs><linearGradient id="o_icon_account_batch_payment__a" x1="3.779" y1="6.429" x2="21.535" y2="8.337" gradientUnits="userSpaceOnUse"><stop stop-color="#fff"/><stop offset="1" stop-color="#fff" stop-opacity="0"/></linearGradient><linearGradient id="o_icon_account_batch_payment__b" x1="9.974" y1="35.922" x2="30.91" y2="47.159" gradientUnits="userSpaceOnUse"><stop stop-color="#fff"/><stop offset="1" stop-color="#fff" stop-opacity="0"/></linearGradient><linearGradient id="o_icon_account_batch_payment__c" x1="31.219" y1="10.164" x2="49.203" y2="12.138" gradientUnits="userSpaceOnUse"><stop stop-color="#fff"/><stop offset="1" stop-color="#fff" stop-opacity="0"/></linearGradient><linearGradient id="o_icon_account_batch_payment__d" x1="17.847" y1="3.97" x2="38.997" y2="15.357" gradientUnits="userSpaceOnUse"><stop stop-color="#fff"/><stop offset="1" stop-color="#fff" stop-opacity="0"/></linearGradient></defs></svg>
