<svg width="50" height="50" viewBox="0 0 50 50" xmlns="http://www.w3.org/2000/svg"><path d="M42.678 7.322A25 25 0 0 1 7.322 42.678L42.678 7.322Z" fill="var(--o-icons-purple-pure, #93407D)"/><path d="M42.678 7.322A25 25 0 0 1 7.322 42.678L42.678 7.322Z" fill="url(#o_icon_hr_referral__a)" fill-opacity=".2"/><path d="M7.322 42.678A25 25 0 0 1 42.678 7.322L7.322 42.678Z" fill="var(--o-icons-red-pure, #FC787D)"/><path d="M7.322 42.678A25 25 0 0 1 42.678 7.322L7.322 42.678Z" fill="url(#o_icon_hr_referral__b)" fill-opacity=".2"/><path d="M46 25c0 11.598-9.402 21-21 21S4 36.598 4 25 13.402 4 25 4s21 9.402 21 21Z" fill="var(--o-icons-white, #FFFFFF)"/><path d="M12.98 37.02a17 17 0 1 1 24.04-24.04L12.98 37.02Z" fill="var(--o-icons-red-pure, #FC787D)"/><path d="M12.98 37.02a17 17 0 1 1 24.04-24.04L12.98 37.02Z" fill="url(#o_icon_hr_referral__c)" fill-opacity=".2"/><path d="M37.021 12.98a17.002 17.002 0 0 1-5.515 27.726 17 17 0 0 1-18.527-3.685l24.042-24.042Z" fill="var(--o-icons-purple-pure, #93407D)"/><path d="M37.021 12.98a17.002 17.002 0 0 1-5.515 27.726 17 17 0 0 1-18.527-3.685l24.042-24.042Z" fill="url(#o_icon_hr_referral__d)" fill-opacity=".2"/><path d="M23.477 14.927a1.714 1.714 0 0 1 3.046 0l1.968 3.639c.249.46.679.786 1.177.89l3.928.827c1.335.28 1.863 1.973.941 3.018l-2.712 3.075c-.344.39-.508.916-.45 1.441l.46 4.15c.157 1.41-1.225 2.455-2.463 1.865l-3.645-1.738a1.684 1.684 0 0 0-1.454 0l-3.645 1.738c-1.238.59-2.62-.456-2.463-1.866l.46-4.149a1.871 1.871 0 0 0-.45-1.441L15.463 23.3c-.922-1.045-.394-2.738.94-3.018l3.93-.826c.497-.105.927-.43 1.176-.891l1.968-3.639Z" fill="var(--o-icons-white, #FFFFFF)"/><defs><linearGradient id="o_icon_hr_referral__a" x1="7.322" y1="7.322" x2="57.531" y2="19.875" gradientUnits="userSpaceOnUse"><stop stop-color="#fff"/><stop offset="1" stop-color="#fff" stop-opacity="0"/></linearGradient><linearGradient id="o_icon_hr_referral__b" x1="0" y1="0" x2="50.209" y2="12.552" gradientUnits="userSpaceOnUse"><stop stop-color="#fff"/><stop offset="1" stop-color="#fff" stop-opacity="0"/></linearGradient><linearGradient id="o_icon_hr_referral__c" x1="8" y1="8" x2="42.142" y2="16.535" gradientUnits="userSpaceOnUse"><stop stop-color="#fff"/><stop offset="1" stop-color="#fff" stop-opacity="0"/></linearGradient><linearGradient id="o_icon_hr_referral__d" x1="12.979" y1="12.979" x2="47.122" y2="21.515" gradientUnits="userSpaceOnUse"><stop stop-color="#fff"/><stop offset="1" stop-color="#fff" stop-opacity="0"/></linearGradient></defs></svg>
