<svg width="50" height="50" viewBox="0 0 50 50" xmlns="http://www.w3.org/2000/svg"><path d="M25 9.996v30.009A16.925 16.925 0 0 1 17 42C7.611 42 0 34.389 0 25 0 15.61 7.611 8 17 8c2.892 0 5.616.722 8 1.996Z" fill="var(--o-icons-red-pure, #FC787D)"/><path d="M25 9.996v30.009A16.925 16.925 0 0 1 17 42C7.611 42 0 34.389 0 25 0 15.61 7.611 8 17 8c2.892 0 5.616.722 8 1.996Z" fill="url(#o_icon_account_consolidation__a)" fill-opacity=".2"/><path d="M33 42.001c9.389 0 17-7.611 17-17C50 15.61 42.389 8 33 8c-2.895 0-5.621.724-8.007 2H25v30.005A16.925 16.925 0 0 0 33 42Z" fill="var(--o-icons-cyan-pure, #1BB6F9)"/><path d="M33 42.001c9.389 0 17-7.611 17-17C50 15.61 42.389 8 33 8c-2.895 0-5.621.724-8.007 2H25v30.005A16.925 16.925 0 0 0 33 42Z" fill="url(#o_icon_account_consolidation__b)" fill-opacity=".2"/><path d="M25 40.005c5.356-2.862 9-8.508 9-15.004 0-6.497-3.644-12.143-9-15.005-5.356 2.862-9 8.508-9 15.005 0 6.496 3.644 12.142 9 15.004Z" fill="var(--o-icons-red-cyan, #1B567A)"/><path d="M25 40.005c5.356-2.862 9-8.508 9-15.004 0-6.497-3.644-12.143-9-15.005-5.356 2.862-9 8.508-9 15.005 0 6.496 3.644 12.142 9 15.004Z" fill="url(#o_icon_account_consolidation__c)" fill-opacity=".3"/><defs><linearGradient id="o_icon_account_consolidation__a" x1="0" y1="8" x2="30.229" y2="13.557" gradientUnits="userSpaceOnUse"><stop stop-color="#fff"/><stop offset="1" stop-color="#fff" stop-opacity="0"/></linearGradient><linearGradient id="o_icon_account_consolidation__b" x1="24.993" y1="8" x2="55.229" y2="13.56" gradientUnits="userSpaceOnUse"><stop stop-color="#fff"/><stop offset="1" stop-color="#fff" stop-opacity="0"/></linearGradient><linearGradient id="o_icon_account_consolidation__c" x1="16" y1="9.996" x2="38.005" y2="13.296" gradientUnits="userSpaceOnUse"><stop stop-color="#fff"/><stop offset="1" stop-color="#fff" stop-opacity="0"/></linearGradient></defs></svg>
