<svg width="50" height="50" viewBox="0 0 50 50" xmlns="http://www.w3.org/2000/svg"><g clip-path="url(#o_icon_industry_fsm__a)"><path d="m31.134 28.846 7.142-27.613c.251-.934-.71-1.612-1.47-.998L8.352 23.231c-.632.51-.367 1.273.432 1.487l19.863 5.514c1.09.291 2.203-.33 2.487-1.386Z" fill="var(--o-icons-purple-pure, #93407D)"/><path d="m31.134 28.846 7.142-27.613c.251-.934-.71-1.612-1.47-.998L8.352 23.231c-.632.51-.367 1.273.432 1.487l19.863 5.514c1.09.291 2.203-.33 2.487-1.386Z" fill="url(#o_icon_industry_fsm__b)" fill-opacity=".2"/><path d="m18.867 21.154-7.143 27.613c-.25.934.71 1.612 1.47.998l28.455-22.997c.631-.51.367-1.272-.433-1.486l-19.862-5.514c-1.09-.291-2.203.329-2.487 1.386Z" fill="var(--o-icons-yellow-pure, #FBB130)"/><path d="m18.867 21.154-7.143 27.613c-.25.934.71 1.612 1.47.998l28.455-22.997c.631-.51.367-1.272-.433-1.486l-19.862-5.514c-1.09-.291-2.203.329-2.487 1.386Z" fill="url(#o_icon_industry_fsm__c)" fill-opacity=".2"/><path d="m32.67 22.91-1.536 5.936c-.284 1.057-1.398 1.677-2.487 1.386L17.331 27.09l1.536-5.937c.284-1.057 1.397-1.677 2.486-1.386L32.67 22.91Z" fill="var(--o-icons-red-red, #F9383D)"/><path d="m32.67 22.91-1.536 5.936c-.284 1.057-1.398 1.677-2.487 1.386L17.331 27.09l1.536-5.937c.284-1.057 1.397-1.677 2.486-1.386L32.67 22.91Z" fill="url(#o_icon_industry_fsm__d)" fill-opacity=".2"/></g><defs><linearGradient id="o_icon_industry_fsm__b" x1="8" y1="0" x2="43.665" y2="8.92" gradientUnits="userSpaceOnUse"><stop stop-color="#fff"/><stop offset="1" stop-color="#fff" stop-opacity="0"/></linearGradient><linearGradient id="o_icon_industry_fsm__c" x1="11.684" y1="19.696" x2="47.349" y2="28.616" gradientUnits="userSpaceOnUse"><stop stop-color="#fff"/><stop offset="1" stop-color="#fff" stop-opacity="0"/></linearGradient><linearGradient id="o_icon_industry_fsm__d" x1="17.331" y1="19.696" x2="34.288" y2="25.826" gradientUnits="userSpaceOnUse"><stop stop-color="#fff"/><stop offset="1" stop-color="#fff" stop-opacity="0"/></linearGradient><clipPath id="o_icon_industry_fsm__a"><path fill="var(--o-icons-white, #FFFFFF)" d="M0 0h50v50H0z"/></clipPath></defs></svg>
