<svg id="Layer_1" data-name="Layer 1" xmlns="http://www.w3.org/2000/svg" xmlns:xlink="http://www.w3.org/1999/xlink" viewBox="0 0 70 70">
  <defs>
    <mask id="mask" x="0" y="0" width="70" height="70" maskUnits="userSpaceOnUse">
      <g id="b">
        <path id="a" d="M4,0H65c4,0,5,1,5,5V65c0,4-1,5-5,5H4c-3,0-4-1-4-5V5C0,1,1,0,4,0Z" fill="#fff" fill-rule="evenodd"/>
      </g>
    </mask>
    <linearGradient id="linear-gradient" x1="-909.8" y1="568.8" x2="-910.8" y2="567.81" gradientTransform="matrix(70, 0, 0, -70, 63756, 39816)" gradientUnits="userSpaceOnUse">
      <stop offset="0" stop-color="#797c79"/>
      <stop offset="1" stop-color="#545554"/>
    </linearGradient>
  </defs>
  <g mask="url(#mask)">
    <g>
      <path d="M0,0H70V70H0Z" fill-rule="evenodd" fill="url(#linear-gradient)"/>
      <path d="M4,1H65c2.67,0,4.33.67,5,2V0H0V3C.67,1.67,2,1,4,1Z" fill="#fff" fill-opacity="0.38" fill-rule="evenodd"/>
      <path d="M40.28,69H4c-2,0-4-.14-4-4V28.61L22.5,17.38l7.91,16.18v5.6l9-4.7H50.1l6,5.95V58.54Z" fill="#393939" fill-rule="evenodd" opacity="0.32" style="isolation: isolate"/>
      <path d="M4,69H65c2.67,0,4.33-1,5-3v4H0V66A3.92,3.92,0,0,0,4,69Z" fill-opacity="0.38" fill-rule="evenodd"/>
      <g>
        <g>
          <g opacity="0.4">
            <path id="d" d="M45.09,48.17c0,1.32,4,1,4,3.49A2.51,2.51,0,0,1,46.8,54.1v1a.26.26,0,0,1-.26.25h-.87a.27.27,0,0,1-.27-.25v-1a4.19,4.19,0,0,1-2.14-1,.24.24,0,0,1,0-.33l.66-.85a.26.26,0,0,1,.37,0,3.28,3.28,0,0,0,1.91.75c.78,0,1.14-.45,1.14-.86,0-1.23-4-1-4-3.54a2.42,2.42,0,0,1,2.11-2.28v-1a.26.26,0,0,1,.26-.25h.88a.26.26,0,0,1,.26.25v1a3.8,3.8,0,0,1,2,.79.25.25,0,0,1,.06.31l-.51.91A.26.26,0,0,1,48,48h0a3.07,3.07,0,0,0-1.66-.59C45.55,47.37,45.09,47.69,45.09,48.17Z"/>
          </g>
          <path id="e" d="M45.75,47.39c0,1.32,4,1,4,3.49a2.51,2.51,0,0,1-2.31,2.44v1a.26.26,0,0,1-.26.25h-.87a.26.26,0,0,1-.26-.25v-1a4.22,4.22,0,0,1-2.15-1,.24.24,0,0,1,0-.33l.66-.85a.26.26,0,0,1,.37,0,3.34,3.34,0,0,0,1.92.75c.77,0,1.13-.44,1.13-.86,0-1.22-4-1-4-3.54a2.42,2.42,0,0,1,2.12-2.27v-1a.25.25,0,0,1,.26-.25h.87a.26.26,0,0,1,.26.25v1a3.77,3.77,0,0,1,2,.79.25.25,0,0,1,.06.31L49,47.1a.28.28,0,0,1-.37.1v0a3.13,3.13,0,0,0-1.67-.59C46.22,46.59,45.75,46.91,45.75,47.39Z" fill="#fff"/>
        </g>
        <g>
          <g opacity="0.4">
            <path d="M52.34,61.38H39.63a2.74,2.74,0,0,1-2.74-2.74V39.15a2.74,2.74,0,0,1,2.74-2.74h8.65a2.25,2.25,0,0,1,1.55.63c1.73,1.67,3,2.91,4.47,4.47a2.7,2.7,0,0,1,.77,1.9V58.64A2.74,2.74,0,0,1,52.34,61.38Z" fill="none" stroke="#000" stroke-linecap="round" stroke-linejoin="round" stroke-width="1.5"/>
            <path d="M54.75,43.28l-4.07,0a2.54,2.54,0,0,1-2.7-2.3V36.79" fill="none" stroke="#000" stroke-linecap="round" stroke-linejoin="round" stroke-width="1.5"/>
          </g>
          <g>
            <path d="M53.34,60H40.63a2.74,2.74,0,0,1-2.74-2.74V37.74A2.74,2.74,0,0,1,40.63,35h8.65a2.24,2.24,0,0,1,1.55.62c1.73,1.68,3,2.92,4.47,4.48A2.7,2.7,0,0,1,56.07,42V57.23A2.74,2.74,0,0,1,53.34,60Z" fill="none" stroke="#fff" stroke-linecap="round" stroke-linejoin="round" stroke-width="1.5"/>
            <path d="M55.75,41.87l-4.07,0A2.52,2.52,0,0,1,49,39.53V35.38" fill="none" stroke="#fff" stroke-linecap="round" stroke-linejoin="round" stroke-width="1.5"/>
          </g>
        </g>
      </g>
      <g>
        <g opacity="0.4">
          <path d="M26,17.56h0a9.12,9.12,0,0,0,0,18.23h.19A9.12,9.12,0,0,0,26,17.56Z"/>
          <path d="M34.47,36.09l-2.08-.52a11,11,0,0,1-12.76,0l-4.06,1a5.47,5.47,0,0,0-4.14,5.31V44a2.73,2.73,0,0,0,2.73,2.73H34.47Z"/>
        </g>
        <g>
          <path d="M34.47,34.09l-2.08-.52a11,11,0,0,1-12.76,0l-4.06,1a5.47,5.47,0,0,0-4.14,5.31V42a2.73,2.73,0,0,0,2.73,2.73H34.47Z" fill="#fff"/>
          <path d="M26,15.56h0a9.12,9.12,0,0,0,0,18.23h.19A9.12,9.12,0,0,0,26,15.56Z" fill="#fff"/>
        </g>
      </g>
    </g>
  </g>
</svg>
