<svg id="Layer_1" data-name="Layer 1" xmlns="http://www.w3.org/2000/svg" xmlns:xlink="http://www.w3.org/1999/xlink" viewBox="0 0 70 70">
  <defs>
    <mask id="mask" x="0" y="0" width="70" height="70.03" maskUnits="userSpaceOnUse">
      <g id="b">
        <path id="a" d="M4,0H65c4,0,5,1,5,5V65c0,4-1,5-5,5H4c-3,0-4-1-4-5V5C0,1,1,0,4,0Z" fill="#fff" fill-rule="evenodd"/>
      </g>
    </mask>
    <linearGradient id="linear-gradient" x1="-1615.93" y1="568.8" x2="-1616.93" y2="567.8" gradientTransform="matrix(70, 0, 0, -70, 113184.99, 39816)" gradientUnits="userSpaceOnUse">
      <stop offset="0" stop-color="#cd7690"/>
      <stop offset="1" stop-color="#ca5377"/>
    </linearGradient>
  </defs>
  <g mask="url(#mask)">
    <g>
      <path d="M0,0H70V70H0Z" fill-rule="evenodd" fill="url(#linear-gradient)"/>
      <path d="M4,1H65c2.67,0,4.33.67,5,2V0H0V3C.67,1.7,2,1,4,1Z" fill="#fff" fill-opacity="0.38" fill-rule="evenodd"/>
      <path d="M4,69H65c2.67,0,4.33-1,5-3v4H0V66A3.92,3.92,0,0,0,4,69Z" fill-opacity="0.38" fill-rule="evenodd"/>
      <path d="M47,69H4a3.66,3.66,0,0,1-4-4V29.11L26.5,11.62l17.86-.24.16,3,4.63-1.72,12.58,3.88,3.12,3-3.12,6.71v2.5l-2.26,4.12-1.42,9.39Z" fill="#393939" fill-rule="evenodd" opacity="0.33" style="isolation: isolate"/>
      <g>
        <path d="M58.75,35a13.93,13.93,0,0,1-1.27.67c0,.15,0,.3,0,.45a20.83,20.83,0,0,1-2.85,10.5L48.5,41A11.86,11.86,0,0,0,49,39.21l-2.65-.94A11,11,0,0,1,35.5,47.62a11,11,0,0,1-11-11,10.59,10.59,0,0,1,3.22-7.78,9.7,9.7,0,0,1,5.85-3.08v-.51l-2-2a11.1,11.1,0,0,0-1.13.4L24.5,17.47a22.58,22.58,0,0,1,11-2.85,19.66,19.66,0,0,1,4.2.35c1.55-.48,3.11-1,4.66-1.48a24.34,24.34,0,0,0-18.88.07,24,24,0,0,0-13,13,24.3,24.3,0,0,0,0,19,24.1,24.1,0,0,0,13,13,24.33,24.33,0,0,0,19,0,24.1,24.1,0,0,0,13-13,24,24,0,0,0,1.94-9.51c0-.51,0-1,0-1.52ZM22.5,41l-6.15,5.65a20.77,20.77,0,0,1,0-21l6.15,5.64a13.69,13.69,0,0,0,0,9.71Zm13,16.65a22.48,22.48,0,0,1-11-2.86l5.91-6.14a15.16,15.16,0,0,0,10.18,0l5.91,6.14A22.48,22.48,0,0,1,35.5,57.62Z" fill-rule="evenodd" opacity="0.4"/>
        <path d="M57.48,33.55c0,.15,0,.3,0,.45a20.83,20.83,0,0,1-2.85,10.5L48.5,38.86A12.61,12.61,0,0,0,49,37.1l-2.65-1A11,11,0,0,1,35.5,45.5a11,11,0,0,1-11-11,10.59,10.59,0,0,1,3.22-7.78,9.7,9.7,0,0,1,5.85-3.08v-.51l-2-2c-.29.08-.54.19-1.13.4L24.5,15.35a22.58,22.58,0,0,1,11-2.85,19.66,19.66,0,0,1,4.2.35l4.66-1.47a24.28,24.28,0,0,0-18.88.06,24,24,0,0,0-13,13,24.33,24.33,0,0,0,0,19,24,24,0,0,0,13,13,24.33,24.33,0,0,0,19,0,24,24,0,0,0,13-13A24,24,0,0,0,59.5,34c0-.51,0-.61,0-1.11A19,19,0,0,0,57.48,33.55Zm-35,5.31L16.35,44.5a20.77,20.77,0,0,1,0-21l6.15,5.64a13.71,13.71,0,0,0,0,9.72Zm13,16.64a22.58,22.58,0,0,1-11-2.85l5.91-6.15a15.16,15.16,0,0,0,5.09.89,15,15,0,0,0,5.09-.89l5.91,6.15A22.58,22.58,0,0,1,35.5,55.5Z" fill="#fff" fill-rule="evenodd"/>
      </g>
      <g>
        <path d="M61.63,23.71a.23.23,0,0,1,.1.2v6.18a.25.25,0,0,1-.14.22L50.21,35A.2.2,0,0,1,50,35a.23.23,0,0,1-.11-.2V23.42a.24.24,0,0,1,.42-.15l2.54,3.14a.27.27,0,0,0,.3.09l8.28-2.82A.26.26,0,0,1,61.63,23.71ZM65,20.51a.2.2,0,0,1,0,.21.22.22,0,0,1-.16.15L53.64,24.48a.23.23,0,0,1-.27-.07l-3.14-3.67L49.3,21h-.15l-.93-.24-3.14,3.67a.25.25,0,0,1-.27.08L33.59,20.88a.24.24,0,0,1-.15-.16.23.23,0,0,1,0-.21l2.29-2.89a.2.2,0,0,1,.13-.09L49.15,14a.38.38,0,0,1,.15,0l13.26,3.56a.22.22,0,0,1,.13.08L65,20.51ZM49.23,20l9.5-2.47L49.23,15l-9.51,2.53ZM48.4,23.2a.23.23,0,0,1,.17.22V34.8a.24.24,0,0,1-.12.19.21.21,0,0,1-.23,0l-12-4.7a.23.23,0,0,1-.15-.22V23.91a.26.26,0,0,1,.1-.2.31.31,0,0,1,.23,0l8.73,2.82a.31.31,0,0,0,.33-.09l2.67-3.14a.25.25,0,0,1,.28-.07Z" opacity="0.4" style="isolation: isolate"/>
        <path d="M61.63,22.4a.21.21,0,0,1,.1.19v6.18a.24.24,0,0,1-.14.22L50.21,33.7a.24.24,0,0,1-.33-.22V22.1a.23.23,0,0,1,.24-.23.21.21,0,0,1,.18.09l2.54,3.13a.27.27,0,0,0,.3.09l8.28-2.81A.2.2,0,0,1,61.63,22.4ZM65,19.19a.2.2,0,0,1,0,.21.23.23,0,0,1-.16.16L53.64,23.17a.25.25,0,0,1-.27-.08l-3.14-3.67-.93.24h-.15l-.93-.25L45.08,23.1a.27.27,0,0,1-.27.07L33.59,19.56a.23.23,0,0,1-.15-.15.24.24,0,0,1,0-.22l2.29-2.89a.3.3,0,0,1,.13-.09l13.26-3.55h.15l13.26,3.55a.3.3,0,0,1,.13.09L65,19.19Zm-15.74-.53,9.5-2.47-9.5-2.53L39.72,16.2Zm-.83,3.22a.23.23,0,0,1,.17.22V33.48a.25.25,0,0,1-.12.2.26.26,0,0,1-.23,0L36.21,29a.23.23,0,0,1-.15-.22V22.59a.23.23,0,0,1,.1-.19.24.24,0,0,1,.23,0l8.73,2.81a.31.31,0,0,0,.33-.09L48.12,22a.27.27,0,0,1,.28-.08Z" fill="#fff"/>
      </g>
    </g>
  </g>
</svg>
