<svg id="Layer_1" data-name="Layer 1" xmlns="http://www.w3.org/2000/svg" xmlns:xlink="http://www.w3.org/1999/xlink" viewBox="0 0 70 70">
  <defs>
    <mask id="mask" x="0" y="0" width="70" height="70" maskUnits="userSpaceOnUse">
      <g id="b">
        <path id="a" d="M4,0H65c4,0,5,1,5,5V65c0,4-1,5-5,5H4c-3,0-4-1-4-5V5C0,1,1,0,4,0Z" fill="#fff" fill-rule="evenodd"/>
      </g>
    </mask>
    <linearGradient id="linear-gradient" x1="-1261.07" y1="568.8" x2="-1262.07" y2="567.8" gradientTransform="matrix(70, 0, 0, -70, 88344.99, 39816)" gradientUnits="userSpaceOnUse">
      <stop offset="0" stop-color="#da956b"/>
      <stop offset="1" stop-color="#cc7039"/>
    </linearGradient>
  </defs>
  <g mask="url(#mask)">
    <g>
      <path d="M0,0H70V70H0Z" fill-rule="evenodd" fill="url(#linear-gradient)"/>
      <path d="M4,1H65c2.67,0,4.33.67,5,2V0H0V3C.67,1.67,2,1,4,1Z" fill="#fff" fill-opacity="0.38" fill-rule="evenodd"/>
      <path d="M42.87,69H4a3.66,3.66,0,0,1-4-4V28.82L32.84,9.6v3.06l3.33-5.1H50.12l8.3,6,.87,22-1.81,5.56h.94Z" fill="#393939" fill-rule="evenodd" opacity="0.32" style="isolation: isolate"/>
      <path d="M4,69H65c2.67,0,4.33-1,5-3v4H0V66A3.92,3.92,0,0,0,4,69Z" fill-opacity="0.38" fill-rule="evenodd"/>
      <g>
        <path d="M56.84,41.17a21.81,21.81,0,0,1-2.19,5.33l-5.81-5.33h-3.9a11.66,11.66,0,0,1-1.66,2.11,11,11,0,0,1-15.56,0,11,11,0,0,1,0-15.56,10.64,10.64,0,0,1,5.12-2.91v-2a15.84,15.84,0,0,0-2.43.65L24.5,17.35a22.79,22.79,0,0,1,8.34-2.69V11.6a24.12,24.12,0,0,0-7.36,1.84,24,24,0,0,0-13,13,24.33,24.33,0,0,0,0,19,24,24,0,0,0,13,13,24.33,24.33,0,0,0,19,0,24,24,0,0,0,13-13A25.29,25.29,0,0,0,59,41.17ZM22.5,40.86,16.35,46.5a20.77,20.77,0,0,1,0-21l6.15,5.64a13.71,13.71,0,0,0,0,9.72Zm13,16.64a22.58,22.58,0,0,1-11-2.85l5.91-6.15a15.16,15.16,0,0,0,5.09.89,15,15,0,0,0,5.09-.89l5.91,6.15A22.58,22.58,0,0,1,35.5,57.5Z" fill-rule="evenodd" opacity="0.4" style="isolation: isolate"/>
        <path d="M56.2,41.17a22.72,22.72,0,0,1-1.55,3.33L51,41.17H44.24a12.29,12.29,0,0,1-1,1.11,11,11,0,0,1-15.56,0A10.59,10.59,0,0,1,24.5,34.5a11,11,0,0,1,8.34-10.69v-3a15.84,15.84,0,0,0-2.43.65L24.5,15.35a22.79,22.79,0,0,1,8.34-2.69V9.6a24.12,24.12,0,0,0-7.36,1.84,24,24,0,0,0-13,13,24.33,24.33,0,0,0,0,19,24,24,0,0,0,13,13,24.33,24.33,0,0,0,19,0,24,24,0,0,0,13-13,23.75,23.75,0,0,0,.86-2.35ZM22.5,38.86,16.35,44.5a20.77,20.77,0,0,1,0-21l6.15,5.64a13.71,13.71,0,0,0,0,9.72Zm13,16.64a22.58,22.58,0,0,1-11-2.85l5.91-6.15a15.16,15.16,0,0,0,5.09.89,15,15,0,0,0,5.09-.89l5.91,6.15A22.58,22.58,0,0,1,35.5,55.5Z" fill="#fff" fill-rule="evenodd"/>
      </g>
      <g>
        <g opacity="0.4">
          <path id="d" d="M59.29,14.73V37a1.19,1.19,0,0,1-1.35,1.34H37.06A1.19,1.19,0,0,1,35.71,37V10a1.19,1.19,0,0,1,1.35-1.34H50.64ZM50.53,10V15.4h7.41Zm7.41,27V16.75l-7.3.07a1.49,1.49,0,0,1-1.46-1.42V10H37.06V37ZM45.88,23.75c0,1.69,5.48,1.26,5.48,4.48a3.3,3.3,0,0,1-3.15,3.14v1.28a.34.34,0,0,1-.36.32H46.67a.34.34,0,0,1-.36-.32v-1.3a5.9,5.9,0,0,1-2.93-1.29.3.3,0,0,1,0-.43h0l.9-1.09a.37.37,0,0,1,.51-.06,4.68,4.68,0,0,0,2.61,1c1.06,0,1.55-.58,1.55-1.11,0-1.58-5.49-1.24-5.49-4.56,0-1.42,1.15-2.57,2.89-2.93V19.51a.34.34,0,0,1,.36-.32h1.18a.34.34,0,0,1,.36.32v1.27a5.34,5.34,0,0,1,2.71,1,.29.29,0,0,1,.08.39l-.7,1.18a.37.37,0,0,1-.52.1,4.37,4.37,0,0,0-2.27-.76c-1,0-1.63.41-1.63,1Z"/>
        </g>
        <path id="e" d="M59.29,13.38V35.61A1.19,1.19,0,0,1,57.94,37H37.06a1.19,1.19,0,0,1-1.35-1.35V8.67a1.19,1.19,0,0,1,1.35-1.35H50.53C51.88,8,57.27,12,59.29,13.38Zm-8.76-4v4.72h6.74Zm6.74,25.6V16.08H50.53a1.79,1.79,0,0,1-2-2V9.34H37.73v25.6ZM45.88,22.4c0,1.69,5.48,1.26,5.48,4.49A3.3,3.3,0,0,1,48.21,30V31.3a.34.34,0,0,1-.36.32H46.67a.34.34,0,0,1-.36-.32V30a5.9,5.9,0,0,1-2.93-1.29.29.29,0,0,1,0-.42h0l.9-1.09a.38.38,0,0,1,.51-.06,4.68,4.68,0,0,0,2.61,1c1.06,0,1.55-.58,1.55-1.11,0-1.58-5.49-1.24-5.49-4.56,0-1.42,1.15-2.57,2.89-2.93V18.16a.34.34,0,0,1,.36-.32h1.18a.34.34,0,0,1,.36.32v1.27a5.34,5.34,0,0,1,2.71,1,.3.3,0,0,1,.08.4L50.3,22a.38.38,0,0,1-.52.11,4.38,4.38,0,0,0-2.27-.77C46.52,21.36,45.88,21.77,45.88,22.4Z" fill="#fff"/>
      </g>
    </g>
  </g>
</svg>
