<svg id="Layer_1" data-name="Layer 1" xmlns="http://www.w3.org/2000/svg" xmlns:xlink="http://www.w3.org/1999/xlink" viewBox="0 0 70 70">
  <defs>
    <mask id="mask" x="0" y="0" width="70" height="70" maskUnits="userSpaceOnUse">
      <g id="icon-b">
        <path id="icon-a" d="M4,0H65c4,0,5,1,5,5V65c0,4-1,5-5,5H4c-3,0-4-1-4-5V5C0,1,1,0,4,0Z" fill="#fff" fill-rule="evenodd"/>
      </g>
    </mask>
    <linearGradient id="linear-gradient" x1="-1704.64" y1="568.8" x2="-1705.64" y2="567.8" gradientTransform="matrix(70, 0, 0, -70, 119394.99, 39816)" gradientUnits="userSpaceOnUse">
      <stop offset="0" stop-color="#94b6c8"/>
      <stop offset="1" stop-color="#6a9eba"/>
    </linearGradient>
  </defs>
  <g mask="url(#mask)">
    <g>
      <path d="M0,0H70V70H0Z" fill-rule="evenodd" fill="url(#linear-gradient)"/>
      <path d="M4,1H65c2.67,0,4.33.67,5,2V0H0V3C.67,1.67,2,1,4,1Z" fill="#fff" fill-opacity="0.38" fill-rule="evenodd"/>
      <path d="M4,69H65c2.67,0,4.33-1,5-3v4H0V66A3.92,3.92,0,0,0,4,69Z" fill-opacity="0.38" fill-rule="evenodd"/>
      <path d="M4,69c-2,0-4-.7-4-4.69V37.56L23.7,13.29l16.79-3.16v5l4.63-5.64h6.16l-.48,4.93L58.92,16l-.64,8.56L56,36l3.26-3.27L57,44.78,38.48,69Z" fill="#393939" fill-rule="evenodd" opacity="0.32" style="isolation: isolate"/>
      <g>
        <path d="M57.44,34.5q.06.75.06,1.5a20.83,20.83,0,0,1-2.85,10.5L48.5,40.86A13.67,13.67,0,0,0,49.23,38c-.45,0-.89.07-1.34.07A15.25,15.25,0,0,1,46.23,38,11,11,0,0,1,35.5,46.5a11,11,0,0,1-11-11,11,11,0,0,1,8.56-10.74c-.08-.56-.14-1.13-.17-1.71a1.47,1.47,0,0,0,0-.21,15.38,15.38,0,0,0-2.48.66L24.5,17.35a22.58,22.58,0,0,1,11-2.85h.1a15.62,15.62,0,0,1,2.61-2.78A24.26,24.26,0,0,0,35,11.5a24,24,0,0,0-9.52,1.94,24,24,0,0,0-13,13,24.33,24.33,0,0,0,0,19,24,24,0,0,0,13,13,24.33,24.33,0,0,0,19,0,24,24,0,0,0,13-13A24,24,0,0,0,59.5,36a25.41,25.41,0,0,0-.22-3.27A17.1,17.1,0,0,1,57.44,34.5ZM22.5,40.86,16.35,46.5a20.77,20.77,0,0,1,0-21l6.15,5.64a13.71,13.71,0,0,0,0,9.72Zm13,16.64a22.58,22.58,0,0,1-11-2.85l5.91-6.15a15.16,15.16,0,0,0,5.09.89,15,15,0,0,0,5.09-.89l5.91,6.15A22.58,22.58,0,0,1,35.5,57.5Z" fill-rule="evenodd" opacity="0.4" style="isolation: isolate"/>
        <path d="M57.48,34.46a20.75,20.75,0,0,1-2.83,10L48.5,38.86c.11-.28.19-.57.28-.85-.3,0-.59,0-.89,0A14.94,14.94,0,0,1,46,37.92a10.8,10.8,0,0,1-2.7,4.36,11,11,0,0,1-15.56,0A10.59,10.59,0,0,1,24.5,34.5,11,11,0,0,1,33,23.79c0-.25-.06-.49-.07-.74A12.61,12.61,0,0,1,33,20.83a14.82,14.82,0,0,0-2.6.67L24.5,15.35a22.58,22.58,0,0,1,11-2.85c.59,0,1.18,0,1.76.07a16.13,16.13,0,0,1,3.23-2.44,24.29,24.29,0,0,0-15,1.31,24,24,0,0,0-13,13,24.33,24.33,0,0,0,0,19,24,24,0,0,0,13,13,24.33,24.33,0,0,0,19,0,24,24,0,0,0,13-13A24,24,0,0,0,59.5,34c0-.49,0-1,0-1.46A14.31,14.31,0,0,1,57.48,34.46Zm-35,4.4L16.35,44.5a20.77,20.77,0,0,1,0-21l6.15,5.64a13.71,13.71,0,0,0,0,9.72Zm13,16.64a22.58,22.58,0,0,1-11-2.85l5.91-6.15a15.16,15.16,0,0,0,5.09.89,15,15,0,0,0,5.09-.89l5.91,6.15A22.58,22.58,0,0,1,35.5,55.5Z" fill="#fff" fill-rule="evenodd"/>
      </g>
      <g>
        <path d="M49.69,18.81V25a.41.41,0,0,1-.12.31.44.44,0,0,1-.31.13H44.87a.44.44,0,0,1-.31-.13.41.41,0,0,1-.12-.31v-.88a.41.41,0,0,1,.12-.31.4.4,0,0,1,.31-.13h3.07V18.81a.41.41,0,0,1,.12-.31.46.46,0,0,1,.32-.13h.88a.44.44,0,0,1,.31.13A.41.41,0,0,1,49.69,18.81Zm5.7,4.82a7.28,7.28,0,0,0-1-3.74,7.49,7.49,0,0,0-2.71-2.71,7.49,7.49,0,0,0-7.48,0,7.49,7.49,0,0,0-2.71,2.71,7.49,7.49,0,0,0,0,7.48,7.41,7.41,0,0,0,2.71,2.71,7.49,7.49,0,0,0,7.48,0,7.41,7.41,0,0,0,2.71-2.71A7.25,7.25,0,0,0,55.39,23.63Zm.52-6.87,1.36-1a.51.51,0,0,1,.72.1l.93,1.23a.52.52,0,0,1-.1.72l-1.48,1.11a10.59,10.59,0,0,1-.29,10,10.5,10.5,0,0,1-3.83,3.83,10.59,10.59,0,0,1-10.56,0,10.5,10.5,0,0,1-3.83-3.83,10.59,10.59,0,0,1,0-10.56,10.47,10.47,0,0,1,3.83-3.82,10.09,10.09,0,0,1,4-1.34v-1.1h-1a.51.51,0,0,1-.51-.51v-1a.51.51,0,0,1,.51-.51h5.13a.51.51,0,0,1,.52.51v1a.51.51,0,0,1-.52.51h-1v1.17a10.57,10.57,0,0,1,6.17,3.5Z" fill-rule="evenodd" opacity="0.4" style="isolation: isolate"/>
        <path d="M49.69,17.79v6.13a.45.45,0,0,1-.12.32.43.43,0,0,1-.31.12H44.87a.43.43,0,0,1-.31-.12.45.45,0,0,1-.12-.32v-.87a.44.44,0,0,1,.12-.32.43.43,0,0,1,.31-.12h3.07V17.79a.44.44,0,0,1,.12-.32.45.45,0,0,1,.32-.12h.88a.43.43,0,0,1,.31.12A.44.44,0,0,1,49.69,17.79Zm5.7,4.82a7.25,7.25,0,0,0-1-3.74,7.41,7.41,0,0,0-2.71-2.71,7.49,7.49,0,0,0-7.48,0,7.41,7.41,0,0,0-2.71,2.71,7.49,7.49,0,0,0,0,7.48,7.49,7.49,0,0,0,2.71,2.71,7.49,7.49,0,0,0,7.48,0,7.49,7.49,0,0,0,2.71-2.71A7.28,7.28,0,0,0,55.39,22.61Zm.52-6.88,1.36-1a.51.51,0,0,1,.72.11L58.92,16a.52.52,0,0,1-.1.72l-1.48,1.11a10.61,10.61,0,0,1-.29,10,10.47,10.47,0,0,1-3.83,3.82,10.59,10.59,0,0,1-10.56,0,10.47,10.47,0,0,1-3.83-3.82,10.59,10.59,0,0,1,0-10.56,10.5,10.5,0,0,1,3.83-3.83,10.25,10.25,0,0,1,4-1.34v-1.1h-1a.51.51,0,0,1-.51-.51v-1A.51.51,0,0,1,45.63,9h5.13a.51.51,0,0,1,.52.51v1a.51.51,0,0,1-.52.51h-1v1.18a10,10,0,0,1,3.48,1.26A10.4,10.4,0,0,1,55.91,15.73Z" fill="#fff" fill-rule="evenodd"/>
      </g>
    </g>
  </g>
</svg>
