<svg width="50" height="50" viewBox="0 0 50 50" xmlns="http://www.w3.org/2000/svg"><path d="M0 8c2.626 0 5.227.44 7.654 1.294 2.426.854 4.631 2.107 6.488 3.685 1.857 1.579 3.33 3.453 4.336 5.515A14.816 14.816 0 0 1 20 25c0 2.233-.517 4.443-1.522 6.506-1.006 2.062-2.479 3.936-4.336 5.515-1.857 1.578-4.062 2.83-6.488 3.685A23.1 23.1 0 0 1 0 42V8Z" fill="var(--o-icons-purple-pure, #93407D)"/><path d="M0 8c2.626 0 5.227.44 7.654 1.294 2.426.854 4.631 2.107 6.488 3.685 1.857 1.579 3.33 3.453 4.336 5.515A14.816 14.816 0 0 1 20 25c0 2.233-.517 4.443-1.522 6.506-1.006 2.062-2.479 3.936-4.336 5.515-1.857 1.578-4.062 2.83-6.488 3.685A23.1 23.1 0 0 1 0 42V8Z" fill="url(#o_icon_mrp_plm__a)" fill-opacity=".2"/><path d="M15 8c2.626 0 5.227.44 7.654 1.294 2.426.854 4.631 2.107 6.488 3.685 1.857 1.579 3.33 3.453 4.336 5.515A14.816 14.816 0 0 1 35 25c0 2.233-.517 4.443-1.522 6.506-1.006 2.062-2.479 3.936-4.336 5.515-1.857 1.578-4.062 2.83-6.488 3.685A23.1 23.1 0 0 1 15 42V8Z" fill="var(--o-icons-cyan-pure, #1BB6F9)"/><path d="M15 8c2.626 0 5.227.44 7.654 1.294 2.426.854 4.631 2.107 6.488 3.685 1.857 1.579 3.33 3.453 4.336 5.515A14.816 14.816 0 0 1 35 25c0 2.233-.517 4.443-1.522 6.506-1.006 2.062-2.479 3.936-4.336 5.515-1.857 1.578-4.062 2.83-6.488 3.685A23.1 23.1 0 0 1 15 42V8Z" fill="url(#o_icon_mrp_plm__b)" fill-opacity=".2"/><path d="M15 13.756c1.457 1.404 2.633 3.005 3.478 4.739A14.816 14.816 0 0 1 20 25c0 2.233-.517 4.443-1.522 6.506-.845 1.734-2.021 3.335-3.478 4.739v-22.49Z" fill="var(--o-icons-purple-cyan, #102E7A)"/><path d="M15 13.756c1.457 1.404 2.633 3.005 3.478 4.739A14.816 14.816 0 0 1 20 25c0 2.233-.517 4.443-1.522 6.506-.845 1.734-2.021 3.335-3.478 4.739v-22.49Z" fill="url(#o_icon_mrp_plm__c)" fill-opacity=".3"/><path d="M30 8c2.626 0 5.227.44 7.654 1.294 2.426.854 4.631 2.107 6.488 3.685 1.857 1.579 3.33 3.453 4.336 5.515A14.816 14.816 0 0 1 50 25c0 2.233-.517 4.443-1.522 6.506-1.006 2.062-2.479 3.936-4.336 5.515-1.857 1.578-4.062 2.83-6.488 3.685A23.1 23.1 0 0 1 30 42V8Z" fill="var(--o-icons-red-pure, #FC787D)"/><path d="M30 8c2.626 0 5.227.44 7.654 1.294 2.426.854 4.631 2.107 6.488 3.685 1.857 1.579 3.33 3.453 4.336 5.515A14.816 14.816 0 0 1 50 25c0 2.233-.517 4.443-1.522 6.506-1.006 2.062-2.479 3.936-4.336 5.515-1.857 1.578-4.062 2.83-6.488 3.685A23.1 23.1 0 0 1 30 42V8Z" fill="url(#o_icon_mrp_plm__d)" fill-opacity=".2"/><path d="M30 13.756c1.457 1.404 2.633 3.005 3.478 4.739A14.816 14.816 0 0 1 35 25c0 2.233-.517 4.443-1.522 6.506-.845 1.734-2.021 3.335-3.478 4.739v-22.49Z" fill="var(--o-icons-red-cyan, #1B567A)"/><path d="M30 13.756c1.457 1.404 2.633 3.005 3.478 4.739A14.816 14.816 0 0 1 35 25c0 2.233-.517 4.443-1.522 6.506-.845 1.734-2.021 3.335-3.478 4.739v-22.49Z" fill="url(#o_icon_mrp_plm__e)" fill-opacity=".3"/><defs><linearGradient id="o_icon_mrp_plm__a" x1="0" y1="8" x2="24.471" y2="11.599" gradientUnits="userSpaceOnUse"><stop stop-color="#fff"/><stop offset="1" stop-color="#fff" stop-opacity="0"/></linearGradient><linearGradient id="o_icon_mrp_plm__b" x1="15" y1="8" x2="39.471" y2="11.599" gradientUnits="userSpaceOnUse"><stop stop-color="#fff"/><stop offset="1" stop-color="#fff" stop-opacity="0"/></linearGradient><linearGradient id="o_icon_mrp_plm__c" x1="15" y1="13.756" x2="21.231" y2="14.102" gradientUnits="userSpaceOnUse"><stop stop-color="#fff"/><stop offset="1" stop-color="#fff" stop-opacity="0"/></linearGradient><linearGradient id="o_icon_mrp_plm__d" x1="30" y1="8" x2="54.471" y2="11.599" gradientUnits="userSpaceOnUse"><stop stop-color="#fff"/><stop offset="1" stop-color="#fff" stop-opacity="0"/></linearGradient><linearGradient id="o_icon_mrp_plm__e" x1="30" y1="13.756" x2="36.231" y2="14.102" gradientUnits="userSpaceOnUse"><stop stop-color="#fff"/><stop offset="1" stop-color="#fff" stop-opacity="0"/></linearGradient></defs>
</svg>
