<svg id="Layer_1" data-name="Layer 1" xmlns="http://www.w3.org/2000/svg" xmlns:xlink="http://www.w3.org/1999/xlink" viewBox="0 0 70 70">
  <defs>
    <mask id="mask" x="0" y="0" width="70" height="70" maskUnits="userSpaceOnUse">
      <g id="b">
        <path id="a" d="M4,0H65c4,0,5,1,5,5V65c0,4-1,5-5,5H4c-3,0-4-1-4-5V5C0,1,1,0,4,0Z" fill="#fff" fill-rule="evenodd"/>
      </g>
    </mask>
    <linearGradient id="linear-gradient" x1="-1438.5" y1="568.8" x2="-1439.5" y2="567.8" gradientTransform="matrix(70, 0, 0, -70, 100764.99, 39816)" gradientUnits="userSpaceOnUse">
      <stop offset="0" stop-color="#7cc098"/>
      <stop offset="1" stop-color="#5f8a71"/>
    </linearGradient>
  </defs>
  <g mask="url(#mask)">
    <g>
      <path d="M0,0H70V70H0Z" fill-rule="evenodd" fill="url(#linear-gradient)"/>
      <path d="M4,1H65c2.67,0,4.33.67,5,2V0H0V3C.67,1.67,2,1,4,1Z" fill="#fff" fill-opacity="0.38" fill-rule="evenodd"/>
      <path d="M4,69a3.66,3.66,0,0,1-4-4V39L31.75,9.77v5.76L41.66,7.7l6.92,7.88v5.85L61,31.3l-4,7.51a11.77,11.77,0,0,0,2.44-.2L50.68,69Z" fill="#393939" fill-rule="evenodd" opacity="0.32" style="isolation: isolate"/>
      <path d="M4,69H65c2.67,0,4.33-1,5-3v4H0V66A3.92,3.92,0,0,0,4,69Z" fill-opacity="0.38" fill-rule="evenodd"/>
      <g>
        <path d="M57.31,38.82a21.2,21.2,0,0,1-2.66,7.68l-5.16-4.73a9.89,9.89,0,0,1-5,1.24c-.33,0-.65,0-1,0-.1.1-.19.21-.29.32a11,11,0,0,1-15.56,0,11,11,0,0,1,0-15.56,10.56,10.56,0,0,1,5.07-2.88,12.18,12.18,0,0,1-1.15-1.71c-.41.11-.82.23-1.23.37L24.5,17.35a22.77,22.77,0,0,1,5.57-2.16,14.64,14.64,0,0,1,.7-3.28,23.37,23.37,0,0,0-5.29,1.53,24,24,0,0,0-13,13,24.33,24.33,0,0,0,0,19,24,24,0,0,0,13,13,24.33,24.33,0,0,0,19,0,24,24,0,0,0,13-13,23.9,23.9,0,0,0,1.8-6.91A11.12,11.12,0,0,1,57.31,38.82Zm-34.81,2L16.35,46.5a20.77,20.77,0,0,1,0-21l6.15,5.64a13.71,13.71,0,0,0,0,9.72Zm13,16.64a22.58,22.58,0,0,1-11-2.85l5.91-6.15a15.16,15.16,0,0,0,5.09.89,15,15,0,0,0,5.09-.89l5.91,6.15A22.58,22.58,0,0,1,35.5,57.5Z" fill-rule="evenodd" opacity="0.4" style="isolation: isolate"/>
        <path d="M57.19,38.82h-.27a21.69,21.69,0,0,1-2.27,5.69l-3.92-3.6A9.41,9.41,0,0,1,44.54,43a11.33,11.33,0,0,1-1.88-.17,11,11,0,0,1-14.94-.56A10.59,10.59,0,0,1,24.5,34.5a10.59,10.59,0,0,1,3.22-7.78A10.75,10.75,0,0,1,32.18,24a13,13,0,0,1-1.34-2.66l-.43.14L24.5,15.35a22.92,22.92,0,0,1,5.91-2.21,13.11,13.11,0,0,1,1.34-3.37,23.64,23.64,0,0,0-6.27,1.67,24,24,0,0,0-13,13,24.33,24.33,0,0,0,0,19,24,24,0,0,0,13,13,24.33,24.33,0,0,0,19,0,24,24,0,0,0,13-13,24.12,24.12,0,0,0,1.49-4.86A11,11,0,0,1,57.19,38.82Zm-34.69,0L16.35,44.5a20.77,20.77,0,0,1,0-21l6.15,5.64a13.71,13.71,0,0,0,0,9.72Zm13,16.64a22.58,22.58,0,0,1-11-2.85l5.91-6.15a15.16,15.16,0,0,0,5.09.89,15,15,0,0,0,5.09-.89l5.91,6.15A22.58,22.58,0,0,1,35.5,55.5Z" fill="#fff" fill-rule="evenodd"/>
      </g>
      <g>
        <path id="d" d="M34.27,20h5.85l2.23-3-2.23-3.05H34.27a.65.65,0,0,1-.57-1,8,8,0,0,1,6.87-3.79,8,8,0,0,1,8,7.88,7.92,7.92,0,0,1-8,7.78A8.06,8.06,0,0,1,33.69,21,.65.65,0,0,1,34.27,20Zm10.55,6-1-1a8.84,8.84,0,0,0,5-4.92L60,31a3.44,3.44,0,0,1,.08,4.85l-.08.08a3.64,3.64,0,0,1-5,0l-1.75-1.72A9.2,9.2,0,0,0,44.82,26ZM55.26,32.6a1.34,1.34,0,0,0,2.67,0,1.34,1.34,0,0,0-2.67,0ZM39.94,35.37a4.8,4.8,0,0,1,0-1.85l-1.13-.65a.31.31,0,0,1-.14-.37A6.6,6.6,0,0,1,40.11,30a.32.32,0,0,1,.39-.06l1.13.65a5.24,5.24,0,0,1,1.6-.93v-1.3a.32.32,0,0,1,.25-.3,6.41,6.41,0,0,1,2.89,0,.31.31,0,0,1,.24.3v1.3a5.17,5.17,0,0,1,1.61.93l1.13-.65a.32.32,0,0,1,.39.06,6.6,6.6,0,0,1,1.44,2.5.31.31,0,0,1-.14.37l-1.13.65a5.23,5.23,0,0,1,0,1.85L51,36a.29.29,0,0,1,.14.36,6.53,6.53,0,0,1-1.44,2.5.32.32,0,0,1-.4.06l-1.12-.65a5,5,0,0,1-1.6.93v1.3a.33.33,0,0,1-.25.31,6.71,6.71,0,0,1-2.89,0,.32.32,0,0,1-.25-.31v-1.3a5,5,0,0,1-1.6-.93L40.5,39a.31.31,0,0,1-.39-.06,6.53,6.53,0,0,1-1.44-2.5.29.29,0,0,1,.14-.36Zm2.81-.92a2.2,2.2,0,1,0,2.2-2.2A2.2,2.2,0,0,0,42.75,34.45Z" opacity="0.4"/>
        <path id="e" d="M34.27,18.58h5.85l2.23-3-2.23-3H34.27a.66.66,0,0,1-.57-1A8,8,0,0,1,40.57,7.7a8,8,0,0,1,8,7.88,7.92,7.92,0,0,1-8,7.78,8.06,8.06,0,0,1-6.88-3.8A.65.65,0,0,1,34.27,18.58Zm10.55,6-1-1a8.86,8.86,0,0,0,5-4.93L60,29.6a3.44,3.44,0,0,1,.08,4.85.3.3,0,0,0-.08.08,3.62,3.62,0,0,1-5,0l-1.75-1.71A9.2,9.2,0,0,0,44.82,24.61ZM55.26,31.2a1.34,1.34,0,1,0,1.34-1.31A1.32,1.32,0,0,0,55.26,31.2ZM39.94,34a4.85,4.85,0,0,1,0-1.86l-1.13-.65a.31.31,0,0,1-.14-.37,6.6,6.6,0,0,1,1.44-2.5.32.32,0,0,1,.39-.05l1.13.64a5,5,0,0,1,1.6-.92V27a.32.32,0,0,1,.25-.31,6.41,6.41,0,0,1,2.89,0,.31.31,0,0,1,.24.31v1.3a5,5,0,0,1,1.61.92l1.13-.64a.32.32,0,0,1,.39.05,6.6,6.6,0,0,1,1.44,2.5.31.31,0,0,1-.14.37l-1.13.65a5.28,5.28,0,0,1,0,1.86l1.13.65a.31.31,0,0,1,.14.37,6.6,6.6,0,0,1-1.44,2.5.33.33,0,0,1-.4,0l-1.12-.64a5,5,0,0,1-1.6.92v1.3a.33.33,0,0,1-.25.31,6.41,6.41,0,0,1-2.89,0,.32.32,0,0,1-.25-.31v-1.3a5,5,0,0,1-1.6-.92l-1.13.64a.32.32,0,0,1-.39,0A6.6,6.6,0,0,1,38.67,35a.31.31,0,0,1,.14-.37ZM42.75,33a2.2,2.2,0,1,0,2.2-2.2A2.2,2.2,0,0,0,42.75,33Z" fill="#fff"/>
      </g>
    </g>
  </g>
</svg>
