<svg width="50" height="50" viewBox="0 0 50 50" xmlns="http://www.w3.org/2000/svg"><path d="M25 25.87V4c.54 0 1.08.219 1.473.656l7.617 8.47.01.012.24.268.32.16.016.008 10.228 5.118c.509.255.858.696 1.01 1.198L25 25.87Z" fill="var(--o-icons-yellow-yellow, #F77B09)"/><path d="M25 25.87V4c.54 0 1.08.219 1.473.656l7.617 8.47.01.012.24.268.32.16.016.008 10.228 5.118c.509.255.858.696 1.01 1.198L25 25.87Z" fill="url(#o_icon_hr_appraisal__a)" fill-opacity=".2"/><path d="M25 25.87V4c-.537 0-1.074.217-1.467.65l-7.874 8.756-10.567 5.288a1.975 1.975 0 0 0-1.006 1.196L25 25.87Z" fill="var(--o-icons-yellow-pure, #FBB130)"/><path d="M25 25.87V4c-.537 0-1.074.217-1.467.65l-7.874 8.756-10.567 5.288a1.975 1.975 0 0 0-1.006 1.196L25 25.87Z" fill="url(#o_icon_hr_appraisal__b)" fill-opacity=".2"/><path d="M4.086 19.89a1.977 1.977 0 0 0 .175 1.56l6.21 10.652L25 25.87 4.085 19.89Z" fill="var(--o-icons-purple-purple, #55103D)"/><path d="M4.086 19.89a1.977 1.977 0 0 0 .175 1.56l6.21 10.652L25 25.87 4.085 19.89Z" fill="url(#o_icon_hr_appraisal__c)" fill-opacity=".3"/><path d="M11.331 44.157c.045.626.37 1.15.833 1.478L25 25.87l-14.53 6.232.032.436.002.024.827 11.595Z" fill="var(--o-icons-purple-purple, #55103D)"/><path d="M11.331 44.157c.045.626.37 1.15.833 1.478L25 25.87l-14.53 6.232.032.436.002.024.827 11.595Z" fill="url(#o_icon_hr_appraisal__d)" fill-opacity=".3"/><path d="m24.418 42.67.015-.005.567-.175 11.126 3.426a1.97 1.97 0 0 0 1.71-.28L25 25.87 12.164 45.636a1.97 1.97 0 0 0 1.726.275l10.527-3.242Z" fill="var(--o-icons-purple-pure, #93407D)"/><path d="m24.418 42.67.015-.005.567-.175 11.126 3.426a1.97 1.97 0 0 0 1.71-.28L25 25.87 12.164 45.636a1.97 1.97 0 0 0 1.726.275l10.527-3.242Z" fill="url(#o_icon_hr_appraisal__e)" fill-opacity=".2"/><path d="M45.73 21.465c.29-.498.338-1.067.184-1.575L25 25.87l14.53 6.232.216-.371.015-.027 5.968-10.24Z" fill="var(--o-icons-yellow-pure, #FBB130)"/><path d="M45.73 21.465c.29-.498.338-1.067.184-1.575L25 25.87l14.53 6.232.216-.371.015-.027 5.968-10.24Z" fill="url(#o_icon_hr_appraisal__f)" fill-opacity=".2"/><path d="M37.836 45.635c.462-.326.787-.85.833-1.472v-.006l.86-12.055L25 25.87l12.836 19.765Z" fill="var(--o-icons-yellow-pure, #FBB130)"/><path d="M37.836 45.635c.462-.326.787-.85.833-1.472v-.006l.86-12.055L25 25.87l12.836 19.765Z" fill="url(#o_icon_hr_appraisal__g)" fill-opacity=".2"/><path d="M25 4v21.87l9.34-12.464-.24-.268-.01-.011-7.617-8.47A1.973 1.973 0 0 0 25 4Z" fill="var(--o-icons-yellow-yellow, #F77B09)"/><path d="M25 4v21.87l9.34-12.464-.24-.268-.01-.011-7.617-8.47A1.973 1.973 0 0 0 25 4Z" fill="url(#o_icon_hr_appraisal__h)" fill-opacity=".2"/><path d="m34.66 13.566.016.008 10.228 5.118c.509.255.858.696 1.01 1.198L25 25.87l9.34-12.464.32.16Z" fill="var(--o-icons-yellow-yellow, #F77B09)"/><path d="m34.66 13.566.016.008 10.228 5.118c.509.255.858.696 1.01 1.198L25 25.87l9.34-12.464.32.16Z" fill="url(#o_icon_hr_appraisal__i)" fill-opacity=".2"/><path d="M45.914 19.89a1.978 1.978 0 0 1-.184 1.575l-5.968 10.24a1.82 1.82 0 0 0-.016.026l-.216.372L25 25.87l20.914-5.98Z" fill="var(--o-icons-yellow-pure, #FBB130)"/><path d="M45.914 19.89a1.978 1.978 0 0 1-.184 1.575l-5.968 10.24a1.82 1.82 0 0 0-.016.026l-.216.372L25 25.87l20.914-5.98Z" fill="url(#o_icon_hr_appraisal__j)" fill-opacity=".2"/><path d="M38.669 44.163a1.972 1.972 0 0 1-.833 1.473L25 25.87l14.53 6.233-.86 12.054-.001.006Z" fill="var(--o-icons-yellow-pure, #FBB130)"/><path d="M38.669 44.163a1.972 1.972 0 0 1-.833 1.473L25 25.87l14.53 6.233-.86 12.054-.001.006Z" fill="url(#o_icon_hr_appraisal__k)" fill-opacity=".2"/><path d="M37.836 45.636a1.97 1.97 0 0 1-1.71.28L25 42.49V25.87l12.836 19.765Z" fill="var(--o-icons-purple-pure, #93407D)"/><path d="M37.836 45.636a1.97 1.97 0 0 1-1.71.28L25 42.49V25.87l12.836 19.765Z" fill="url(#o_icon_hr_appraisal__l)" fill-opacity=".2"/><path d="m24.433 42.665-.015.004-10.528 3.242a1.97 1.97 0 0 1-1.726-.275L25.001 25.87v16.62l-.568.175Z" fill="var(--o-icons-purple-pure, #93407D)"/><path d="m24.433 42.665-.015.004-10.528 3.242a1.97 1.97 0 0 1-1.726-.275L25.001 25.87v16.62l-.568.175Z" fill="url(#o_icon_hr_appraisal__m)" fill-opacity=".2"/><path d="M12.164 45.635a1.972 1.972 0 0 1-.833-1.478l-.827-11.595-.002-.023-.031-.436L25 25.87 12.163 45.635Z" fill="var(--o-icons-purple-purple, #55103D)"/><path d="M12.164 45.635a1.972 1.972 0 0 1-.833-1.478l-.827-11.595-.002-.023-.031-.436L25 25.87 12.163 45.635Z" fill="url(#o_icon_hr_appraisal__n)" fill-opacity=".3"/><path d="M4.261 21.45a1.977 1.977 0 0 1-.175-1.56L25 25.87l-14.53 6.233-6.209-10.654Z" fill="var(--o-icons-purple-purple, #55103D)"/><path d="M4.261 21.45a1.977 1.977 0 0 1-.175-1.56L25 25.87l-14.53 6.233-6.209-10.654Z" fill="url(#o_icon_hr_appraisal__o)" fill-opacity=".3"/><path d="M5.092 18.694a1.975 1.975 0 0 0-1.006 1.196L25 25.87l-9.34-12.464-10.568 5.288Z" fill="var(--o-icons-yellow-pure, #FBB130)"/><path d="M5.092 18.694a1.975 1.975 0 0 0-1.006 1.196L25 25.87l-9.34-12.464-10.568 5.288Z" fill="url(#o_icon_hr_appraisal__p)" fill-opacity=".2"/><path d="M25 4v21.87l-9.34-12.464 7.873-8.756c.393-.433.93-.65 1.467-.65Z" fill="var(--o-icons-yellow-pure, #FBB130)"/><path d="M25 4v21.87l-9.34-12.464 7.873-8.756c.393-.433.93-.65 1.467-.65Z" fill="url(#o_icon_hr_appraisal__q)" fill-opacity=".2"/><defs><linearGradient id="o_icon_hr_appraisal__a" x1="25" y1="4" x2="49.729" y2="9.912" gradientUnits="userSpaceOnUse"><stop stop-color="#fff"/><stop offset="1" stop-color="#fff" stop-opacity="0"/></linearGradient><linearGradient id="o_icon_hr_appraisal__b" x1="4.086" y1="4" x2="28.815" y2="9.912" gradientUnits="userSpaceOnUse"><stop stop-color="#fff"/><stop offset="1" stop-color="#fff" stop-opacity="0"/></linearGradient><linearGradient id="o_icon_hr_appraisal__c" x1="4" y1="19.89" x2="29.202" y2="25.029" gradientUnits="userSpaceOnUse"><stop stop-color="#fff"/><stop offset="1" stop-color="#fff" stop-opacity="0"/></linearGradient><linearGradient id="o_icon_hr_appraisal__d" x1="4" y1="19.89" x2="29.202" y2="25.029" gradientUnits="userSpaceOnUse"><stop stop-color="#fff"/><stop offset="1" stop-color="#fff" stop-opacity="0"/></linearGradient><linearGradient id="o_icon_hr_appraisal__e" x1="12.164" y1="25.87" x2="41.293" y2="35.158" gradientUnits="userSpaceOnUse"><stop stop-color="#fff"/><stop offset="1" stop-color="#fff" stop-opacity="0"/></linearGradient><linearGradient id="o_icon_hr_appraisal__f" x1="25" y1="19.89" x2="50.202" y2="25.029" gradientUnits="userSpaceOnUse"><stop stop-color="#fff"/><stop offset="1" stop-color="#fff" stop-opacity="0"/></linearGradient><linearGradient id="o_icon_hr_appraisal__g" x1="25" y1="19.89" x2="50.202" y2="25.029" gradientUnits="userSpaceOnUse"><stop stop-color="#fff"/><stop offset="1" stop-color="#fff" stop-opacity="0"/></linearGradient><linearGradient id="o_icon_hr_appraisal__h" x1="25" y1="4" x2="36.544" y2="5.233" gradientUnits="userSpaceOnUse"><stop stop-color="#fff"/><stop offset="1" stop-color="#fff" stop-opacity="0"/></linearGradient><linearGradient id="o_icon_hr_appraisal__i" x1="25" y1="13.406" x2="47.231" y2="22.731" gradientUnits="userSpaceOnUse"><stop stop-color="#fff"/><stop offset="1" stop-color="#fff" stop-opacity="0"/></linearGradient><linearGradient id="o_icon_hr_appraisal__j" x1="25" y1="19.89" x2="47.156" y2="29.414" gradientUnits="userSpaceOnUse"><stop stop-color="#fff"/><stop offset="1" stop-color="#fff" stop-opacity="0"/></linearGradient><linearGradient id="o_icon_hr_appraisal__k" x1="25" y1="25.87" x2="42.569" y2="29.099" gradientUnits="userSpaceOnUse"><stop stop-color="#fff"/><stop offset="1" stop-color="#fff" stop-opacity="0"/></linearGradient><linearGradient id="o_icon_hr_appraisal__l" x1="25" y1="25.87" x2="40.648" y2="28.365" gradientUnits="userSpaceOnUse"><stop stop-color="#fff"/><stop offset="1" stop-color="#fff" stop-opacity="0"/></linearGradient><linearGradient id="o_icon_hr_appraisal__m" x1="12.164" y1="25.87" x2="27.812" y2="28.365" gradientUnits="userSpaceOnUse"><stop stop-color="#fff"/><stop offset="1" stop-color="#fff" stop-opacity="0"/></linearGradient><linearGradient id="o_icon_hr_appraisal__n" x1="10.471" y1="25.87" x2="28.039" y2="29.099" gradientUnits="userSpaceOnUse"><stop stop-color="#fff"/><stop offset="1" stop-color="#fff" stop-opacity="0"/></linearGradient><linearGradient id="o_icon_hr_appraisal__o" x1="4" y1="19.89" x2="26.156" y2="29.414" gradientUnits="userSpaceOnUse"><stop stop-color="#fff"/><stop offset="1" stop-color="#fff" stop-opacity="0"/></linearGradient><linearGradient id="o_icon_hr_appraisal__p" x1="4.086" y1="13.406" x2="26.317" y2="22.731" gradientUnits="userSpaceOnUse"><stop stop-color="#fff"/><stop offset="1" stop-color="#fff" stop-opacity="0"/></linearGradient><linearGradient id="o_icon_hr_appraisal__q" x1="15.659" y1="4" x2="27.203" y2="5.233" gradientUnits="userSpaceOnUse"><stop stop-color="#fff"/><stop offset="1" stop-color="#fff" stop-opacity="0"/></linearGradient></defs></svg>
