<svg width="50" height="50" viewBox="0 0 50 50" xmlns="http://www.w3.org/2000/svg"><path d="m37.944 36.027.006-.01-33.213-19.83c-1.327 2.377-.85 5.7 1.327 9.24 2.176 3.54 5.873 7.006 10.277 9.635 4.405 2.63 9.155 4.208 13.208 4.387 1.992.088 3.735-.166 5.15-.728l8.392 5.01c.928.553 2.114.225 2.649-.734.535-.959.218-2.185-.71-2.739l-7.086-4.23Z" fill="var(--o-icons-purple-purple, #55103D)"/><path d="m37.944 36.027.006-.01-33.213-19.83c-1.327 2.377-.85 5.7 1.327 9.24 2.176 3.54 5.873 7.006 10.277 9.635 4.405 2.63 9.155 4.208 13.208 4.387 1.992.088 3.735-.166 5.15-.728l8.392 5.01c.928.553 2.114.225 2.649-.734.535-.959.218-2.185-.71-2.739l-7.086-4.23Z" fill="url(#o_icon_pos_preparation_display__a)" fill-opacity=".3"/><path d="M37.95 36.017c-.691 1.237-8.686-2.199-17.858-7.675-9.171-5.475-16.046-10.917-15.356-12.154.691-1.237 8.686 2.199 17.857 7.675C31.765 29.338 38.64 34.78 37.95 36.017Z" fill="var(--o-icons-purple-pure, #93407D)"/><path d="M37.95 36.017c-.691 1.237-8.686-2.199-17.858-7.675-9.171-5.475-16.046-10.917-15.356-12.154.691-1.237 8.686 2.199 17.857 7.675C31.765 29.338 38.64 34.78 37.95 36.017Z" fill="url(#o_icon_pos_preparation_display__b)" fill-opacity=".2"/><path d="M17.491 6.118C12.3 7.528 7.633 11 4.737 16.188c-.59 1.055 4.328 5.17 11.48 9.757.186-5.884 2.415-10.506 4.047-13.428.075-.135.15-.268.227-.401 1.67-2.89.149-6.853-3-5.998Z" fill="var(--o-icons-yellow-pure, #FBB130)"/><path d="M17.491 6.118C12.3 7.528 7.633 11 4.737 16.188c-.59 1.055 4.328 5.17 11.48 9.757.186-5.884 2.415-10.506 4.047-13.428.075-.135.15-.268.227-.401 1.67-2.89.149-6.853-3-5.998Z" fill="url(#o_icon_pos_preparation_display__c)" fill-opacity=".2"/><path d="M16.217 25.945c-7.152-4.586-12.07-8.702-11.48-9.757.543-.974 5.607.946 12.208 4.475a25.6 25.6 0 0 0-.728 5.282Z" fill="var(--o-icons-purple-yellow, #912C18)"/><path d="M16.217 25.945c-7.152-4.586-12.07-8.702-11.48-9.757.543-.974 5.607.946 12.208 4.475a25.6 25.6 0 0 0-.728 5.282Z" fill="url(#o_icon_pos_preparation_display__d)" fill-opacity=".2"/><path d="M30.597 19.823c-.937 1.678-3.011 2.253-4.634 1.285-1.623-.97-2.178-3.115-1.242-4.793.937-1.678 3.012-2.253 4.634-1.284 1.623.969 2.179 3.114 1.242 4.792Z" fill="var(--o-icons-yellow-pure, #FBB130)"/><path d="M30.597 19.823c-.937 1.678-3.011 2.253-4.634 1.285-1.623-.97-2.178-3.115-1.242-4.793.937-1.678 3.012-2.253 4.634-1.284 1.623.969 2.179 3.114 1.242 4.792Z" fill="url(#o_icon_pos_preparation_display__e)" fill-opacity=".2"/><path d="M26.915 10.55c-.536.96-1.721 1.288-2.648.734-.928-.554-1.245-1.78-.71-2.738.535-.96 1.72-1.288 2.648-.734.927.553 1.245 1.78.71 2.738Z" fill="var(--o-icons-yellow-pure, #FBB130)"/><path d="M26.915 10.55c-.536.96-1.721 1.288-2.648.734-.928-.554-1.245-1.78-.71-2.738.535-.96 1.72-1.288 2.648-.734.927.553 1.245 1.78.71 2.738Z" fill="url(#o_icon_pos_preparation_display__f)" fill-opacity=".2"/><defs><linearGradient id="o_icon_pos_preparation_display__a" x1="4" y1="16.188" x2="49.951" y2="33.535" gradientUnits="userSpaceOnUse"><stop stop-color="#fff"/><stop offset="1" stop-color="#fff" stop-opacity="0"/></linearGradient><linearGradient id="o_icon_pos_preparation_display__b" x1="4.689" y1="15.935" x2="40.345" y2="30.537" gradientUnits="userSpaceOnUse"><stop stop-color="#fff"/><stop offset="1" stop-color="#fff" stop-opacity="0"/></linearGradient><linearGradient id="o_icon_pos_preparation_display__c" x1="4.689" y1="6" x2="24.455" y2="10.085" gradientUnits="userSpaceOnUse"><stop stop-color="#fff"/><stop offset="1" stop-color="#fff" stop-opacity="0"/></linearGradient><linearGradient id="o_icon_pos_preparation_display__d" x1="4.689" y1="15.935" x2="18.697" y2="20.224" gradientUnits="userSpaceOnUse"><stop stop-color="#fff"/><stop offset="1" stop-color="#fff" stop-opacity="0"/></linearGradient><linearGradient id="o_icon_pos_preparation_display__e" x1="24.266" y1="14.56" x2="32.28" y2="16.498" gradientUnits="userSpaceOnUse"><stop stop-color="#fff"/><stop offset="1" stop-color="#fff" stop-opacity="0"/></linearGradient><linearGradient id="o_icon_pos_preparation_display__f" x1="23.297" y1="7.543" x2="27.876" y2="8.65" gradientUnits="userSpaceOnUse"><stop stop-color="#fff"/><stop offset="1" stop-color="#fff" stop-opacity="0"/></linearGradient></defs></svg>
