<svg width="50" height="50" viewBox="0 0 50 50" xmlns="http://www.w3.org/2000/svg"><path d="M40.681 41.263c-3.514 4.188-9.758 4.734-13.946 1.22-4.188-3.514-4.735-9.758-1.22-13.947 3.514-4.188 9.758-4.734 13.946-1.22 4.188 3.515 4.734 9.759 1.22 13.947Z" fill="var(--o-icons-teal-pure, #00CEB3)"/><path d="M40.681 41.263c-3.514 4.188-9.758 4.734-13.946 1.22-4.188-3.514-4.735-9.758-1.22-13.947 3.514-4.188 9.758-4.734 13.946-1.22 4.188 3.515 4.734 9.759 1.22 13.947Z" fill="url(#o_icon_account_accountant__a)" fill-opacity=".2"/><path d="M25.382 21.463c-3.514 4.189-9.758 4.735-13.946 1.22-4.188-3.514-4.735-9.758-1.22-13.946 3.514-4.188 9.758-4.734 13.946-1.22 4.188 3.514 4.734 9.758 1.22 13.946Z" fill="var(--o-icons-yellow-pure, #FBB130)"/><path d="M25.382 21.463c-3.514 4.189-9.758 4.735-13.946 1.22-4.188-3.514-4.735-9.758-1.22-13.946 3.514-4.188 9.758-4.734 13.946-1.22 4.188 3.514 4.734 9.758 1.22 13.946Z" fill="url(#o_icon_account_accountant__b)" fill-opacity=".2"/><path d="M37.09 6.546c1.407-1.406 3.36-1.732 4.364-.728L46 10.364l-33.09 33.09c-1.407 1.406-3.36 1.732-4.365.728L4 39.636l33.09-33.09Z" fill="var(--o-icons-purple-pure, #93407D)"/><path d="M37.09 6.546c1.407-1.406 3.36-1.732 4.364-.728L46 10.364l-33.09 33.09c-1.407 1.406-3.36 1.732-4.365.728L4 39.636l33.09-33.09Z" fill="url(#o_icon_account_accountant__c)" fill-opacity=".2"/><path d="m31.174 25.189-7.79 7.789a9.854 9.854 0 0 1 2.13-4.442 9.857 9.857 0 0 1 5.66-3.348Z" fill="var(--o-icons-purple-teal, #003458)"/><path d="m31.174 25.189-7.79 7.789a9.854 9.854 0 0 1 2.13-4.442 9.857 9.857 0 0 1 5.66-3.348Z" fill="url(#o_icon_account_accountant__d)" fill-opacity=".3"/><path d="M18.675 24.96a9.868 9.868 0 0 0 6.707-3.497 9.855 9.855 0 0 0 2.278-5.487l-8.985 8.985Z" fill="var(--o-icons-purple-yellow, #912C18)"/><path d="M18.675 24.96a9.868 9.868 0 0 0 6.707-3.497 9.855 9.855 0 0 0 2.278-5.487l-8.985 8.985Z" fill="url(#o_icon_account_accountant__e)" fill-opacity=".2"/><defs><linearGradient id="o_icon_account_accountant__a" x1="23.198" y1="25" x2="46.491" y2="30.823" gradientUnits="userSpaceOnUse"><stop stop-color="#fff"/><stop offset="1" stop-color="#fff" stop-opacity="0"/></linearGradient><linearGradient id="o_icon_account_accountant__b" x1="7.899" y1="5.201" x2="31.192" y2="11.024" gradientUnits="userSpaceOnUse"><stop stop-color="#fff"/><stop offset="1" stop-color="#fff" stop-opacity="0"/></linearGradient><linearGradient id="o_icon_account_accountant__c" x1="4" y1="5.235" x2="53.04" y2="18.262" gradientUnits="userSpaceOnUse"><stop stop-color="#fff"/><stop offset="1" stop-color="#fff" stop-opacity="0"/></linearGradient><linearGradient id="o_icon_account_accountant__d" x1="23.385" y1="25.189" x2="32.549" y2="27.48" gradientUnits="userSpaceOnUse"><stop stop-color="#fff"/><stop offset="1" stop-color="#fff" stop-opacity="0"/></linearGradient><linearGradient id="o_icon_account_accountant__e" x1="18.675" y1="15.976" x2="29.246" y2="18.618" gradientUnits="userSpaceOnUse"><stop stop-color="#fff"/><stop offset="1" stop-color="#fff" stop-opacity="0"/></linearGradient></defs></svg>
